<svg aria-hidden="true" style="position: absolute; width: 0; height: 0; overflow: hidden;" version="1.1" xmlns="http://www.w3.org/2000/svg" xmlns:xlink="http://www.w3.org/1999/xlink">
<defs>
<symbol id="poseidon-logo" viewBox="0 0 140 32">
<path fill="#344fb5" style="fill: var(--color1, #344fb5)" d="M30.209 19.353c0.138-0.508 0.248-1.023 0.329-1.542-0.846 2.473-2.376 4.656-4.411 6.296s-4.494 2.669-7.090 2.97c-2.596 0.3-5.225-0.141-7.581-1.273s-4.343-2.908-5.731-5.123l-5.274 3.051c1.683 2.718 4.125 4.884 7.025 6.232s6.129 1.818 9.293 1.352c3.163-0.465 6.121-1.846 8.509-3.971s4.103-4.903 4.932-7.991z"></path>
<path fill="#3677e3" style="fill: var(--color2, #3677e3)" d="M12.449 15.655l11.409-6.589c0.112-0.046 0.238-0.050 0.353-0.010s0.212 0.12 0.271 0.226c0.060 0.106 0.079 0.23 0.054 0.349s-0.093 0.225-0.19 0.297l-11.421 6.589c0.249 0.397 0.525 0.776 0.828 1.134 0.349 0.406 0.728 0.785 1.134 1.134l4.332-3.402c0.050-0.041 0.108-0.071 0.171-0.089s0.127-0.024 0.192-0.016c0.064 0.007 0.127 0.027 0.183 0.059s0.106 0.074 0.146 0.126c0.067 0.088 0.103 0.196 0.102 0.306v1.021l4.208-3.402c0.051-0.041 0.11-0.072 0.173-0.090s0.129-0.024 0.195-0.016c0.065 0.007 0.129 0.028 0.186 0.059s0.108 0.075 0.149 0.126c0.041 0.050 0.071 0.108 0.089 0.171s0.024 0.127 0.016 0.192c-0.007 0.064-0.027 0.127-0.059 0.183s-0.074 0.106-0.126 0.146l-5.001 4.026c-0.086 0.072-0.194 0.112-0.306 0.113-0.13 0-0.256-0.051-0.349-0.142s-0.147-0.215-0.15-0.346v-1.043l-3.527 2.801c-0.094 0.064-0.204 0.1-0.318 0.102-0.082 0.101-0.201 0.166-0.33 0.18s-0.259-0.021-0.362-0.101c-0.548-0.41-1.053-0.873-1.508-1.384-0.347-0.393-0.665-0.81-0.953-1.248l-5.489 3.176c1.755 2.931 4.603 5.045 7.916 5.877s6.822 0.313 9.753-1.442c2.931-1.755 5.045-4.603 5.877-7.916s0.313-6.822-1.442-9.753l-0.057-0.102c-0.006-0.026-0.006-0.053 0-0.079-1.222-2.086-3.218-3.605-5.554-4.227s-4.823-0.297-6.921 0.904c-1.059 0.593-1.987 1.393-2.732 2.351s-1.288 2.056-1.601 3.229c-0.245 0.878-0.359 1.788-0.34 2.699l3.924-1.554-0.885-0.522c-0.114-0.066-0.197-0.175-0.231-0.303s-0.016-0.263 0.050-0.378c0.057-0.097 0.145-0.173 0.25-0.215l5.988-2.268c0.060-0.023 0.125-0.034 0.189-0.032s0.128 0.016 0.187 0.043c0.059 0.026 0.112 0.064 0.157 0.111s0.079 0.102 0.102 0.162c0.023 0.060 0.034 0.125 0.032 0.189s-0.016 0.128-0.043 0.187c-0.026 0.059-0.064 0.112-0.111 0.157s-0.102 0.079-0.162 0.102l-5.024 1.894 0.873 0.522c0.096 0.055 0.169 0.144 0.204 0.249 0.024 0.060 0.036 0.123 0.035 0.188s-0.014 0.128-0.039 0.187-0.062 0.112-0.108 0.157c-0.046 0.045-0.1 0.080-0.16 0.104l-5.115 2.041 0.885 2.801z"></path>
<path fill="#93c3ff" style="fill: var(--color3, #93c3ff)" d="M15.556 2.693c2.072-1.202 4.504-1.628 6.861-1.202-0.536-0.219-1.085-0.405-1.645-0.556-2.41-0.635-4.953-0.556-7.319 0.229s-4.453 2.241-6.006 4.19-2.505 4.309-2.741 6.791c-0.236 2.481 0.255 4.978 1.413 7.185l5.5-3.176v-1.236l-0.057-0.159v-0.794h-0.907v-0.204c-0.057-0.238-0.091-0.488-0.125-0.726-0.285-2.017 0.039-4.074 0.933-5.905s2.314-3.353 4.080-4.37l0.011-0.068z"></path>
<path fill="#4289fe" style="fill: var(--color4, #4289fe)" d="M134.263 22.891h5.478v-13.757h-2.098l0.011 11.931h-1.486l-1.361-11.931h-5.478v13.757h2.155v-11.908h1.474l1.304 11.908z"></path>
<path fill="#4289fe" style="fill: var(--color4, #4289fe)" d="M114.881 15.996c-0.033-0.714 0.079-1.427 0.33-2.096s0.634-1.281 1.127-1.798c0.494-0.517 1.087-0.928 1.744-1.209s1.364-0.426 2.078-0.426 1.422 0.145 2.079 0.426c0.657 0.281 1.25 0.693 1.743 1.209s0.878 1.128 1.128 1.798c0.251 0.669 0.363 1.383 0.329 2.096 0 1.396-0.554 2.734-1.541 3.721s-2.325 1.541-3.72 1.541c-1.398-0.003-2.738-0.557-3.73-1.542s-1.554-2.322-1.566-3.72zM127.526 15.996c0.002-1.457-0.427-2.881-1.236-4.093s-1.957-2.157-3.302-2.716c-1.346-0.558-2.827-0.705-4.255-0.422s-2.741 0.985-3.771 2.015c-1.030 1.030-1.731 2.343-2.015 3.771s-0.136 2.91 0.422 4.255 1.503 2.495 2.715 3.303c1.212 0.808 2.637 1.238 4.094 1.236 1.948-0.003 3.816-0.778 5.193-2.156s2.152-3.245 2.155-5.193z"></path>
<path fill="#4289fe" style="fill: var(--color4, #4289fe)" d="M103.994 20.827h-1.237v-9.629h1.237c1.328-0.049 2.621 0.431 3.595 1.335s1.549 2.157 1.599 3.485c-0.053 1.326-0.629 2.576-1.603 3.478s-2.265 1.38-3.591 1.331zM110.685 13.296c-0.376-0.823-0.911-1.564-1.576-2.177-1.39-1.288-3.22-1.998-5.115-1.985h-3.255v13.757h3.255c1.895 0.013 3.724-0.697 5.115-1.985 0.661-0.618 1.195-1.357 1.576-2.177 0.373-0.855 0.566-1.778 0.567-2.711-0.002-0.936-0.195-1.863-0.567-2.722z"></path>
<path fill="#4289fe" style="fill: var(--color4, #4289fe)" d="M96.996 11.153h1.792v-2.019h-5.568v2.019h1.803v9.81h-1.803v1.928h5.568v-1.928h-1.792v-9.81z"></path>
<path fill="#4289fe" style="fill: var(--color4, #4289fe)" d="M85.133 10.7c0.702-0.008 1.398 0.126 2.046 0.393s1.237 0.662 1.73 1.161c0.662 0.668 1.139 1.496 1.384 2.404h-10.207c0.241-0.907 0.714-1.736 1.373-2.404 0.974-0.979 2.293-1.537 3.674-1.554zM91.87 18.899l-2.268-0.17c-0.2 0.367-0.432 0.716-0.692 1.043-0.695 0.701-1.573 1.193-2.533 1.419s-1.966 0.177-2.901-0.141c-0.935-0.318-1.761-0.893-2.384-1.658s-1.019-1.691-1.141-2.67h12.498c0-0.215 0-0.442 0-0.68 0.011-1.832-0.659-3.603-1.879-4.969s-2.904-2.231-4.726-2.427-3.651 0.292-5.134 1.369c-1.482 1.076-2.513 2.665-2.891 4.457s-0.077 3.662 0.844 5.245c0.921 1.583 2.398 2.768 4.143 3.325s3.635 0.446 5.304-0.311c1.668-0.757 2.996-2.106 3.726-3.787l0.034-0.045z"></path>
<path fill="#4289fe" style="fill: var(--color4, #4289fe)" d="M74.042 16.778h-8.801v-7.644h10.819v2.007h-8.812v3.629h8.812v8.12h-10.819v-2.007h8.801v-4.105z"></path>
<path fill="#4289fe" style="fill: var(--color4, #4289fe)" d="M50.997 15.996c-0.011-1.056 0.294-2.092 0.877-2.973s1.416-1.567 2.393-1.97c0.977-0.403 2.051-0.504 3.086-0.29s1.981 0.733 2.718 1.49c0.494 0.489 0.883 1.072 1.147 1.715s0.394 1.332 0.385 2.027c0.008 0.689-0.124 1.373-0.387 2.011s-0.652 1.215-1.144 1.698c-0.737 0.749-1.68 1.263-2.709 1.474s-2.098 0.113-3.071-0.285-1.805-1.076-2.392-1.948c-0.586-0.872-0.9-1.899-0.901-2.95zM63.642 15.996c0.002-1.457-0.428-2.881-1.236-4.093s-1.957-2.157-3.303-2.716-2.826-0.705-4.255-0.422c-1.429 0.284-2.741 0.985-3.771 2.015s-1.731 2.343-2.015 3.771c-0.284 1.429-0.137 2.91 0.422 4.255s1.504 2.495 2.716 3.303c1.212 0.808 2.637 1.238 4.093 1.236 1.948-0.003 3.816-0.778 5.193-2.156s2.153-3.245 2.156-5.193z"></path>
<path fill="#4289fe" style="fill: var(--color4, #4289fe)" d="M42.899 17.096h-1.735v-5.92h1.735c0.791 0.006 1.548 0.324 2.106 0.884s0.873 1.319 0.876 2.11c-0.009 0.783-0.328 1.531-0.887 2.079s-1.313 0.853-2.096 0.847zM42.899 9.157h-3.799v13.723h2.064v-3.72h1.735c0.659 0.012 1.314-0.11 1.925-0.359s1.163-0.621 1.625-1.092c0.468-0.463 0.84-1.014 1.095-1.621s0.388-1.258 0.391-1.917c-0.006-1.334-0.538-2.611-1.481-3.554s-2.22-1.476-3.554-1.481v0.023z"></path>
</symbol>
<symbol id="silpo" viewBox="0 0 72 32">
<path fill="#4289fe" style="fill: var(--color1, #4289fe)" d="M70.123 11.82c0 0-0.024 0.748-0.075 1.089-0.169 1.432-0.669 2.794-1.454 3.956s-1.828 2.087-3.031 2.686c-1.648 0.735-3.354 1.302-5.097 1.694-4.893 1.036-42.284 8.354-44.671 8.794-2.134 0.392-7.442 1.014-10.66-1.694-0.939-0.755-1.711-1.731-2.259-2.855s-0.857-2.369-0.906-3.641c-0.193-4.493 2.061-9.046 6.351-12.829 2.438-2.14 5.802-3.469 8.138-3.989 2.327-0.548 4.748-0.387 6.996 0.467 0 0 0.055 0.027 0.122 0.051 0.040-0.058 0.084-0.111 0.084-0.111 1.017-1.392 3.198-3.723 6.32-3.812 2.617-0.068 4.107 1.089 4.895 2.067 0.676 0.849 1.103 1.899 1.228 3.016 0 0 0 0.087 0.020 0.182 0.084 0 0.168 0 0.168 0 2.606-0.058 25.546-0.535 27.682-0.535 1.536 0 3.741 0.201 5.048 1.864 0.741 1.023 1.13 2.298 1.099 3.602z"></path>
<path fill="#fff" style="fill: var(--color2, #fff)" d="M29.955 9.988c1.301-0.063 2.575-0.7 2.682-2.179 0.073-0.985-0.627-2.012-2.054-2.099-0.718-0.071-1.435 0.136-2.028 0.583-0.4 0.33-0.68 0.804-0.789 1.339-0.078 0.263-0.099 0.542-0.064 0.816s0.128 0.535 0.27 0.764c0.361 0.54 1.075 0.813 1.983 0.775z"></path>
<path fill="#fff" style="fill: var(--color2, #fff)" d="M67.26 12.401c-0.082 0.222-0.206 0.424-0.363 0.59s-0.346 0.296-0.552 0.378l-0.153 0.039c0 0 0.133-0.992 0.14-1.293 0.027-1.377-0.268-2.806-2.227-2.687-0.843 0.11-1.626 0.537-2.213 1.207s-0.943 1.542-1.007 2.468v0.031c-0.002 0.017-0.002 0.034 0 0.051-0.297 0.85-0.844 2.053-1.237 2.104-0.040 0.009-0.082 0.006-0.121-0.009s-0.074-0.040-0.101-0.074c-0.039-0.046-0.070-0.1-0.089-0.159s-0.027-0.122-0.022-0.185c0.041-0.403 0.116-0.802 0.222-1.191 0.167-0.676 0.285-1.364 0.355-2.060 0.148-1.675-0.798-2.007-1.773-1.937-0.584 0.061-1.135 0.327-1.569 0.758l-0.35 0.433c0 0 0.164-0.83 0.211-1.055-0.277 0.014-2.012 0.077-2.19 0.087l-0.773 3.411c-0.233 0.368-0.566 0.646-0.953 0.794l-0.146 0.044-0.013-0.169c-0.013-0.177-0.038-0.353-0.078-0.525-0.044-0.378-0.352-1.694-1.52-1.583-3.007 0.3-2.923 4.36-1.13 3.796l0.206-0.073-0.035 0.242c-0.239 1.61-0.873 2.467-1.735 2.595-0.063 0.009-0.128 0.002-0.188-0.020s-0.116-0.059-0.162-0.108c-0.085-0.109-0.149-0.237-0.187-0.374s-0.050-0.282-0.034-0.425c0.018-0.796 1.46-7.402 1.46-7.402s-2.6 0.102-2.792 0.116c-0.135 0.605-0.714 3.236-0.714 3.239l-0.084 0.346c-0.113 0.441-0.188 0.726-0.239 1.043v0.036c-0.008 0.018-0.014 0.036-0.018 0.056-0.443 1.244-1.206 2.59-1.793 2.663-0.054 0.008-0.108 0.003-0.16-0.015s-0.098-0.050-0.137-0.091c-0.043-0.050-0.076-0.108-0.097-0.172s-0.031-0.132-0.027-0.2l0.051-0.54c0 0 1.487-5.923 1.584-6.308-0.332 0-3.182 0.060-3.182 0.060l-0.279 1.080c-0.075-0.881-1.773-2.058-3.047-0.801-1.345 1.324-1.713 3.311-1.917 5.279l-0.018 0.077c-0.29 2.353-0.791 3.977-2.294 4.185-0.294 0.069-0.601 0.027-0.871-0.119 0.431-0.329 0.798-0.748 1.079-1.235 0.559-1.012 0.308-1.898-0.275-2.312-1.163-0.84-2.438 0.182-2.659 1.477-0.107 0.645 0.013 1.31 0.337 1.861-0.383 0.298-0.82 0.503-1.281 0.603-0.141 0.020-0.283 0.003-0.417-0.049s-0.254-0.137-0.352-0.249c-0.332-0.484 0.122-2.072 0.182-2.27 0 0 2.059-6.705 2.181-7.117l-4.348 0.162c-0.129 0.419-0.607 2.060-1.108 3.57-0.991 2.953-3.81 6.998-6.717 7.811-1.551 0.443-2.755 0.366-3.526-0.155-1.044-0.702-1.64-2.389-1.239-4.739 0.161-1.127 0.48-2.219 0.946-3.239 2.438-5.647 6.343-4.372 6.103-3.941-0.258 0.095-0.507 0.218-0.742 0.368-0.625 0.366-1.631 1.431-1.671 2.755-0.032 0.361 0.006 0.726 0.111 1.070s0.275 0.661 0.498 0.929c0.231 0.226 0.504 0.394 0.8 0.492s0.609 0.126 0.915 0.079c0.768-0.061 1.488-0.435 2.016-1.047s0.826-1.42 0.834-2.262c0.033-0.447-0.019-0.898-0.152-1.322s-0.345-0.815-0.622-1.147c-0.86-0.988-1.886-1.484-4.146-1.409-3.49 0.102-8.82 2.83-10.343 8.896-0.514 2.041 0.164 4.502 1.283 5.628 1.551 1.554 3.491 2.128 6.87 1.433 3.018-0.625 5.492-2.864 7.313-5.221 0 0.039 0 0.073 0 0.109-0.443 1.726 0.153 3.568 2.797 3.2 1.59-0.276 3.098-0.96 4.399-1.997 0.412 0.34 0.885 0.581 1.388 0.709s1.025 0.138 1.532 0.032c0.499-0.082 1.786-0.462 2.914-2.22 0.886-1.397 1.341-4.115 1.587-5.592 0.052-0.453 0.148-0.899 0.288-1.329 0.069-0.216 0.211-0.394 0.397-0.499 0.474-0.218 0.72 0.288 0.623 0.663s-0.581 2.246-0.581 2.254l-0.095 0.293c-0.353 0.977-0.57 2.006-0.643 3.052-0.032 0.331 0.002 0.667 0.1 0.982s0.256 0.605 0.465 0.848c0.199 0.189 0.436 0.324 0.691 0.396s0.523 0.077 0.78 0.016c1.662-0.269 2.841-2.108 3.402-3.181l0.077-0.15 0.115-0.215 0.064 0.409c0.268 1.6 1.423 2.242 3.16 1.963 2.254-0.363 3.606-1.639 4.022-3.861l0.020-0.094 0.080-0.034c0.219-0.088 0.427-0.206 0.618-0.351l0.168-0.126-0.8 3.561c0.319-0.053 2.438-0.441 2.602-0.47 0.047-0.213 0.968-4.524 0.968-4.524 0.16-0.75 0.607-2.179 1.108-2.208 0.050-0.004 0.101 0.005 0.147 0.026s0.088 0.053 0.121 0.095c0.118 0.158 0.177 0.358 0.166 0.562-0.045 0.55-0.15 1.091-0.31 1.615-0.224 0.823-0.383 1.665-0.474 2.518-0.122 1.501 1.035 1.491 1.376 1.433 0.818-0.131 1.906-0.593 2.83-2.815l0.044 0.242c0.094 0.567 0.387 1.071 0.816 1.405s0.961 0.472 1.482 0.384c0.594-0.075 1.158-0.326 1.631-0.725s0.837-0.932 1.053-1.541l0.035-0.087 0.080-0.012c0.329-0.087 0.631-0.267 0.876-0.522s0.424-0.576 0.52-0.93c-0.038-0.118-0.089-0.231-0.151-0.336zM32.192 19.249c-0.587-1.007-0.016-2.142 0.578-2.118 0.463 0.027 0.649 0.339 0.39 0.968-0.244 0.454-0.575 0.846-0.968 1.15zM50.060 14.434c-0.151 0.17-0.355 0.269-0.572 0.278-0.308 0.058-0.383-0.123-0.397-0.203-0.001-0.185 0.044-0.367 0.13-0.527s0.211-0.29 0.36-0.379c0.057-0.033 0.121-0.049 0.186-0.044s0.127 0.028 0.18 0.068c0.132 0.242 0.174 0.531 0.115 0.806h-0.002zM64.638 13.326c-0.124-0.123-0.204-0.29-0.225-0.471s0.016-0.365 0.106-0.519c0.029-0.044 0.072-0.076 0.12-0.091s0.1-0.011 0.146 0.011c-0.009 0.362-0.058 0.721-0.146 1.070zM64.825 11.266v0.058c0 0-0.886 0.036-0.984 1.494-0.014 0.254 0.036 0.507 0.142 0.734s0.267 0.417 0.465 0.552l-0.040 0.191c-0.186 0.615-0.443 1.28-0.949 1.351-0.074 0.017-0.151 0.014-0.223-0.007s-0.141-0.060-0.198-0.114c-0.168-0.167-0.242-0.322-0.222-0.886 0.027-1.312 0.665-4.599 1.511-4.638 0.058-0.003 0.116 0.009 0.169 0.034s0.1 0.064 0.137 0.113c0.101 0.162 0.171 0.344 0.206 0.537s0.034 0.39-0.002 0.582h-0.013z"></path>
</symbol>
<symbol id="varus" viewBox="0 0 117 32">
<path fill="#4289fe" style="fill: var(--color1, #4289fe)" d="M15.062 0.308c-0.24 0.208-1.954 1.994-3.246 4.257-0.902 1.548-1.473 3.036-1.864 4.584-1.112-0.804-2.345-1.488-3.757-2.054-2.435-0.953-4.87-1.339-5.2-1.369-0.060 0.327-0.301 2.768 0.060 5.328 0.18 1.31 0.481 2.471 0.902 3.572 0.962-0.179 1.954-0.268 2.946-0.268 3.908 0 7.455 1.429 10.19 3.78 2.735-2.352 6.282-3.78 10.19-3.78 1.022 0 1.984 0.089 2.946 0.268 0.391-1.101 0.721-2.262 0.902-3.572 0.361-2.56 0.15-5.001 0.060-5.328-0.331 0.030-2.795 0.387-5.2 1.369-1.443 0.566-2.645 1.25-3.757 2.054-0.391-1.518-0.962-3.036-1.864-4.584-1.353-2.232-3.036-4.048-3.306-4.257z"></path>
<path fill="#4289fe" style="fill: var(--color1, #4289fe)" d="M2.227 16.351c0.24 4.882 3.367 9.019 7.725 10.865 0.481-3.006 1.864-5.715 3.847-7.858-2.405-2.024-5.501-3.245-8.897-3.245-0.932 0-1.804 0.089-2.675 0.238z"></path>
<path fill="#4289fe" style="fill: var(--color1, #4289fe)" d="M11.335 31.323l0.842 0.387c0.511-1.191 1.052-2.381 1.683-3.512 0.391 0.030 0.781 0.059 1.202 0.059 6.883 0 12.504-5.268 12.835-11.906-0.872-0.179-1.743-0.268-2.675-0.268-6.944 0-12.655 5.090-13.586 11.698h0.060c2.675-3.87 6.342-6.787 10.581-8.334 0.090-0.030 0.15-0.060 0.24-0.089-4.148 2.411-7.124 5.358-9.348 8.721-0.661 1.072-1.262 2.143-1.834 3.245z"></path>
<path fill="#4289fe" style="fill: var(--color1, #4289fe)" d="M85.429 18.405l-3.878-4.167c1.954-0.744 3.487-1.965 3.487-4.197 0-2.828-2.074-4.316-5.14-4.316h-10.070v0.089c0.301 0.030 0.691 0.923 0.691 2.084v9.436c0 1.131 1.473 2.084 2.375 2.084h2.375v-0.119c-0.451-0.030-0.812-0.446-0.812-1.191v-3.81h3.006c0.541 0.685 3.246 3.959 3.547 4.316 0 0 0.631 0.774 2.104 0.774 1.323 0 3.667 0 3.667 0v-0.060c-0.421 0-0.932-0.536-1.353-0.923zM78.936 11.707h-4.449v-3.364h4.238c1.864 0 2.375 0.714 2.375 1.667 0 1.131-0.842 1.697-2.164 1.697z"></path>
<path fill="#4289fe" style="fill: var(--color1, #4289fe)" d="M95.919 5.724v0.089c0.18 0.030 0.541 0.893 0.541 2.084v6.459c0 1.578-1.323 2.203-3.126 2.203s-3.126-0.625-3.126-2.203v-6.459c0-1.191 0.331-2.054 0.541-2.084v-0.089h-5.621v0.089c0.511 0.030 0.902 0.714 0.902 2.084v5.775c0 3.274 1.803 6.042 7.304 6.042 5.471 0 7.304-2.798 7.304-6.042v-5.775c0-1.369 0.391-2.054 0.902-2.084v-0.089h-5.621z"></path>
<path fill="#4289fe" style="fill: var(--color1, #4289fe)" d="M50.922 5.724v0.089c0.12 0 0.421 0.447 0.301 0.863-0.090 0.327-0.571 1.25-0.782 1.816l-1.473 3.066-2.224 4.554-2.224-4.554-1.473-3.066c-0.211-0.566-0.691-1.488-0.782-1.816-0.12-0.417 0.18-0.863 0.301-0.863v-0.089h-5.2v0.089c0.301 0 0.511 0.327 0.631 0.595 1.533 3.245 5.531 11.639 5.651 11.996 0.15 0.476 0.030 0.893-0.27 0.923v0.089h6.793v-0.089c-0.301-0.030-0.421-0.446-0.271-0.923 0.12-0.357 4.118-8.721 5.651-11.996 0.12-0.238 0.331-0.595 0.631-0.595v-0.089h-5.26z"></path>
<path fill="#4289fe" style="fill: var(--color1, #4289fe)" d="M116.089 15.071c-0.18-5.417-10.37-3.155-10.43-5.358-0.030-1.369 2.735-1.369 3.547-1.369 2.044 0 3.878 0.446 4.809 1.607l1.623-3.631-0.12-0.060c-0.15 0.060-0.361 0.089-0.812 0.089-0.691-0.030-3.276-0.804-6.282-0.804-5.11 0-6.883 2.709-6.823 4.643 0.18 5.209 10.37 2.858 10.43 5.298 0.030 1.22-2.044 1.34-2.825 1.34-2.074 0-5.020-0.595-6.042-1.22-0.030 0-0.030-0.030-0.060-0.030-0.030-0.030-0.060-0.030-0.090-0.060-0.331-0.238-0.511-0.476-0.511-0.476l-0.962 3.542 0.12 0.030c0.24-0.119 0.541-0.119 0.842-0.089 0.24 0.030 3.817 1.131 6.823 1.131 4.809-0.059 6.853-2.173 6.763-4.584z"></path>
<path fill="#4289fe" style="fill: var(--color1, #4289fe)" d="M70.49 19.328c-0.24 0-0.721-0.327-1.022-0.923-1.563-3.334-5.020-10.716-5.38-11.49-0.301-0.655-0.12-1.042 0.21-1.072v-0.089h-6.853v0.089c0.301 0.030 0.511 0.417 0.211 1.072-0.361 0.774-3.817 8.156-5.38 11.49-0.301 0.625-0.752 0.923-1.022 0.923v0.089h4.629c0.391-0.893 1.112-2.381 1.293-2.768h7.424c0.18 0.387 0.902 1.875 1.292 2.768h4.629l-0.030-0.089zM60.871 13.583h-0.030l-2.194-0.059 2.224-4.584 2.224 4.584-2.224 0.059z"></path>
<path fill="#4289fe" style="fill: var(--color1, #4289fe)" d="M43.047 23.971l-0.511 1.548c-0.24-0.208-0.511-0.357-0.782-0.446s-0.571-0.149-0.902-0.149c-0.601 0-1.112 0.179-1.473 0.566-0.391 0.387-0.571 0.833-0.571 1.399s0.15 0.982 0.451 1.31c0.331 0.357 0.842 0.536 1.473 0.536 0.331 0 0.631-0.030 0.962-0.119 0.301-0.089 0.631-0.238 0.962-0.417l0.24-0.149v1.667c-0.090-0.030-0.15-0.059-0.18-0.059-0.060-0.030-0.12-0.030-0.18-0.030-0.15 0-0.361 0.030-0.631 0.059-0.24 0.030-0.511 0.059-0.782 0.119-0.271 0.030-0.541 0.060-0.752 0.060-0.962 0-1.743-0.298-2.284-0.863-0.541-0.536-0.782-1.25-0.782-2.113 0-0.893 0.301-1.637 0.872-2.143 0.601-0.566 1.473-0.833 2.585-0.833 0.211 0 0.481 0.030 0.812 0.059 0.691 0.089 1.082 0.119 1.142 0.119s0.12 0 0.15 0c0.030-0.060 0.090-0.089 0.18-0.119z"></path>
<path fill="#4289fe" style="fill: var(--color1, #4289fe)" d="M71.482 25.697c0 0.506-0.15 0.923-0.451 1.22-0.271 0.268-0.631 0.446-1.112 0.566-0.391 0.089-0.842 0.119-1.353 0.119h-1.112v1.012c0 0.119 0 0.238 0.030 0.357s0.060 0.208 0.090 0.238c0.060 0.089 0.12 0.179 0.24 0.268 0.090 0.089 0.18 0.149 0.21 0.208h-2.555c0.090-0.059 0.15-0.119 0.21-0.179s0.090-0.089 0.12-0.149c0.060-0.060 0.090-0.149 0.12-0.268s0.060-0.238 0.060-0.357v-3.602c0-0.149 0-0.268-0.030-0.387s-0.060-0.208-0.12-0.298c-0.060-0.089-0.090-0.179-0.18-0.268-0.060-0.089-0.15-0.149-0.24-0.208h3.998c0.571 0 1.022 0.149 1.413 0.417 0.451 0.298 0.661 0.744 0.661 1.31zM70.009 25.757c0-0.327-0.12-0.536-0.361-0.655-0.18-0.089-0.511-0.149-0.932-0.149h-1.353v1.697h1.503c0.301 0 0.541-0.059 0.751-0.179 0.271-0.179 0.391-0.417 0.391-0.714z"></path>
<path fill="#4289fe" style="fill: var(--color1, #4289fe)" d="M80.65 29.716h-2.495c0.090-0.059 0.15-0.119 0.18-0.179 0.060-0.059 0.090-0.119 0.15-0.208 0.030-0.030 0.060-0.119 0.090-0.208 0.030-0.119 0.030-0.208 0.030-0.298v-3.78l-1.593 4.137c-0.030 0.060-0.060 0.119-0.060 0.149-0.030 0.059-0.030 0.119-0.030 0.149s0.030 0.089 0.030 0.119c0.030 0.030 0.030 0.060 0.060 0.089h-1.773c0.030-0.030 0.060-0.059 0.060-0.089s0.030-0.059 0.030-0.089 0-0.059 0-0.059l-0.090-0.268-1.593-4.167v3.751c0 0.119 0 0.238 0.030 0.357 0.030 0.089 0.060 0.208 0.12 0.298 0.030 0.030 0.060 0.089 0.15 0.179 0.060 0.060 0.12 0.119 0.18 0.149h-2.284c0.060-0.059 0.12-0.119 0.18-0.149 0.060-0.059 0.12-0.119 0.15-0.179 0.030-0.030 0.060-0.119 0.090-0.238s0.060-0.238 0.060-0.327v-3.959c0-0.119 0-0.238-0.030-0.298 0-0.059-0.060-0.149-0.090-0.238-0.060-0.089-0.12-0.149-0.21-0.238s-0.15-0.119-0.21-0.179h3.066c-0.060 0.059-0.090 0.089-0.090 0.089-0.030 0.030-0.060 0.059-0.060 0.119 0 0.030 0 0.089 0.030 0.179 0 0.030 0.030 0.089 0.030 0.119l1.353 3.632 1.413-3.78c0-0.030 0.030-0.060 0.030-0.089s0.030-0.059 0.030-0.089c0-0.060-0.030-0.119-0.090-0.179h2.976c-0.060 0.059-0.15 0.119-0.21 0.208-0.090 0.119-0.15 0.208-0.18 0.327s-0.060 0.238-0.060 0.357v3.661c0 0.119 0 0.238 0.030 0.357 0.030 0.149 0.060 0.268 0.15 0.387 0.030 0.059 0.090 0.119 0.15 0.178 0.090 0.119 0.18 0.179 0.301 0.298z"></path>
<path fill="#4289fe" style="fill: var(--color1, #4289fe)" d="M88.645 29.716h-2.164c0.12-0.179 0.15-0.327 0.15-0.506 0-0.119-0.030-0.208-0.060-0.357-0.030-0.089-0.090-0.179-0.12-0.298h-3.307c-0.060 0.089-0.090 0.208-0.12 0.327s-0.030 0.208-0.030 0.298c0 0.089 0 0.149 0.030 0.238 0.030 0.059 0.090 0.149 0.15 0.268h-2.134c0.060-0.059 0.12-0.089 0.15-0.149 0.060-0.059 0.090-0.119 0.12-0.179 0 0 0.030-0.089 0.090-0.208l2.134-4.703c0.030-0.060 0.060-0.119 0.060-0.149 0.030-0.059 0.030-0.119 0.030-0.149 0 0 0-0.030 0-0.059s0-0.030-0.030-0.059c0-0.030-0.030-0.030-0.030-0.060h2.375c-0.030 0.060-0.060 0.089-0.090 0.149 0 0.030 0 0.059 0 0.089s0 0.089 0.030 0.119c0.030 0.059 0.060 0.089 0.060 0.149l1.803 3.721c0.15 0.327 0.271 0.565 0.331 0.685s0.15 0.268 0.24 0.417c0.060 0.089 0.12 0.149 0.15 0.208 0.12 0.089 0.18 0.179 0.18 0.208zM85.91 27.454l-1.172-2.53-1.112 2.53h2.284z"></path>
<path fill="#4289fe" style="fill: var(--color1, #4289fe)" d="M95.108 25.697c0 0.506-0.15 0.923-0.451 1.22-0.271 0.268-0.631 0.446-1.112 0.566-0.391 0.089-0.842 0.119-1.353 0.119h-1.112v1.012c0 0.119 0 0.238 0.030 0.357s0.060 0.208 0.090 0.238c0.060 0.089 0.12 0.179 0.24 0.268 0.090 0.089 0.18 0.149 0.21 0.208h-2.555c0.090-0.059 0.15-0.119 0.21-0.179s0.090-0.089 0.12-0.149c0.060-0.060 0.090-0.149 0.12-0.268s0.060-0.238 0.060-0.357v-3.602c0-0.149 0-0.268-0.030-0.387s-0.060-0.208-0.12-0.298c-0.060-0.089-0.090-0.179-0.18-0.268-0.060-0.089-0.15-0.149-0.24-0.208h3.998c0.571 0 1.022 0.149 1.413 0.417 0.451 0.298 0.661 0.744 0.661 1.31zM93.635 25.757c0-0.327-0.12-0.536-0.361-0.655-0.18-0.089-0.511-0.149-0.932-0.149h-1.353v1.697h1.503c0.301 0 0.541-0.059 0.751-0.179 0.271-0.179 0.391-0.417 0.391-0.714z"></path>
<path fill="#4289fe" style="fill: var(--color1, #4289fe)" d="M102.894 29.716h-2.735c0.060-0.030 0.090-0.089 0.12-0.149s0.030-0.119 0.030-0.179c0-0.089-0.030-0.149-0.060-0.238-0.030-0.059-0.090-0.149-0.18-0.238l-1.533-1.845-1.142 0.893v0.834c0 0.208 0.060 0.417 0.18 0.595 0.030 0.059 0.090 0.119 0.15 0.179s0.12 0.119 0.18 0.149h-2.495c0.060-0.030 0.12-0.059 0.18-0.119 0.090-0.089 0.15-0.149 0.21-0.238s0.090-0.149 0.090-0.238c0.030-0.089 0.030-0.179 0.030-0.298v-3.751c0-0.149 0-0.298-0.030-0.387-0.030-0.119-0.090-0.208-0.15-0.357-0.090-0.149-0.18-0.268-0.331-0.357h2.405c-0.060 0.060-0.12 0.119-0.15 0.149-0.060 0.059-0.090 0.089-0.12 0.179-0.060 0.089-0.090 0.149-0.090 0.238-0.030 0.089-0.030 0.179-0.030 0.268v1.756l2.284-1.875c0.090-0.059 0.15-0.149 0.21-0.208 0.060-0.089 0.090-0.149 0.090-0.179 0-0.059-0.030-0.119-0.060-0.179s-0.090-0.089-0.15-0.119h2.886c-0.15 0.089-0.331 0.179-0.481 0.298-0.12 0.059-0.21 0.149-0.331 0.238s-0.24 0.179-0.331 0.268l-1.804 1.429 2.224 2.679c0.12 0.149 0.18 0.208 0.18 0.238 0.060 0.060 0.15 0.149 0.21 0.208 0.18 0.119 0.361 0.238 0.541 0.357z"></path>
<path fill="#4289fe" style="fill: var(--color1, #4289fe)" d="M116.69 25.4c-0.15-0.059-0.27-0.119-0.391-0.178s-0.24-0.089-0.391-0.119c-0.12-0.030-0.21-0.059-0.361-0.059-0.12 0-0.24-0.030-0.361-0.030-0.060 0-0.12 0-0.18 0s-0.12 0-0.18 0h-0.571v3.572c0 0.149 0 0.298 0.030 0.417s0.090 0.208 0.15 0.327c0.060 0.089 0.12 0.179 0.21 0.238 0.060 0.060 0.15 0.119 0.24 0.179h-2.765c0.060-0.059 0.15-0.089 0.21-0.149 0.090-0.089 0.15-0.149 0.21-0.238 0.090-0.149 0.15-0.357 0.18-0.595 0.030-0.149 0.030-0.327 0.030-0.506v-3.245h-0.571c-0.301 0-0.511 0-0.631 0.030-0.12 0-0.27 0.030-0.421 0.089-0.15 0.030-0.301 0.089-0.391 0.119-0.12 0.030-0.24 0.119-0.421 0.208l0.18-0.625c0.030-0.060 0.060-0.179 0.12-0.357 0.060-0.119 0.060-0.208 0.060-0.238s0-0.060-0.030-0.089c0-0.030-0.030-0.089-0.090-0.149h5.771c-0.030 0.030-0.060 0.060-0.060 0.089-0.030 0.030-0.030 0.089-0.030 0.119s0 0.089 0.030 0.149c0 0 0.030 0.119 0.12 0.327l0.301 0.714z"></path>
<path fill="#4289fe" style="fill: var(--color1, #4289fe)" d="M57.535 28.138v-3.274c0-0.119 0.030-0.238 0.060-0.357s0.090-0.208 0.18-0.327c0.060-0.089 0.15-0.149 0.21-0.208h-6.763c0.12 0.089 0.24 0.238 0.331 0.387 0.060 0.089 0.090 0.149 0.12 0.238 0 0.060 0.030 0.179 0.030 0.298v3.899c0 0.119-0.030 0.238-0.060 0.357s-0.060 0.238-0.12 0.298c-0.030 0.059-0.090 0.119-0.12 0.149-0.060 0.030-0.12 0.059-0.18 0.119h2.254c-0.030-0.030-0.090-0.089-0.15-0.149s-0.12-0.119-0.15-0.179c-0.060-0.089-0.090-0.179-0.15-0.298-0.030-0.119-0.060-0.238-0.060-0.357v-3.661h3.246v3.691c0 0.119-0.030 0.238-0.060 0.357s-0.060 0.238-0.12 0.298c-0.030 0.059-0.090 0.119-0.12 0.149-0.060 0.030-0.12 0.059-0.18 0.119h2.194c-0.030-0.030-0.090-0.089-0.15-0.149s-0.090-0.119-0.12-0.179c-0.060-0.089-0.090-0.178-0.12-0.298s-0.060-0.238-0.060-0.357v-0.298l0.060-0.268z"></path>
<path fill="#4289fe" style="fill: var(--color1, #4289fe)" d="M63.035 28.674h-2.314v-1.399h2.134c0.030 0 0.090 0 0.18-0.030 0.090 0 0.15-0.030 0.211-0.060s0.12-0.059 0.18-0.119c0.060-0.059 0.12-0.119 0.18-0.208l0.421-0.714c-0.12 0.059-0.24 0.089-0.361 0.119s-0.24 0.030-0.361 0.030h-2.555v-1.28h2.976c0.12 0 0.21 0 0.301 0.030s0.18 0.030 0.24 0.089c0.060 0.030 0.15 0.089 0.21 0.119 0.060 0.059 0.12 0.119 0.18 0.179v-1.429h-5.831c0.12 0.060 0.21 0.179 0.301 0.298s0.15 0.238 0.18 0.327c0.030 0.089 0.060 0.238 0.060 0.387v3.899c0 0.089 0 0.179-0.030 0.268s-0.060 0.178-0.090 0.208c-0.12 0.149-0.24 0.238-0.391 0.327h5.771v-1.429c-0.060 0.059-0.12 0.119-0.18 0.179s-0.12 0.089-0.21 0.119c-0.060 0.030-0.15 0.060-0.24 0.089s-0.18 0.030-0.301 0.030h-0.631l-0.030-0.030z"></path>
<path fill="#4289fe" style="fill: var(--color1, #4289fe)" d="M107.733 28.674h-2.315v-1.399h2.134c0.030 0 0.090 0 0.18-0.030 0.090 0 0.15-0.030 0.21-0.060s0.12-0.059 0.18-0.119 0.12-0.119 0.18-0.208l0.421-0.714c-0.12 0.059-0.24 0.089-0.361 0.119s-0.24 0.030-0.361 0.030h-2.585v-1.28h2.976c0.12 0 0.21 0 0.301 0.030s0.18 0.030 0.24 0.089c0.060 0.030 0.15 0.089 0.21 0.119 0.060 0.059 0.12 0.119 0.18 0.179v-1.429h-5.831c0.12 0.060 0.21 0.179 0.301 0.298s0.15 0.238 0.18 0.327c0.030 0.089 0.060 0.238 0.060 0.387v3.899c0 0.089-0.030 0.179-0.030 0.268-0.030 0.089-0.060 0.178-0.090 0.208-0.12 0.149-0.24 0.238-0.391 0.327h5.771v-1.429c-0.060 0.059-0.12 0.119-0.18 0.179s-0.12 0.089-0.21 0.119c-0.060 0.030-0.15 0.060-0.24 0.089s-0.18 0.030-0.301 0.030h-0.631v-0.030z"></path>
<path fill="#4289fe" style="fill: var(--color1, #4289fe)" d="M50.501 24.001c-0.030 0.030-0.090 0.089-0.12 0.119s-0.090 0.119-0.18 0.208c-0.090 0.119-0.15 0.208-0.21 0.298-0.030 0.060-0.090 0.149-0.18 0.327l-2.254 3.572c-0.090 0.119-0.12 0.238-0.18 0.387-0.030 0.119-0.060 0.268-0.060 0.387 0 0.059 0 0.089 0 0.179 0 0.059 0.030 0.179 0.090 0.298h-2.525c0.12-0.119 0.211-0.208 0.301-0.268 0.060-0.059 0.15-0.179 0.27-0.298 0.15-0.149 0.271-0.298 0.361-0.417s0.18-0.238 0.301-0.417l0.421-0.625-1.683-2.471c-0.12-0.179-0.24-0.327-0.331-0.446s-0.24-0.268-0.391-0.417c-0.12-0.149-0.271-0.268-0.391-0.387h2.555c-0.12 0.089-0.211 0.208-0.211 0.357 0 0.030 0 0.060 0 0.089 0 0.089 0.030 0.208 0.090 0.298l1.202 1.905 1.112-1.786c0.060-0.089 0.090-0.179 0.12-0.208 0.030-0.060 0.030-0.149 0.030-0.208 0-0.030 0-0.060 0-0.119s-0.030-0.119-0.090-0.179c-0.030-0.030-0.060-0.089-0.090-0.119h2.044v-0.060z"></path>
</symbol>
<symbol id="atb" viewBox="0 0 74 32">
<path fill="#4289fe" style="fill: var(--color1, #4289fe)" d="M20.778 3.589h6.223v24.245h-6.223v-3.293h-11.132l6.223-5.96h4.878v-6.336l-17.292 16.185v-8.531l17.324-16.31z"></path>
<path fill="#4289fe" style="fill: var(--color1, #4289fe)" d="M33.787 9.988h-5.097v-6.336h22.327l-6.723 6.367h-3.784v17.91h-6.723v-17.941z"></path>
<path fill="#4289fe" style="fill: var(--color1, #4289fe)" d="M65.026 9.454h-12.477v12.578h6.754c0.313 0 0.625-0.063 0.813-0.22 0.25-0.125 0.407-0.345 0.5-0.627 0.125-0.282 0.156-0.533 0.156-0.878 0-0.502-0.125-0.878-0.407-1.192s-0.657-0.439-1.126-0.471h-5.41v-5.803h6.598c0.907 0 1.751 0.157 2.533 0.533 0.782 0.345 1.47 0.847 2.064 1.506s1.063 1.443 1.407 2.321c0.344 0.91 0.5 1.945 0.5 3.074 0 1.004-0.156 1.945-0.5 2.886-0.344 0.878-0.813 1.694-1.407 2.415s-1.251 1.255-2.032 1.662c-0.782 0.408-1.595 0.627-2.502 0.627h-14.197v-18.412l6.223-5.803h18.637l-6.129 5.803z"></path>
</symbol>
<symbol id="delikat" viewBox="0 0 175 32">
<path fill="#4289fe" style="fill: var(--color1, #4289fe)" d="M21.771 0.723c4.511 0 8.103 1.212 10.776 3.637 1.292 1.135 2.322 2.541 3.014 4.12s1.033 3.291 0.996 5.017c0.019 3.338-0.953 6.605-2.791 9.383-1.622 2.64-3.964 4.756-6.746 6.096-2.473 1.172-5.17 1.792-7.904 1.815-0.849 0-2.319-0.082-4.411-0.247-1.761-0.132-3.436-0.199-5.024-0.199-0.735 0-1.854 0.025-3.356 0.075l0.565-1.205c0.949 0.006 1.894-0.128 2.805-0.397 0.393-0.207 0.72-0.523 0.939-0.911 0.819-1.576 1.478-3.23 1.967-4.938l1.688-6.438 1.961-8.041c0.090-0.331 0.141-0.671 0.15-1.014 0.005-0.116-0.014-0.233-0.056-0.341s-0.107-0.207-0.189-0.289c-0.188-0.164-0.432-0.248-0.681-0.233-0.228 0.012-0.455 0.037-0.681 0.075l0.204-1.062c2.123-0.207 4.227-0.571 6.297-1.089-0.771 2.027-1.401 4.105-1.886 6.219l-1.62 6.849c-1.144 4.991-2.442 8.76-3.894 11.308 1.225 0.259 2.472 0.399 3.724 0.418 2.611 0.066 5.193-0.56 7.488-1.815 2.155-1.242 3.91-3.079 5.058-5.294 1.254-2.365 1.892-5.011 1.852-7.691 0-3.653-1.062-6.6-3.186-8.842-1.077-1.114-2.375-1.987-3.809-2.562s-2.973-0.842-4.516-0.78c-2.851-0.012-5.659 0.695-8.169 2.055-2.455 1.282-4.548 3.166-6.086 5.479-1.4 1.958-2.185 4.294-2.253 6.705-0.044 0.956 0.19 1.904 0.673 2.727s1.196 1.487 2.050 1.909c0.385 0.19 0.731 0.45 1.021 0.767 0.161 0.221 0.249 0.487 0.252 0.76-0.001 0.197-0.042 0.391-0.12 0.571s-0.193 0.342-0.336 0.476c-0.136 0.146-0.301 0.262-0.483 0.341s-0.38 0.119-0.579 0.118c-0.871 0-1.716-0.575-2.532-1.726-1.059-1.436-1.645-3.17-1.675-4.959 0.026-2.927 0.899-5.783 2.512-8.219 1.732-2.691 4.148-4.867 6.998-6.301 3.093-1.582 6.524-2.381 9.994-2.329zM21.771 0.148c-3.547-0.038-7.050 0.787-10.211 2.404-2.949 1.479-5.452 3.722-7.25 6.5-1.667 2.525-2.571 5.482-2.6 8.513 0.031 1.905 0.652 3.754 1.777 5.287 0.946 1.315 1.94 1.952 2.989 1.952 0.271 0 0.539-0.055 0.789-0.162s0.474-0.264 0.661-0.461c0.196-0.183 0.353-0.405 0.462-0.651s0.167-0.512 0.171-0.781c0.010-0.402-0.11-0.796-0.34-1.123-0.333-0.389-0.74-0.706-1.198-0.932-0.765-0.367-1.406-0.952-1.843-1.683s-0.651-1.574-0.615-2.426c0.080-2.276 0.826-4.477 2.144-6.328 1.49-2.242 3.517-4.070 5.895-5.315 2.426-1.325 5.143-2.019 7.904-2.020 1.466-0.057 2.928 0.195 4.291 0.74s2.599 1.371 3.626 2.425c2.008 2.109 3.022 4.952 3.022 8.445 0.021 2.583-0.606 5.13-1.824 7.404-1.099 2.117-2.776 3.876-4.834 5.068-2.205 1.198-4.683 1.797-7.189 1.74-0.954-0.010-1.906-0.099-2.846-0.267 1.62-3.408 2.827-7 3.595-10.698l1.62-6.849c0.47-2.095 1.084-4.155 1.838-6.164 0.033-0.087 0.045-0.181 0.034-0.273s-0.044-0.181-0.096-0.257-0.122-0.14-0.204-0.183c-0.082-0.044-0.173-0.067-0.265-0.067h-0.129c-2.043 0.511-4.12 0.871-6.215 1.075-0.12 0.010-0.234 0.057-0.326 0.136s-0.156 0.185-0.185 0.302l-0.245 1.062c-0.017 0.083-0.016 0.168 0.004 0.25s0.057 0.159 0.11 0.224c0.053 0.066 0.119 0.119 0.195 0.155s0.158 0.055 0.242 0.056h0.082c0.2-0.035 0.403-0.057 0.606-0.069 0.103-0.010 0.207 0.017 0.293 0.075 0 0 0.068 0.062 0.068 0.212 0.001 0.305-0.036 0.608-0.109 0.904l-1.954 8.027-1.681 6.411c-0.467 1.656-1.094 3.262-1.872 4.794-0.161 0.286-0.396 0.523-0.681 0.685-0.841 0.241-1.713 0.354-2.587 0.335-0.103 0.005-0.202 0.039-0.287 0.097s-0.153 0.138-0.196 0.232l-0.613 1.226c-0.036 0.088-0.050 0.183-0.040 0.277s0.042 0.185 0.094 0.263c0.053 0.078 0.124 0.143 0.207 0.187s0.176 0.067 0.27 0.067c1.491-0.048 2.614-0.075 3.336-0.075 1.559 0 3.234 0.069 4.976 0.192 2.124 0.171 3.588 0.253 4.452 0.253 2.813-0.025 5.588-0.661 8.135-1.863 2.88-1.386 5.306-3.573 6.991-6.301 1.895-2.867 2.902-6.235 2.893-9.678 0.040-1.809-0.315-3.606-1.039-5.262s-1.801-3.133-3.154-4.326c-2.757-2.486-6.508-3.76-11.144-3.76z"></path>
<path fill="#4289fe" style="fill: var(--color1, #4289fe)" d="M49.742 9.627c0.967-0.067 1.921 0.248 2.662 0.877 0.313 0.313 0.556 0.689 0.715 1.103s0.228 0.858 0.204 1.301c-0.024 1.144-0.411 2.25-1.103 3.157-1.084 1.344-2.427 2.453-3.948 3.26-0.949 0.544-2.975 1.523-6.079 2.938-0.144 0.839-0.219 1.689-0.224 2.541-0.062 0.846 0.142 1.689 0.585 2.411 0.196 0.232 0.443 0.416 0.722 0.534s0.582 0.171 0.884 0.151c0.768-0.025 1.521-0.219 2.206-0.568 1.679-0.889 3.274-1.93 4.765-3.11l0.81 1.082c-4.007 3.831-7.441 5.746-10.3 5.746-0.505 0.031-1.011-0.061-1.474-0.267s-0.87-0.521-1.188-0.918c-0.613-0.79-0.919-2.057-0.919-3.801 0.050-3.723 1.134-7.358 3.132-10.493 2.387-3.959 5.24-5.94 8.557-5.945h-0.007zM42.486 20.653c2.193-0.897 4.203-2.193 5.929-3.822 0.802-0.732 1.29-1.748 1.362-2.835 0.031-0.611-0.166-1.212-0.551-1.685-0.177-0.207-0.398-0.37-0.647-0.479s-0.518-0.161-0.789-0.151c-0.649 0.016-1.272 0.258-1.763 0.685-0.863 0.737-1.53 1.678-1.94 2.74-0.742 1.774-1.277 3.629-1.593 5.527l-0.007 0.021zM49.742 9.051c-3.513 0-6.556 2.096-9.041 6.219-2.069 3.226-3.201 6.969-3.268 10.808 0 1.897 0.34 3.253 1.042 4.15 0.367 0.469 0.84 0.843 1.38 1.091s1.131 0.362 1.724 0.334c3.043 0 6.535-1.931 10.688-5.904 0.101-0.097 0.163-0.228 0.174-0.369s-0.029-0.279-0.113-0.392l-0.81-1.082c-0.088-0.124-0.221-0.209-0.37-0.234s-0.303 0.009-0.426 0.097c-1.451 1.154-3.003 2.174-4.636 3.048-0.611 0.313-1.282 0.489-1.968 0.514-0.218 0.020-0.438-0.013-0.64-0.096s-0.382-0.215-0.524-0.383c-0.198-0.247-0.422-0.801-0.422-2.055 0.003-0.72 0.057-1.439 0.164-2.151 2.988-1.37 4.901-2.294 5.848-2.835 1.593-0.846 2.997-2.011 4.125-3.425 0.76-1.004 1.184-2.224 1.212-3.486 0.021-0.522-0.068-1.042-0.26-1.527s-0.484-0.924-0.856-1.288c-0.838-0.723-1.92-1.094-3.022-1.034zM43.234 19.653c0.321-1.475 0.777-2.917 1.362-4.308 0.37-0.979 0.975-1.85 1.763-2.534 0.391-0.35 0.892-0.551 1.416-0.568 0.189-0.010 0.379 0.024 0.553 0.098s0.33 0.189 0.454 0.333c0.294 0.37 0.439 0.836 0.409 1.308-0.069 0.941-0.495 1.819-1.191 2.452-1.398 1.336-3.009 2.426-4.765 3.226v-0.007z"></path>
<path fill="#4289fe" style="fill: var(--color1, #4289fe)" d="M67.374 9.675c0.268-0.030 0.54 0.019 0.781 0.14s0.443 0.311 0.58 0.544c0.317 0.908 0.494 1.86 0.524 2.822l0.98 11.862c0.195 2.237 0.726 3.356 1.593 3.356 0.454 0 1.182-0.457 2.185-1.37s1.706-1.52 2.11-1.822l0.64 0.89c-3.082 3.338-5.539 5.007-7.373 5.007-0.277-0.008-0.55-0.073-0.802-0.191s-0.477-0.286-0.662-0.494c-0.454-0.457-0.785-1.699-0.994-3.726l-0.987-10.383c-2.351 6.347-4.302 10.392-5.855 12.136s-3.24 2.616-5.065 2.616c-0.694 0.029-1.376-0.195-1.92-0.63-0.244-0.2-0.439-0.455-0.568-0.744s-0.192-0.604-0.18-0.92c-0.011-0.298 0.039-0.596 0.147-0.873s0.271-0.531 0.479-0.743c0.194-0.203 0.428-0.364 0.687-0.473s0.537-0.162 0.817-0.158c0.472 0.043 0.933 0.168 1.362 0.37 0.431 0.192 0.891 0.308 1.362 0.343 0.458-0.025 0.907-0.143 1.319-0.346s0.778-0.489 1.078-0.839c0.808-0.785 1.999-3.027 3.574-6.726s2.362-5.753 2.362-6.164c0-0.507-0.225-0.767-0.681-0.767-0.994 0-2.464 0.977-4.411 2.931l-1.048-0.863c3.449-3.196 6.106-4.794 7.972-4.794l-0.007 0.007zM67.381 9.093c-2.042 0-4.765 1.623-8.353 4.959-0.060 0.055-0.108 0.123-0.14 0.199s-0.047 0.157-0.044 0.239c0.002 0.082 0.022 0.162 0.059 0.236s0.088 0.138 0.152 0.189l1.048 0.863c0.109 0.090 0.247 0.136 0.388 0.13s0.274-0.065 0.375-0.164c2.396-2.411 3.54-2.74 4.010-2.74 0.034-0.006 0.068-0.006 0.102 0 0 0 0 0.062 0 0.178s-0.279 1.123-2.315 5.918c-1.913 4.507-2.914 6.047-3.404 6.554-0.248 0.295-0.553 0.536-0.895 0.71s-0.717 0.277-1.1 0.303c-0.41-0.032-0.81-0.137-1.184-0.308-0.495-0.23-1.028-0.366-1.573-0.404-0.355-0.005-0.707 0.063-1.034 0.199s-0.624 0.339-0.872 0.595c-0.266 0.269-0.473 0.59-0.609 0.944s-0.197 0.732-0.18 1.111c-0.006 0.395 0.076 0.786 0.242 1.144s0.408 0.674 0.711 0.925c0.641 0.526 1.447 0.803 2.274 0.781 1.988 0 3.833-0.945 5.494-2.808 1.416-1.589 3.091-4.883 5.092-10.034l0.756 7.869c0.218 2.192 0.585 3.486 1.157 4.068 0.234 0.271 0.521 0.492 0.843 0.647s0.672 0.243 1.029 0.257c2.042 0 4.568-1.699 7.795-5.192 0.090-0.097 0.144-0.222 0.152-0.354s-0.028-0.264-0.105-0.372l-0.66-0.932c-0.044-0.062-0.1-0.115-0.164-0.155s-0.136-0.067-0.211-0.078h-0.089c-0.122-0.001-0.242 0.037-0.34 0.109-0.395 0.295-1.096 0.904-2.151 1.863-1.314 1.199-1.756 1.233-1.797 1.233-0.374 0-0.844-0.746-1.028-2.829l-0.96-11.842c-0.029-1.037-0.227-2.062-0.586-3.034-0.185-0.331-0.464-0.599-0.801-0.771s-0.717-0.24-1.092-0.195l0.007-0.014z"></path>
<path fill="#4289fe" style="fill: var(--color1, #4289fe)" d="M84.264 9.675c0.182-0.006 0.363 0.030 0.529 0.105s0.313 0.186 0.431 0.327c0.28 0.398 0.411 0.884 0.368 1.37 0 1.137-0.588 3.927-1.763 8.37-1.048 4.004-1.57 6.287-1.566 6.849-0.007 0.329 0.113 0.648 0.334 0.89 0.086 0.111 0.195 0.201 0.32 0.265s0.262 0.1 0.401 0.105c0.908 0 2.206-0.76 3.894-2.281 1.585-1.367 2.735-3.172 3.308-5.191l2.669-10.137h3.492l-2.301 8.623c-1.362 5.023-2.042 7.872-2.042 8.548-0.010 0.248 0.070 0.491 0.225 0.685 0.060 0.073 0.135 0.133 0.219 0.175s0.177 0.067 0.271 0.072c0.355-0.028 0.695-0.156 0.98-0.37 1.087-0.88 2.111-1.837 3.063-2.863l0.81 0.911c-3.286 3.438-5.705 5.157-7.257 5.157-0.257 0.007-0.513-0.044-0.748-0.148s-0.445-0.259-0.614-0.455c-0.394-0.479-0.591-1.092-0.551-1.712 0.045-1.158 0.224-2.307 0.531-3.424-1.547 1.755-3.365 3.247-5.385 4.418-1.104 0.737-2.381 1.172-3.703 1.26-0.255 0.015-0.51-0.029-0.745-0.128s-0.446-0.249-0.616-0.441c-0.368-0.524-0.541-1.162-0.49-1.801 0.007-0.69 0.080-1.378 0.218-2.055 0.213-1.041 0.753-3.125 1.62-6.253 1.094-3.968 1.641-6.347 1.641-7.137 0-0.459-0.163-0.685-0.49-0.685-0.434 0.049-0.848 0.207-1.205 0.459-0.931 0.654-1.802 1.393-2.6 2.205l-1.076-0.863c1.528-1.47 3.208-2.772 5.011-3.883 0.845-0.52 1.798-0.837 2.784-0.925l0.034-0.041zM84.23 9.14c-1.080 0.084-2.126 0.424-3.050 0.993-1.847 1.13-3.566 2.46-5.126 3.966-0.064 0.053-0.116 0.12-0.151 0.196s-0.054 0.159-0.054 0.242c0 0.084 0.018 0.166 0.054 0.242s0.087 0.143 0.151 0.196l1.076 0.863c0.101 0.080 0.226 0.124 0.354 0.123 0.147 0 0.288-0.056 0.395-0.158 0.769-0.782 1.605-1.495 2.499-2.13 0.252-0.168 0.53-0.29 0.824-0.363 0.002 0.037 0.002 0.073 0 0.11 0 0.507-0.279 2.13-1.62 6.986-0.878 3.178-1.409 5.233-1.627 6.287-0.149 0.721-0.226 1.455-0.231 2.192-0.060 0.778 0.162 1.552 0.626 2.178 0.221 0.253 0.495 0.453 0.802 0.586s0.641 0.195 0.975 0.181c1.426-0.098 2.802-0.57 3.989-1.37 1.491-0.872 2.882-1.908 4.146-3.089-0.088 0.532-0.136 1.070-0.143 1.61-0.047 0.762 0.196 1.514 0.681 2.103 0.218 0.252 0.488 0.454 0.792 0.591s0.632 0.207 0.965 0.203c1.729 0 4.241-1.746 7.665-5.335 0.098-0.106 0.152-0.246 0.152-0.39s-0.054-0.284-0.152-0.39l-0.708-0.959c-0.053-0.059-0.117-0.106-0.188-0.139s-0.149-0.051-0.227-0.053c-0.076-0-0.151 0.014-0.222 0.044s-0.134 0.073-0.187 0.128c-0.929 0.999-1.926 1.933-2.982 2.794-0.197 0.153-0.433 0.246-0.681 0.267-0.026-0.013-0.050-0.032-0.068-0.055-0.060-0.101-0.086-0.219-0.075-0.336 0-0.438 0.347-2.246 2.042-8.397l2.308-8.623c0.023-0.085 0.027-0.174 0.010-0.261s-0.053-0.168-0.106-0.239c-0.053-0.071-0.122-0.128-0.201-0.168s-0.166-0.059-0.255-0.058h-3.492c-0.125 0-0.248 0.042-0.347 0.118s-0.171 0.184-0.204 0.306l-2.669 10.136c-0.548 1.928-1.65 3.65-3.166 4.952-1.947 1.767-2.988 2.137-3.513 2.137 0 0-0.136 0-0.3-0.178-0.063-0.068-0.112-0.147-0.144-0.234s-0.045-0.18-0.040-0.273c0-0.288 0.197-1.534 1.552-6.698 1.205-4.534 1.784-7.322 1.784-8.52 0.040-0.615-0.138-1.224-0.504-1.719-0.168-0.198-0.376-0.358-0.612-0.467s-0.491-0.165-0.75-0.164l-0.048 0.034z"></path>
<path fill="#4289fe" style="fill: var(--color1, #4289fe)" d="M142.183 8.915l-1.838 6.239c-0.735 2.484-1.43 5.345-2.083 8.582-0.265 1.126-0.445 2.271-0.538 3.425 0 0.511 0.204 0.767 0.613 0.767 0.452-0.073 0.881-0.251 1.253-0.52 1.057-0.64 2.037-1.401 2.92-2.267l0.783 0.959c-1.865 1.712-3.059 2.749-3.581 3.109-0.926 0.658-1.93 1.196-2.989 1.603-0.579 0.221-1.192 0.337-1.811 0.342-0.346 0.028-0.689-0.077-0.96-0.295-0.111-0.113-0.197-0.248-0.253-0.397s-0.078-0.308-0.067-0.466c0.018-0.345 0.085-0.687 0.197-1.014l0.98-3.356c-1.432 1.717-3.128 3.193-5.024 4.37-0.968 0.682-2.108 1.076-3.288 1.137-0.419 0.023-0.837-0.057-1.218-0.234s-0.713-0.444-0.968-0.78c-0.726-1.037-1.088-2.288-1.028-3.555 0.055-2.014 0.518-3.995 1.362-5.822 0.917-2.129 2.17-4.095 3.71-5.822 1.367-1.597 3.035-2.905 4.908-3.849 1.612-0.681 3.352-1.001 5.099-0.938 0.533 0 1.064 0.032 1.593 0.096l0.585-0.959 1.62-0.342 0.020-0.014zM129.010 27.852c1.126 0 2.335-0.612 3.628-1.835 1.428-1.47 2.416-3.314 2.852-5.322l2.042-7.691c-0.733-0.165-1.481-0.257-2.233-0.274-1.38-0.028-2.731 0.4-3.846 1.219-1.094 0.817-2.11 2.281-3.050 4.39-0.924 1.991-1.414 4.158-1.436 6.356-0.071 0.846 0.127 1.692 0.565 2.418 0.168 0.235 0.39 0.426 0.647 0.554s0.542 0.192 0.83 0.185zM142.183 8.367h-0.116l-1.62 0.342c-0.076 0.016-0.147 0.048-0.21 0.092s-0.117 0.102-0.157 0.168l-0.402 0.685c-0.436-0.041-0.871-0.062-1.293-0.062-1.832-0.063-3.655 0.276-5.344 0.993-1.937 0.965-3.665 2.306-5.085 3.945-1.581 1.774-2.869 3.793-3.812 5.979-0.884 1.899-1.372 3.959-1.436 6.055-0.059 1.391 0.344 2.761 1.144 3.897 0.312 0.398 0.715 0.715 1.175 0.922s0.963 0.3 1.466 0.27c1.286-0.063 2.53-0.487 3.588-1.226 1.257-0.792 2.432-1.71 3.506-2.74l-0.306 1.055c-0.129 0.38-0.203 0.777-0.218 1.178-0.011 0.237 0.028 0.474 0.115 0.695s0.219 0.421 0.389 0.586c0.378 0.323 0.867 0.485 1.362 0.452 0.698-0.004 1.39-0.134 2.042-0.384 1.105-0.424 2.152-0.985 3.118-1.671 0.551-0.384 1.743-1.411 3.642-3.157 0.108-0.099 0.175-0.235 0.186-0.382s-0.033-0.292-0.125-0.406l-0.783-0.959c-0.050-0.061-0.112-0.111-0.183-0.146s-0.147-0.056-0.226-0.059c-0.147-0-0.288 0.056-0.395 0.157-0.853 0.837-1.799 1.572-2.818 2.192-0.284 0.215-0.612 0.364-0.96 0.438-0.013-0.063-0.013-0.128 0-0.192 0.091-1.108 0.269-2.207 0.531-3.287 0.647-3.212 1.362-6.082 2.042-8.534l1.838-6.239c0.024-0.085 0.028-0.175 0.012-0.262s-0.052-0.169-0.104-0.24c-0.053-0.071-0.121-0.129-0.199-0.169s-0.165-0.061-0.253-0.062l-0.109 0.075zM129.010 27.284c-0.199 0.006-0.397-0.038-0.575-0.128s-0.331-0.222-0.446-0.386c-0.358-0.621-0.513-1.34-0.443-2.055 0.020-2.106 0.484-4.184 1.362-6.096 0.892-2.014 1.858-3.425 2.873-4.164 1.019-0.745 2.253-1.135 3.513-1.11 0.512 0.009 1.021 0.059 1.525 0.151l-1.879 7.095c-0.411 1.892-1.34 3.631-2.682 5.020-1.178 1.116-2.267 1.685-3.24 1.685l-0.007-0.014z"></path>
<path fill="#4289fe" style="fill: var(--color1, #4289fe)" d="M170.722 9.6c0.291-0.019 0.584 0.024 0.857 0.126 0.275 0.101 0.525 0.259 0.736 0.463 0.418 0.512 0.62 1.168 0.564 1.829-0.012 0.592-0.094 1.181-0.244 1.753-0.163 0.676-0.761 2.73-1.79 6.164-1.293 4.26-1.939 6.796-1.933 7.609 0 0.557 0.227 0.836 0.68 0.836 0.327-0.003 0.645-0.105 0.913-0.294 1.058-0.77 2.050-1.627 2.968-2.562l0.81 0.89c-0.345 0.279-0.992 0.854-1.94 1.726-0.849 0.811-1.758 1.553-2.723 2.219-0.716 0.484-1.543 0.774-2.403 0.842-0.259-0.008-0.511-0.078-0.737-0.205s-0.419-0.305-0.563-0.521c-0.409-0.588-0.608-1.298-0.565-2.014 0.017-0.934 0.131-1.864 0.34-2.774 0.227-1.064 0.908-3.445 2.042-7.144 0.572-1.642 0.991-3.334 1.252-5.055 0-0.557-0.244-0.836-0.735-0.836-0.59 0.064-1.154 0.276-1.641 0.616-1.372 0.811-2.581 1.875-3.56 3.137-0.822 1.235-1.404 2.616-1.716 4.068-1.098 4.064-1.915 7.376-2.451 9.938h-3.458l3.656-15.068c0.17-0.617 0.302-1.243 0.395-1.877 0.015-0.219-0.056-0.435-0.197-0.603-0.074-0.074-0.163-0.131-0.26-0.167s-0.201-0.052-0.305-0.045c-0.761 0.153-1.467 0.51-2.042 1.034-1.358 0.92-2.539 2.080-3.485 3.425-0.887 1.535-1.511 3.209-1.845 4.952l-1.906 8.356h-3.526l2.798-11.78c0.817-3.402 1.225-5.251 1.225-5.548 0-0.377-0.15-0.568-0.442-0.568-0.64 0-1.94 0.938-3.901 2.815l-0.735-0.986c1.352-1.425 2.908-2.639 4.616-3.603 1.047-0.642 2.224-1.038 3.445-1.157 0.276-0.023 0.552 0.055 0.776 0.219 0.087 0.076 0.155 0.172 0.2 0.278s0.065 0.222 0.059 0.338c-0.063 0.645-0.195 1.281-0.395 1.897-0.374 1.37-0.64 2.473-0.783 3.281 3.912-4.009 6.903-6.016 8.972-6.020 0.223-0.015 0.446 0.016 0.656 0.093s0.401 0.197 0.562 0.352c0.311 0.398 0.459 0.9 0.415 1.404-0.1 1.202-0.346 2.386-0.735 3.527 1.433-1.593 3.067-2.991 4.861-4.157 0.956-0.665 2.060-1.083 3.213-1.219l0.007 0.014zM170.715 9.011c-1.26 0.129-2.466 0.576-3.506 1.301-1.257 0.783-2.426 1.702-3.486 2.74 0.127-0.535 0.2-1.081 0.218-1.63 0.046-0.652-0.159-1.297-0.572-1.801-0.214-0.213-0.47-0.379-0.751-0.486s-0.582-0.154-0.883-0.137c-1.988 0-4.609 1.575-7.992 4.794 0.104-0.411 0.222-0.868 0.354-1.37 0.225-0.664 0.364-1.355 0.415-2.055 0.008-0.199-0.029-0.397-0.108-0.58s-0.198-0.345-0.348-0.475c-0.326-0.253-0.732-0.379-1.144-0.356-1.314 0.116-2.584 0.536-3.71 1.226-1.761 0.992-3.367 2.241-4.765 3.705-0.096 0.097-0.154 0.226-0.165 0.363s0.029 0.273 0.11 0.383l0.735 0.986c0.048 0.064 0.11 0.118 0.18 0.157s0.148 0.063 0.228 0.069h0.048c0.147 0.001 0.288-0.055 0.395-0.158 2.172-2.055 3.063-2.534 3.404-2.63 0 0.212-0.197 1.178-1.205 5.383l-2.818 11.842c-0.016 0.083-0.014 0.167 0.007 0.249s0.058 0.158 0.11 0.223c0.053 0.065 0.119 0.118 0.194 0.155s0.157 0.057 0.241 0.058h3.533c0.128-0.001 0.252-0.046 0.352-0.127s0.17-0.193 0.199-0.318l1.886-8.335c0.312-1.684 0.901-3.305 1.743-4.794 0.913-1.272 2.045-2.369 3.343-3.239 1.164-0.863 1.613-0.931 1.722-0.931 0.049-0.015 0.101-0.015 0.15 0 0.033 0.063 0.047 0.134 0.041 0.205-0.093 0.586-0.218 1.167-0.374 1.74l-3.615 15.116c-0.016 0.083-0.014 0.167 0.007 0.249s0.058 0.158 0.11 0.223c0.053 0.065 0.119 0.118 0.194 0.155s0.157 0.057 0.241 0.058h3.486c0.131-0 0.258-0.046 0.36-0.13s0.172-0.2 0.198-0.329c0.538-2.548 1.362-5.883 2.444-9.91 0.297-1.38 0.846-2.692 1.62-3.87 0.939-1.203 2.093-2.218 3.404-2.993 0.402-0.29 0.87-0.474 1.362-0.534 0.043-0.009 0.087-0.009 0.13 0 0.030 0.078 0.042 0.163 0.034 0.247 0 0.301-0.156 1.336-1.225 4.89-1.13 3.753-1.79 6.102-2.042 7.185-0.219 0.95-0.337 1.922-0.354 2.897-0.044 0.842 0.196 1.675 0.681 2.363 0.196 0.286 0.457 0.52 0.761 0.685s0.643 0.253 0.988 0.26c0.972-0.058 1.912-0.375 2.724-0.918 0.987-0.688 1.92-1.453 2.791-2.288 0.918-0.842 1.578-1.431 1.913-1.705 0.061-0.049 0.109-0.11 0.147-0.18 0.035-0.070 0.057-0.146 0.064-0.224 0.005-0.078-0.007-0.157-0.032-0.231s-0.066-0.142-0.118-0.201l-0.81-0.89c-0.052-0.057-0.116-0.103-0.185-0.134-0.071-0.032-0.147-0.049-0.224-0.051-0.153 0-0.3 0.062-0.408 0.171-0.894 0.915-1.861 1.753-2.893 2.507-0.168 0.121-0.371 0.188-0.579 0.192h-0.081c-0.012-0.084-0.012-0.169 0-0.253 0-0.527 0.333-2.246 1.913-7.459 1.041-3.479 1.634-5.479 1.797-6.164 0.158-0.618 0.246-1.252 0.258-1.89 0.057-0.806-0.202-1.602-0.721-2.219-0.278-0.27-0.61-0.476-0.973-0.604-0.365-0.128-0.753-0.174-1.137-0.136l-0.007-0.041z"></path>
<path fill="#4289fe" style="fill: var(--color1, #4289fe)" d="M13.88 6.175l0.245-1.062c2.123-0.205 4.227-0.567 6.297-1.082-0.764 2.027-1.388 4.105-1.865 6.219l-1.613 6.849c-1.162 4.963-2.469 8.712-3.921 11.246 1.225 0.26 2.472 0.399 3.724 0.418 2.611 0.066 5.194-0.56 7.488-1.815 2.154-1.24 3.909-3.075 5.058-5.287 1.258-2.357 1.902-4.996 1.872-7.671 0-3.653-1.062-6.6-3.186-8.842-1.081-1.11-2.382-1.979-3.819-2.55s-2.977-0.832-4.52-0.765c-2.851-0.012-5.659 0.694-8.169 2.055-2.455 1.281-4.549 3.166-6.086 5.479-1.385 1.945-2.164 4.259-2.24 6.65-0.044 0.956 0.19 1.904 0.673 2.727s1.196 1.487 2.050 1.909c0.383 0.189 0.727 0.45 1.014 0.767 0.179 0.233 0.275 0.52 0.272 0.815-0 0.197-0.041 0.392-0.119 0.572s-0.193 0.342-0.337 0.476c-0.134 0.145-0.296 0.261-0.477 0.34s-0.375 0.12-0.572 0.119c-0.871 0-1.716-0.575-2.532-1.726-1.059-1.437-1.644-3.171-1.675-4.959 0.026-2.927 0.899-5.783 2.512-8.219 1.733-2.69 4.149-4.865 6.998-6.301 3.079-1.575 6.492-2.374 9.946-2.329 4.511 0 8.099 1.212 10.763 3.637 1.292 1.135 2.321 2.542 3.014 4.12s1.033 3.291 0.996 5.016c0.019 3.338-0.953 6.605-2.791 9.383-1.624 2.639-3.969 4.752-6.753 6.089-2.466 1.175-5.155 1.799-7.883 1.829-0.849 0-2.319-0.082-4.411-0.247-1.761-0.132-3.436-0.199-5.024-0.199-0.735 0-1.854 0.025-3.356 0.075l0.565-1.212c0.949 0.010 1.894-0.122 2.805-0.39 0.396-0.205 0.725-0.522 0.946-0.911 0.807-1.574 1.455-3.226 1.933-4.931l1.688-6.438 1.933-8.054c0.097-0.318 0.156-0.647 0.177-0.979 0.014-0.125-0.001-0.252-0.044-0.371s-0.111-0.226-0.201-0.314c-0.188-0.163-0.432-0.247-0.681-0.233-0.233 0.019-0.465 0.051-0.694 0.096z"></path>
<path fill="#4289fe" style="fill: var(--color1, #4289fe)" d="M50.199 23.715l0.81 1.089c-4.003 3.831-7.436 5.746-10.3 5.746-0.505 0.030-1.011-0.062-1.474-0.268s-0.87-0.52-1.188-0.917c-0.626-0.79-0.939-2.057-0.939-3.801 0.064-3.733 1.167-7.373 3.186-10.506 2.414-3.963 5.276-5.945 8.584-5.945 0.967-0.067 1.922 0.247 2.662 0.877 0.313 0.313 0.556 0.689 0.715 1.103s0.228 0.858 0.204 1.301c-0.025 1.144-0.411 2.25-1.103 3.157-1.088 1.333-2.43 2.432-3.948 3.233-0.967 0.543-2.993 1.52-6.079 2.931-0.145 0.839-0.22 1.689-0.225 2.541-0.081 0.853 0.112 1.71 0.551 2.445 0.196 0.232 0.443 0.416 0.723 0.534s0.582 0.17 0.884 0.15c0.768-0.025 1.52-0.219 2.206-0.568 1.668-0.888 3.251-1.926 4.731-3.102zM41.621 20.14c2.195-0.896 4.208-2.192 5.936-3.822 0.803-0.731 1.291-1.748 1.362-2.835 0.027-0.616-0.177-1.22-0.572-1.692-0.178-0.206-0.399-0.369-0.648-0.478s-0.518-0.161-0.789-0.152c-0.649 0.016-1.272 0.258-1.763 0.685-0.861 0.738-1.525 1.679-1.933 2.74-0.743 1.783-1.278 3.647-1.593 5.555z"></path>
<path fill="#4289fe" style="fill: var(--color1, #4289fe)" d="M75.911 25.544c-3.082 3.338-5.539 5.007-7.373 5.007-0.277-0.008-0.55-0.073-0.802-0.191s-0.477-0.286-0.662-0.494c-0.454-0.457-0.785-1.699-0.994-3.726l-0.994-10.342c-2.351 6.347-4.3 10.392-5.848 12.136s-3.236 2.616-5.065 2.616c-0.694 0.029-1.376-0.195-1.92-0.63-0.249-0.203-0.447-0.461-0.578-0.755s-0.192-0.615-0.177-0.936c-0.010-0.298 0.040-0.595 0.147-0.873s0.271-0.531 0.479-0.743c0.194-0.203 0.428-0.364 0.687-0.473s0.537-0.162 0.817-0.157c0.472 0.043 0.933 0.168 1.362 0.37 0.431 0.191 0.892 0.307 1.362 0.342 0.458-0.025 0.907-0.143 1.318-0.346s0.778-0.489 1.078-0.839c0.78-0.79 1.958-3.034 3.533-6.733s2.36-5.753 2.355-6.164c0-0.511-0.227-0.767-0.681-0.767-0.994 0-2.464 0.979-4.411 2.938l-1.048-0.863c3.449-3.196 6.104-4.794 7.965-4.794 0.268-0.030 0.54 0.019 0.781 0.14s0.443 0.311 0.58 0.544c0.318 0.908 0.497 1.86 0.531 2.822l0.98 11.862c0.195 2.237 0.726 3.356 1.593 3.356 0.454 0 1.182-0.457 2.185-1.37s1.706-1.523 2.11-1.829l0.688 0.89z"></path>
<path fill="#4289fe" style="fill: var(--color1, #4289fe)" d="M92.311 9.805h3.492l-2.308 8.623c-1.362 5.022-2.042 7.872-2.042 8.548-0.010 0.247 0.067 0.489 0.218 0.685 0.060 0.073 0.135 0.133 0.219 0.175s0.177 0.067 0.271 0.071c0.355-0.028 0.695-0.156 0.98-0.37 1.086-0.881 2.11-1.838 3.063-2.863l0.81 0.945c-3.286 3.434-5.705 5.153-7.257 5.157-0.257 0.006-0.512-0.045-0.747-0.149s-0.445-0.259-0.614-0.454c-0.392-0.48-0.589-1.092-0.551-1.712 0.046-1.158 0.225-2.307 0.531-3.425-1.546 1.755-3.365 3.247-5.385 4.418-1.099 0.725-2.365 1.152-3.676 1.24-0.255 0.015-0.51-0.028-0.746-0.127s-0.446-0.249-0.616-0.442c-0.368-0.524-0.541-1.162-0.49-1.801 0.007-0.691 0.083-1.379 0.225-2.055 0.213-1.036 0.753-3.119 1.62-6.246 1.094-3.968 1.641-6.347 1.641-7.137 0-0.459-0.163-0.685-0.49-0.685-0.431 0.050-0.843 0.208-1.198 0.459-0.931 0.655-1.801 1.393-2.601 2.205l-1.082-0.863c1.53-1.471 3.212-2.773 5.017-3.883 0.848-0.536 1.808-0.864 2.805-0.959 0.181-0.005 0.361 0.031 0.526 0.106s0.311 0.186 0.427 0.326c0.28 0.398 0.411 0.884 0.368 1.37 0 1.137-0.588 3.929-1.763 8.376-1.066 3.986-1.6 6.265-1.6 6.835-0.006 0.329 0.114 0.647 0.334 0.89 0.086 0.111 0.196 0.201 0.32 0.265s0.262 0.1 0.401 0.105c0.908 0 2.206-0.76 3.894-2.281 1.585-1.366 2.736-3.172 3.308-5.191l2.696-10.157z"></path>
<path fill="#4289fe" style="fill: var(--color1, #4289fe)" d="M139.699 8.743l1.62-0.342-1.838 6.239c-0.735 2.484-1.43 5.344-2.083 8.582-0.265 1.126-0.445 2.271-0.538 3.425 0 0.507 0.204 0.767 0.613 0.767 0.452-0.074 0.881-0.252 1.253-0.521 1.054-0.641 2.032-1.401 2.914-2.267l0.783 0.966c-1.861 1.708-3.054 2.744-3.581 3.109-0.936 0.656-1.952 1.187-3.023 1.582-0.58 0.224-1.196 0.343-1.818 0.349-0.343 0.027-0.684-0.079-0.953-0.295-0.111-0.113-0.197-0.248-0.252-0.397s-0.078-0.308-0.068-0.466c0.018-0.346 0.084-0.687 0.198-1.014l0.98-3.356c-1.431 1.716-3.128 3.189-5.024 4.363-0.965 0.677-2.1 1.068-3.274 1.13-0.418 0.022-0.834-0.059-1.214-0.236s-0.711-0.444-0.965-0.778c-0.726-1.037-1.088-2.288-1.028-3.555 0.055-2.014 0.518-3.995 1.362-5.821 0.919-2.13 2.174-4.096 3.717-5.822 1.365-1.596 3.031-2.904 4.902-3.849 1.612-0.681 3.352-1.001 5.099-0.938 0.532 0 1.064 0.032 1.593 0.096l0.626-0.952zM136.656 12.517c-0.734-0.162-1.482-0.251-2.233-0.267-1.383-0.030-2.737 0.398-3.853 1.219-1.094 0.813-2.11 2.276-3.050 4.39-0.912 1.985-1.392 4.142-1.409 6.328-0.070 0.846 0.128 1.692 0.565 2.418 0.167 0.234 0.389 0.423 0.645 0.552s0.539 0.193 0.826 0.188c1.13 0 2.34-0.612 3.628-1.835 1.421-1.463 2.407-3.297 2.845-5.294l2.036-7.698z"></path>
<path fill="#4289fe" style="fill: var(--color1, #4289fe)" d="M144.723 14.839l-0.735-0.993c1.352-1.424 2.908-2.639 4.616-3.603 1.047-0.642 2.224-1.038 3.445-1.157 0.276-0.022 0.551 0.056 0.776 0.219 0.087 0.076 0.155 0.172 0.2 0.278s0.065 0.222 0.059 0.338c-0.062 0.645-0.195 1.281-0.395 1.897-0.374 1.37-0.64 2.472-0.79 3.281 3.912-4.013 6.903-6.020 8.972-6.020 0.224-0.016 0.448 0.015 0.66 0.092s0.404 0.197 0.566 0.353c0.31 0.398 0.458 0.9 0.415 1.404-0.1 1.202-0.347 2.386-0.735 3.527 1.431-1.592 3.063-2.99 4.854-4.157 0.961-0.662 2.069-1.076 3.227-1.205 0.291-0.018 0.583 0.024 0.857 0.126s0.525 0.259 0.734 0.463c0.416 0.511 0.618 1.164 0.566 1.822-0.013 0.592-0.096 1.181-0.246 1.753-0.163 0.676-0.76 2.73-1.79 6.164-1.288 4.26-1.935 6.801-1.94 7.623 0 0.562 0.232 0.842 0.681 0.842 0.323-0.005 0.638-0.108 0.904-0.295 1.054-0.773 2.041-1.632 2.954-2.568l0.81 0.89c-0.34 0.279-0.984 0.854-1.932 1.726-0.852 0.808-1.762 1.55-2.723 2.219-0.717 0.481-1.545 0.768-2.404 0.836-0.248-0.018-0.488-0.093-0.703-0.219s-0.398-0.299-0.536-0.507c-0.407-0.588-0.606-1.298-0.565-2.013 0.017-0.934 0.131-1.864 0.34-2.774 0.227-1.059 0.908-3.441 2.042-7.143 0.572-1.642 0.992-3.334 1.253-5.055 0-0.562-0.245-0.842-0.735-0.842-0.59 0.064-1.154 0.276-1.641 0.616-1.379 0.812-2.594 1.879-3.581 3.144-0.821 1.236-1.403 2.616-1.716 4.068-1.094 4.064-1.911 7.376-2.451 9.938h-3.485l3.656-15.068c0.169-0.617 0.301-1.244 0.395-1.877 0.015-0.219-0.056-0.435-0.198-0.603-0.074-0.074-0.162-0.131-0.26-0.167s-0.201-0.052-0.305-0.045c-0.761 0.152-1.467 0.51-2.042 1.034-1.358 0.92-2.539 2.080-3.486 3.424-0.884 1.549-1.501 3.237-1.824 4.993l-1.886 8.335h-3.526l2.771-11.767c0.817-3.406 1.225-5.255 1.225-5.548 0-0.377-0.143-0.568-0.442-0.568-0.645-0.018-1.947 0.911-3.908 2.788z"></path>
<path fill="#4289fe" style="fill: var(--color1, #4289fe)" d="M112.25 30.811c0.236 0.268 0.524 0.484 0.845 0.636s0.671 0.236 1.027 0.248c2.042 0 4.568-1.699 7.795-5.192 0.090-0.097 0.144-0.222 0.152-0.354s-0.028-0.264-0.105-0.372l-0.64-0.89c-0.044-0.062-0.099-0.115-0.164-0.155s-0.136-0.067-0.211-0.078h-0.109c-0.122-0.001-0.241 0.038-0.34 0.11-0.395 0.295-1.096 0.904-2.151 1.863s-1.409 1.37-1.797 1.233-0.626-0.616-0.756-0.849c-0.074-0.126-0.14-0.256-0.197-0.39-0.157-0.349-0.374-0.836-0.681-1.5-0.026 0.553 0.026 1.106 0.156 1.644 0.051 0.16 0.11 0.318 0.177 0.472 0 0 0.055 0.123 0.102 0.219 0.275 0.457 0.702 0.802 1.205 0.972 0.531 0.11 0.967-0.274 2.185-1.37 1.030-0.936 1.734-1.543 2.11-1.822l0.64 0.89c-3.082 3.338-5.539 5.006-7.373 5.006-0.278-0.008-0.55-0.073-0.802-0.191s-0.477-0.286-0.662-0.494c-0.454-0.457-0.785-1.699-0.994-3.726l-0.511-5.246h-0.572l0.511 5.301c0.218 2.137 0.585 3.452 1.157 4.034z"></path>
<path fill="#4289fe" style="fill: var(--color1, #4289fe)" d="M115.218 9.456c-1.362 0.89-3.145 2.74-5.535 5.753-0.631 0.776-1.207 1.434-1.729 1.972l1.096-4.986c0.164-0.589 0.276-1.192 0.334-1.801 0-0.315-0.116-1.37-1.552-1.37-0.803 0-2.008 0.411-3.69 1.253-1.892 1.024-3.585 2.384-4.997 4.014-0.095 0.105-0.148 0.242-0.148 0.384s0.053 0.279 0.148 0.384l0.762 0.863c0.052 0.059 0.116 0.107 0.187 0.14s0.149 0.051 0.228 0.052c0.078 0 0.154-0.015 0.226-0.046s0.136-0.076 0.189-0.132c2.396-2.534 3.227-2.808 3.404-2.829 0 0.541-0.422 2.808-2.383 10.506l-1.695 6.671c-0.016 0.083-0.014 0.167 0.007 0.249s0.058 0.158 0.11 0.223c0.053 0.065 0.119 0.118 0.194 0.155s0.157 0.057 0.241 0.058h3.703c0.129 0 0.255-0.044 0.356-0.124s0.173-0.194 0.202-0.321l2.294-9.897c0.622 0.389 1.162 0.899 1.586 1.5 0.659 1.116 1.185 2.307 1.566 3.548 0.204 0.582 0.402 1.137 0.606 1.678h0.606c-0.225-0.596-0.449-1.219-0.681-1.863-0.394-1.287-0.941-2.522-1.627-3.678-0.638-0.871-1.474-1.575-2.437-2.055l-2.471 10.664h-3.703l1.716-6.637c1.602-6.283 2.403-9.835 2.403-10.657 0-0.377-0.184-0.568-0.538-0.568-0.685 0-1.976 1.002-3.874 3.007l-0.756-0.863c1.366-1.577 3.003-2.892 4.833-3.883 1.045-0.621 2.202-1.029 3.404-1.199 0.654 0 0.98 0.256 0.98 0.767-0.070 0.566-0.177 1.126-0.32 1.678l-1.484 6.733c1.159-0.954 2.205-2.039 3.118-3.233 2.337-2.909 4.139-4.787 5.405-5.637 0.707-0.489 1.489-0.857 2.315-1.089v-0.589c-0.93 0.246-1.81 0.654-2.601 1.205z"></path>
<path fill="#4289fe" style="fill: var(--color1, #4289fe)" d="M115.062 12.627c-1.385 0.938-2.63 2.071-3.697 3.363-0.965 1.164-2.031 2.239-3.186 3.212 2.219 1.050 3.74 2.109 4.561 3.178 1.023 1.574 1.883 3.249 2.567 5h0.619c-0.719-1.874-1.632-3.667-2.723-5.349-1.099-1.261-2.455-2.27-3.976-2.959 0.902-0.858 1.761-1.761 2.573-2.705 1.027-1.247 2.224-2.342 3.554-3.253 0.758-0.46 1.62-0.717 2.505-0.747v-0.575c-0.989 0.029-1.953 0.317-2.798 0.836z"></path>
<path fill="#4289fe" style="fill: var(--color1, #4289fe)" d="M118.684 12.414h0.681c1.579 0 2.471-0.788 2.471-2.151 0-0.822-0.347-2.199-2.655-2.199-0.459 0.004-0.916 0.061-1.362 0.171v0.589c0.444-0.119 0.902-0.181 1.362-0.185 1.389 0 2.083 0.543 2.083 1.63s-0.629 1.612-1.886 1.575h-0.681c-0.361 0-0.626-0.048-0.803-0.048h-0.082v0.575h0.082c0.225-0.007 0.449 0.014 0.79 0.041z"></path>
<path fill="#4289fe" style="fill: var(--color1, #4289fe)" d="M111.917 29.961c0.18 0.214 0.404 0.387 0.657 0.505s0.528 0.18 0.807 0.18c1.815 0 4.273-1.669 7.373-5.007l-0.64-0.89c-0.377 0.279-1.080 0.888-2.11 1.829-1.232 1.123-1.716 1.37-2.042 1.37-0.057 0.005-0.114 0.005-0.17 0-0.177 0-0.511-0.089-0.967-0.644-0.543-0.762-0.986-1.591-1.321-2.466l-4.663-3.253c1.287 3.603 2.144 6.075 2.28 6.774 0.098 0.603 0.376 1.162 0.797 1.603z"></path>
<path fill="#4289fe" style="fill: var(--color1, #4289fe)" d="M114.667 9.421c-1.266 0.849-3.068 2.728-5.405 5.637-0.912 1.193-1.955 2.278-3.111 3.233l1.477-6.733c0.144-0.552 0.25-1.112 0.32-1.678 0-0.511-0.327-0.767-0.98-0.767-1.202 0.17-2.359 0.577-3.404 1.199-1.83 0.992-3.467 2.307-4.834 3.883l0.762 0.863c1.897-2.004 3.188-3.007 3.874-3.007 0.361 0 0.538 0.192 0.538 0.568 0 0.822-0.801 4.374-2.403 10.657l-1.763 6.63h3.703l2.471-10.657c0.963 0.48 1.799 1.184 2.437 2.055 0.687 1.156 1.233 2.391 1.627 3.678 0.293 0.836 0.579 1.623 0.871 2.377h3.799c-0.738-1.918-1.671-3.754-2.784-5.479-0.826-1.068-2.346-2.128-4.561-3.178 1.153-0.973 2.219-2.045 3.186-3.205 1.067-1.294 2.311-2.429 3.697-3.37 0.865-0.529 1.854-0.815 2.866-0.829 0.177 0 0.442 0 0.79 0.048v-3.151c-1.141 0.142-2.23 0.563-3.172 1.226z"></path>
<path fill="#4289fe" style="fill: var(--color1, #4289fe)" d="M118.562 11.359c1.257 0 1.886-0.525 1.886-1.575s-0.694-1.594-2.083-1.63c-0.17 0-0.34 0-0.511 0v3.151l0.708 0.055z"></path>
</symbol>
<symbol id="like" viewBox="0 0 29 32">
<path fill="#fbfadc" style="fill: var(--color1, #fbfadc)" d="M21.613 30.253c-1.584 1.357-3.564 2.317-5.43 1.3-2.376-1.3-4.808-2.657-7.071-4.126-2.432-1.583-4.751-3.391-7.127-5.087-1.81-1.47-2.376-3.109-1.414-5.2 0.566-1.243 0.962-2.543 1.471-3.843 0.679-1.865 2.036-2.939 4.016-3.278 2.659-0.452 5.261-1.13 7.749-2.261 1.867-0.848 3.224-2.261 4.299-3.956 0.622-1.017 1.358-1.922 2.093-2.826 0.453-0.565 1.075-0.904 1.867-0.791 1.018 0.113 1.697 0.791 1.584 1.809-0.226 1.752-0.566 3.504-0.962 5.2-0.283 1.3-0.735 2.6-1.075 3.9-0.283 1.243 0 1.639 1.131 2.261 1.471 0.848 2.941 1.696 4.355 2.656 1.358 0.904 1.641 2.204 1.075 3.787-1.131 2.996-2.489 6.048-4.525 8.535-0.622 0.565-1.301 1.243-2.036 1.922z"></path>
</symbol>
<symbol id="slider-nav-arrow" viewBox="0 0 31 32">
<path fill="none" stroke="#7e8494" style="stroke: var(--color1, #7e8494)" stroke-linejoin="round" stroke-linecap="round" stroke-miterlimit="4" stroke-width="2.56" d="M18.773 22.833l-6.827-6.827 6.827-6.827"></path>
</symbol>
<symbol id="wine-bureau" viewBox="0 0 99 32">
<path fill="#7e8494" style="fill: var(--color1, #7e8494)" d="M36.832 15.602h-3.25l-3.742-12.718-3.742 12.718h-3.152l-4.924-15.202h2.758l3.742 12.718 3.742-12.718h3.151l3.742 12.718 3.742-12.718h2.758l-4.826 15.202z"></path>
<path fill="#7e8494" style="fill: var(--color1, #7e8494)" d="M42.644 15.602v-12.917h2.56v12.917h-2.56z"></path>
<path fill="#7e8494" style="fill: var(--color1, #7e8494)" d="M59.188 15.602l-8.666-10.731v10.731h-2.462v-12.917h3.742l8.666 10.731v-10.731h2.462v12.917h-3.742z"></path>
<path fill="#7e8494" style="fill: var(--color1, #7e8494)" d="M65.787 15.602v-12.917h13.295v2.285h-10.833v2.782h7.485v2.285h-7.485v3.279h11.227v2.285h-13.689z"></path>
<path fill="#7e8494" style="fill: var(--color1, #7e8494)" d="M15.363 27.724c0 2.285-1.674 3.478-5.023 3.478h-10.341v-12.917h10.538c2.758 0 4.333 1.49 4.333 3.577 0 1.093-0.492 1.987-1.477 2.683 1.28 0.795 1.97 1.689 1.97 3.18zM12.409 22.061c0-0.894-0.689-1.49-1.773-1.49h-8.174v2.981h8.076c1.182 0 1.871-0.596 1.871-1.49zM12.803 27.526c0-0.994-0.788-1.59-2.265-1.59h-8.076v3.080h7.879c1.576-0.099 2.462-0.695 2.462-1.49z"></path>
<path fill="#7e8494" style="fill: var(--color1, #7e8494)" d="M24.818 31.599c-4.629 0-7.386-1.987-7.386-4.57v-8.644h2.462v8.148c0 1.888 1.674 2.882 4.924 2.882s4.924-0.994 4.924-2.882v-8.148h2.462v8.644c0 2.583-2.856 4.57-7.386 4.57z"></path>
<path fill="#7e8494" style="fill: var(--color1, #7e8494)" d="M47.174 31.202l-3.348-4.769h-6.303v4.769h-2.462v-12.917h10.341c2.758 0 4.432 1.59 4.432 4.074 0 2.087-1.083 3.478-3.151 3.875l3.447 4.869-2.955 0.099zM47.174 22.458c0-1.292-0.788-1.888-2.364-1.888h-7.288v3.577h7.485c1.379 0.099 2.167-0.497 2.167-1.689z"></path>
<path fill="#7e8494" style="fill: var(--color1, #7e8494)" d="M51.999 31.202v-12.917h13.295v2.285h-10.735v2.782h7.485v2.285h-7.485v3.279h11.227v2.285h-13.788z"></path>
<path fill="#7e8494" style="fill: var(--color1, #7e8494)" d="M80.559 31.202l-1.477-2.782h-8.568l-1.477 2.782h-2.757l6.992-12.917h3.053l6.992 12.917h-2.757zM74.847 20.471l-3.053 5.664h6.106l-3.053-5.664z"></path>
<path fill="#7e8494" style="fill: var(--color1, #7e8494)" d="M90.9 31.599c-4.629 0-7.386-1.987-7.386-4.57v-8.644h2.462v8.148c0 1.888 1.674 2.882 4.924 2.882s4.924-0.994 4.924-2.882v-8.148h2.462v8.644c0 2.583-2.856 4.57-7.386 4.57z"></path>
</symbol>
<symbol id="percent" viewBox="0 0 67 32">
<path fill="#fff" style="fill: var(--color1, #fff)" d="M5 0h57.25c2.761 0 5 2.239 5 5v22c0 2.761-2.239 5-5 5h-57.25c-2.761 0-5-2.239-5-5v-22c0-2.761 2.239-5 5-5z"></path>
<path fill="#ecf0f7" style="fill: var(--color2, #ecf0f7); stroke: var(--color1, #fff)" stroke="#fff" stroke-linejoin="miter" stroke-linecap="butt" stroke-miterlimit="4" stroke-width="1" d="M20.5 20c0-3.588-2.912-6.5-6.5-6.5s-6.5 2.912-6.5 6.5c0 3.588 2.912 6.5 6.5 6.5s6.5-2.912 6.5-6.5z"></path>
<path fill="#2f3352" style="fill: var(--color3, #2f3352)" opacity="0.26" d="M13.358 21.715l-0.45-0.265 1.719-3.064 0.45 0.256-1.719 3.073zM12.629 20.261c-0.175 0-0.334-0.041-0.475-0.122s-0.254-0.191-0.338-0.329c-0.082-0.14-0.124-0.296-0.124-0.468 0-0.171 0.041-0.326 0.124-0.463 0.084-0.138 0.197-0.247 0.338-0.328s0.299-0.122 0.475-0.122c0.175 0 0.333 0.041 0.473 0.122 0.141 0.081 0.253 0.191 0.335 0.328s0.124 0.293 0.124 0.463c0 0.171-0.041 0.326-0.124 0.466-0.082 0.138-0.194 0.248-0.335 0.331-0.139 0.081-0.297 0.122-0.473 0.122zM12.629 19.708c0.068 0 0.128-0.016 0.182-0.047 0.054-0.033 0.096-0.076 0.126-0.131 0.031-0.055 0.047-0.118 0.047-0.187 0-0.104-0.034-0.189-0.101-0.256-0.066-0.069-0.151-0.104-0.254-0.104-0.070 0-0.133 0.016-0.187 0.047-0.053 0.030-0.094 0.072-0.124 0.126s-0.045 0.116-0.045 0.187c0 0.108 0.033 0.196 0.099 0.263 0.068 0.067 0.153 0.101 0.257 0.101zM15.36 21.67c-0.175 0-0.334-0.041-0.475-0.122-0.141-0.082-0.254-0.193-0.338-0.331-0.082-0.14-0.124-0.295-0.124-0.466s0.041-0.326 0.124-0.463c0.084-0.138 0.197-0.247 0.338-0.328s0.299-0.122 0.475-0.122c0.175 0 0.333 0.041 0.473 0.122 0.141 0.081 0.253 0.191 0.335 0.328s0.124 0.293 0.124 0.463c0 0.171-0.041 0.326-0.124 0.466-0.082 0.138-0.194 0.248-0.335 0.331-0.139 0.081-0.297 0.122-0.473 0.122zM15.36 21.116c0.068 0 0.128-0.016 0.182-0.047 0.054-0.033 0.096-0.076 0.126-0.131 0.031-0.055 0.047-0.118 0.047-0.187 0-0.104-0.034-0.189-0.101-0.256-0.066-0.069-0.151-0.104-0.254-0.104-0.070 0-0.133 0.015-0.187 0.045-0.053 0.030-0.094 0.072-0.124 0.126s-0.045 0.117-0.045 0.189c0 0.105 0.033 0.192 0.099 0.261s0.152 0.104 0.257 0.104z"></path>
<path fill="#ecf0f7" style="fill: var(--color2, #ecf0f7); stroke: var(--color1, #fff)" stroke="#fff" stroke-linejoin="miter" stroke-linecap="butt" stroke-miterlimit="4" stroke-width="1" d="M30.25 20c0-3.588-2.912-6.5-6.5-6.5s-6.5 2.912-6.5 6.5c0 3.588 2.912 6.5 6.5 6.5s6.5-2.912 6.5-6.5z"></path>
<path fill="#2f3352" style="fill: var(--color3, #2f3352)" opacity="0.26" d="M23.108 21.715l-0.45-0.265 1.719-3.064 0.45 0.256-1.719 3.073zM22.379 20.261c-0.175 0-0.334-0.041-0.475-0.122s-0.253-0.191-0.337-0.329c-0.082-0.14-0.124-0.296-0.124-0.468 0-0.171 0.041-0.326 0.124-0.463 0.084-0.138 0.197-0.247 0.337-0.328s0.299-0.122 0.475-0.122c0.175 0 0.333 0.041 0.473 0.122 0.141 0.081 0.253 0.191 0.335 0.328s0.124 0.293 0.124 0.463c0 0.171-0.041 0.326-0.124 0.466-0.082 0.138-0.194 0.248-0.335 0.331-0.14 0.081-0.297 0.122-0.473 0.122zM22.379 19.708c0.067 0 0.128-0.016 0.182-0.047 0.054-0.033 0.096-0.076 0.126-0.131 0.032-0.055 0.047-0.118 0.047-0.187 0-0.104-0.034-0.189-0.101-0.256-0.066-0.069-0.151-0.104-0.254-0.104-0.070 0-0.133 0.016-0.187 0.047-0.052 0.030-0.094 0.072-0.124 0.126s-0.045 0.116-0.045 0.187c0 0.108 0.033 0.196 0.099 0.263 0.067 0.067 0.153 0.101 0.256 0.101zM25.11 21.67c-0.175 0-0.334-0.041-0.475-0.122-0.141-0.082-0.253-0.193-0.337-0.331-0.082-0.14-0.124-0.295-0.124-0.466s0.041-0.326 0.124-0.463c0.084-0.138 0.197-0.247 0.337-0.328s0.299-0.122 0.475-0.122c0.175 0 0.333 0.041 0.473 0.122 0.141 0.081 0.253 0.191 0.335 0.328s0.124 0.293 0.124 0.463c0 0.171-0.041 0.326-0.124 0.466-0.082 0.138-0.194 0.248-0.335 0.331-0.14 0.081-0.297 0.122-0.473 0.122zM25.11 21.116c0.067 0 0.128-0.016 0.182-0.047 0.054-0.033 0.096-0.076 0.126-0.131 0.032-0.055 0.047-0.118 0.047-0.187 0-0.104-0.034-0.189-0.101-0.256-0.066-0.069-0.151-0.104-0.254-0.104-0.070 0-0.133 0.015-0.187 0.045-0.052 0.030-0.094 0.072-0.124 0.126s-0.045 0.117-0.045 0.189c0 0.105 0.033 0.192 0.099 0.261s0.151 0.104 0.256 0.104z"></path>
<path fill="#ecf0f7" style="fill: var(--color2, #ecf0f7); stroke: var(--color1, #fff)" stroke="#fff" stroke-linejoin="miter" stroke-linecap="butt" stroke-miterlimit="4" stroke-width="1" d="M40 20c0-3.588-2.912-6.5-6.5-6.5s-6.5 2.912-6.5 6.5 2.913 6.5 6.5 6.5c3.588 0 6.5-2.912 6.5-6.5z"></path>
<path fill="#2f3352" style="fill: var(--color3, #2f3352)" opacity="0.26" d="M32.858 21.715l-0.45-0.265 1.719-3.064 0.45 0.256-1.719 3.073zM32.129 20.261c-0.175 0-0.334-0.041-0.475-0.122s-0.253-0.191-0.337-0.329c-0.082-0.14-0.124-0.296-0.124-0.468 0-0.171 0.041-0.326 0.124-0.463 0.084-0.138 0.197-0.247 0.337-0.328s0.299-0.122 0.475-0.122c0.175 0 0.333 0.041 0.472 0.122 0.141 0.081 0.253 0.191 0.335 0.328s0.124 0.293 0.124 0.463c0 0.171-0.041 0.326-0.124 0.466-0.083 0.138-0.194 0.248-0.335 0.331-0.139 0.081-0.297 0.122-0.472 0.122zM32.129 19.708c0.068 0 0.128-0.016 0.182-0.047 0.054-0.033 0.096-0.076 0.126-0.131 0.032-0.055 0.047-0.118 0.047-0.187 0-0.104-0.034-0.189-0.101-0.256-0.066-0.069-0.151-0.104-0.254-0.104-0.071 0-0.133 0.016-0.187 0.047-0.052 0.030-0.094 0.072-0.124 0.126s-0.045 0.116-0.045 0.187c0 0.108 0.033 0.196 0.099 0.263 0.067 0.067 0.153 0.101 0.257 0.101zM34.86 21.67c-0.175 0-0.334-0.041-0.475-0.122-0.141-0.082-0.254-0.193-0.337-0.331-0.083-0.14-0.124-0.295-0.124-0.466s0.041-0.326 0.124-0.463c0.084-0.138 0.197-0.247 0.337-0.328s0.299-0.122 0.475-0.122c0.175 0 0.333 0.041 0.472 0.122 0.141 0.081 0.253 0.191 0.335 0.328s0.124 0.293 0.124 0.463c0 0.171-0.041 0.326-0.124 0.466-0.083 0.138-0.194 0.248-0.335 0.331-0.139 0.081-0.297 0.122-0.472 0.122zM34.86 21.116c0.068 0 0.128-0.016 0.182-0.047 0.054-0.033 0.096-0.076 0.126-0.131 0.032-0.055 0.047-0.118 0.047-0.187 0-0.104-0.034-0.189-0.101-0.256-0.066-0.069-0.151-0.104-0.254-0.104-0.071 0-0.133 0.015-0.187 0.045-0.053 0.030-0.094 0.072-0.124 0.126s-0.045 0.117-0.045 0.189c0 0.105 0.033 0.192 0.099 0.261s0.151 0.104 0.257 0.104z"></path>
<path fill="#ecf0f7" style="fill: var(--color2, #ecf0f7); stroke: var(--color1, #fff)" stroke="#fff" stroke-linejoin="miter" stroke-linecap="butt" stroke-miterlimit="4" stroke-width="1" d="M49.75 20c0-3.588-2.912-6.5-6.5-6.5s-6.5 2.912-6.5 6.5 2.913 6.5 6.5 6.5c3.588 0 6.5-2.912 6.5-6.5z"></path>
<path fill="#2f3352" style="fill: var(--color3, #2f3352)" opacity="0.26" d="M42.608 21.715l-0.45-0.265 1.719-3.064 0.45 0.256-1.719 3.073zM41.879 20.261c-0.175 0-0.334-0.041-0.475-0.122s-0.254-0.191-0.337-0.329c-0.083-0.14-0.124-0.296-0.124-0.468 0-0.171 0.041-0.326 0.124-0.463 0.084-0.138 0.197-0.247 0.337-0.328s0.299-0.122 0.475-0.122c0.175 0 0.333 0.041 0.472 0.122 0.141 0.081 0.253 0.191 0.335 0.328s0.124 0.293 0.124 0.463c0 0.171-0.041 0.326-0.124 0.466-0.083 0.138-0.194 0.248-0.335 0.331-0.139 0.081-0.297 0.122-0.472 0.122zM41.879 19.708c0.068 0 0.128-0.016 0.182-0.047 0.054-0.033 0.096-0.076 0.126-0.131 0.032-0.055 0.047-0.118 0.047-0.187 0-0.104-0.034-0.189-0.101-0.256-0.066-0.069-0.151-0.104-0.254-0.104-0.071 0-0.133 0.016-0.187 0.047-0.053 0.030-0.094 0.072-0.124 0.126s-0.045 0.116-0.045 0.187c0 0.108 0.033 0.196 0.099 0.263 0.068 0.067 0.153 0.101 0.257 0.101zM44.61 21.67c-0.175 0-0.334-0.041-0.475-0.122-0.141-0.082-0.254-0.193-0.337-0.331-0.083-0.14-0.124-0.295-0.124-0.466s0.041-0.326 0.124-0.463c0.084-0.138 0.197-0.247 0.337-0.328s0.299-0.122 0.475-0.122c0.175 0 0.333 0.041 0.472 0.122 0.141 0.081 0.253 0.191 0.335 0.328s0.124 0.293 0.124 0.463c0 0.171-0.041 0.326-0.124 0.466-0.083 0.138-0.194 0.248-0.335 0.331-0.139 0.081-0.297 0.122-0.472 0.122zM44.61 21.116c0.068 0 0.128-0.016 0.182-0.047 0.054-0.033 0.096-0.076 0.126-0.131 0.032-0.055 0.047-0.118 0.047-0.187 0-0.104-0.034-0.189-0.101-0.256-0.066-0.069-0.151-0.104-0.254-0.104-0.071 0-0.133 0.015-0.187 0.045-0.053 0.030-0.094 0.072-0.124 0.126s-0.045 0.117-0.045 0.189c0 0.105 0.033 0.192 0.099 0.261s0.151 0.104 0.257 0.104z"></path>
<path fill="#4289fe" style="fill: var(--color4, #4289fe); stroke: var(--color1, #fff)" stroke="#fff" stroke-linejoin="miter" stroke-linecap="butt" stroke-miterlimit="4" stroke-width="1" d="M59.5 20c0-3.588-2.912-6.5-6.5-6.5s-6.5 2.912-6.5 6.5 2.913 6.5 6.5 6.5c3.588 0 6.5-2.912 6.5-6.5z"></path>
<path fill="#2f3037" style="fill: var(--color5, #2f3037)" d="M9.117 8.802c-0.169 0-0.335-0.024-0.497-0.072-0.161-0.049-0.297-0.119-0.408-0.21l0.193-0.299c0.058 0.050 0.126 0.093 0.203 0.13 0.078 0.036 0.161 0.064 0.248 0.084 0.088 0.019 0.175 0.028 0.262 0.028 0.16 0 0.289-0.030 0.387-0.091 0.099-0.061 0.149-0.149 0.149-0.266 0-0.088-0.034-0.162-0.101-0.222-0.066-0.061-0.19-0.117-0.371-0.168l-0.252-0.074c-0.231-0.067-0.4-0.155-0.506-0.264-0.105-0.11-0.158-0.246-0.158-0.409 0-0.109 0.022-0.207 0.065-0.294 0.044-0.088 0.106-0.163 0.185-0.228 0.081-0.064 0.175-0.113 0.284-0.147s0.227-0.051 0.357-0.051c0.165 0 0.317 0.024 0.459 0.072s0.258 0.112 0.35 0.192l-0.2 0.29c-0.050-0.045-0.109-0.085-0.177-0.117-0.066-0.033-0.138-0.058-0.215-0.075s-0.155-0.026-0.235-0.026c-0.098 0-0.185 0.015-0.261 0.044-0.075 0.028-0.133 0.069-0.175 0.122s-0.063 0.119-0.063 0.196c0 0.056 0.014 0.105 0.042 0.147s0.076 0.080 0.143 0.115c0.069 0.034 0.163 0.068 0.284 0.103l0.266 0.079c0.226 0.067 0.392 0.153 0.497 0.261 0.105 0.106 0.158 0.244 0.158 0.415 0 0.146-0.036 0.274-0.108 0.385-0.071 0.11-0.175 0.195-0.312 0.257s-0.301 0.093-0.493 0.093zM11.199 8.802c-0.173 0-0.325-0.040-0.459-0.119-0.132-0.081-0.236-0.19-0.312-0.327-0.075-0.139-0.112-0.296-0.112-0.473 0-0.132 0.022-0.254 0.065-0.366s0.104-0.209 0.182-0.292c0.078-0.083 0.171-0.147 0.28-0.192s0.227-0.068 0.355-0.068c0.17 0 0.313 0.036 0.427 0.109 0.116 0.072 0.204 0.166 0.264 0.28l-0.054 0.082v-0.418h0.343v1.732h-0.343v-0.418l0.054 0.082c-0.061 0.114-0.149 0.208-0.264 0.28-0.114 0.072-0.257 0.108-0.427 0.108zM11.25 8.461c0.105 0 0.199-0.023 0.282-0.070 0.083-0.048 0.148-0.115 0.194-0.201 0.048-0.086 0.072-0.188 0.072-0.306s-0.024-0.22-0.072-0.306c-0.047-0.088-0.111-0.155-0.194-0.201s-0.177-0.070-0.282-0.070c-0.106 0-0.201 0.023-0.284 0.070-0.082 0.047-0.146 0.114-0.194 0.201-0.048 0.086-0.072 0.188-0.072 0.306s0.024 0.22 0.072 0.306c0.048 0.086 0.113 0.153 0.194 0.201 0.083 0.047 0.177 0.070 0.284 0.070zM12.715 8.75v-2.52h0.385v2.52h-0.385zM14.425 8.802c-0.187 0-0.351-0.038-0.492-0.114-0.141-0.077-0.251-0.184-0.331-0.322-0.078-0.138-0.117-0.297-0.117-0.479 0-0.133 0.023-0.255 0.068-0.367 0.046-0.113 0.11-0.211 0.193-0.294s0.18-0.147 0.29-0.192c0.112-0.045 0.234-0.068 0.366-0.068 0.143 0 0.271 0.026 0.383 0.077 0.112 0.050 0.205 0.121 0.278 0.212 0.075 0.091 0.127 0.198 0.158 0.32 0.031 0.121 0.037 0.253 0.016 0.396h-1.383c-0.002 0.104 0.020 0.195 0.068 0.273 0.048 0.077 0.116 0.137 0.205 0.18 0.090 0.043 0.195 0.065 0.317 0.065 0.098 0 0.193-0.015 0.284-0.044 0.092-0.030 0.176-0.075 0.25-0.133l0.149 0.277c-0.056 0.046-0.124 0.085-0.203 0.117-0.079 0.031-0.162 0.055-0.248 0.072-0.086 0.018-0.17 0.026-0.25 0.026zM13.877 7.686h0.982c-0.004-0.131-0.046-0.233-0.126-0.308-0.079-0.075-0.193-0.112-0.339-0.112-0.142 0-0.261 0.037-0.355 0.112-0.093 0.075-0.147 0.177-0.161 0.308z"></path>
<path fill="#f4f6f9" style="fill: var(--color6, #f4f6f9)" d="M53.382 5.604h5.25c1.036 0 1.875 0.839 1.875 1.875s-0.839 1.875-1.875 1.875h-5.25c-1.036 0-1.875-0.839-1.875-1.875s0.839-1.875 1.875-1.875z"></path>
<path fill="#4289fe" style="fill: var(--color4, #4289fe)" d="M53.299 8.104v-1.286l0.466 0c0.091 0 0.172 0.016 0.242 0.048s0.126 0.077 0.166 0.136c0.040 0.059 0.060 0.13 0.060 0.212 0 0.085-0.019 0.157-0.055 0.216s-0.090 0.103-0.161 0.133c-0.070 0.030-0.155 0.045-0.255 0.045l-0.255-0v0.496l-0.206-0zM53.505 7.431l0.258 0c0.083 0 0.148-0.017 0.194-0.052s0.069-0.089 0.069-0.161c0-0.071-0.023-0.126-0.071-0.164s-0.111-0.057-0.19-0.057l-0.26-0v0.434zM54.437 8.104v-0.91l0.202 0v0.126c0.034-0.057 0.076-0.097 0.125-0.119s0.102-0.035 0.158-0.035c0.019 0 0.036 0.001 0.053 0.003s0.032 0.005 0.048 0.008l-0.027 0.209c-0.019-0.006-0.037-0.010-0.056-0.013s-0.038-0.005-0.057-0.005c-0.071 0-0.129 0.022-0.175 0.065s-0.069 0.101-0.069 0.175v0.495h-0.202zM55.587 8.132c-0.095 0-0.18-0.022-0.255-0.065s-0.132-0.103-0.175-0.175c-0.042-0.074-0.063-0.154-0.063-0.242 0-0.065 0.012-0.126 0.036-0.184s0.059-0.11 0.103-0.154c0.045-0.045 0.097-0.080 0.157-0.106s0.126-0.039 0.197-0.039c0.095 0 0.179 0.022 0.254 0.066s0.133 0.102 0.175 0.176c0.042 0.073 0.063 0.153 0.063 0.241 0 0.064-0.012 0.126-0.037 0.184s-0.058 0.11-0.102 0.154c-0.044 0.045-0.096 0.080-0.156 0.106s-0.126 0.039-0.199 0.039zM55.587 7.952c0.056 0 0.106-0.012 0.15-0.037s0.079-0.060 0.104-0.106c0.025-0.045 0.038-0.099 0.038-0.161s-0.013-0.115-0.038-0.161c-0.025-0.046-0.060-0.081-0.104-0.106s-0.093-0.037-0.15-0.037c-0.056 0-0.106 0.012-0.151 0.037s-0.078 0.060-0.103 0.106c-0.025 0.045-0.037 0.099-0.037 0.161s0.013 0.115 0.038 0.161c0.025 0.045 0.059 0.081 0.103 0.106s0.094 0.037 0.15 0.037zM56.364 8.104v-1.059c0-0.091 0.026-0.162 0.078-0.214s0.126-0.078 0.218-0.078c0.033 0 0.064 0.004 0.092 0.011s0.054 0.017 0.078 0.029l-0.038 0.16c-0.018-0.010-0.035-0.017-0.051-0.020s-0.033-0.006-0.049-0.006c-0.037 0-0.068 0.010-0.092 0.028s-0.035 0.051-0.035 0.097v0.141h0.239v0.167l-0.239-0v0.742l-0.201-0zM56.181 7.362v-0.167l0.209 0v0.167h-0.209zM56.988 8.104l0-0.91h0.202v0.91l-0.202-0zM57.089 7.032c-0.036-0-0.068-0.012-0.094-0.035s-0.039-0.054-0.039-0.092c0-0.037 0.013-0.068 0.039-0.091s0.057-0.036 0.094-0.036 0.068 0.012 0.094 0.036c0.026 0.023 0.039 0.054 0.039 0.091s-0.013 0.069-0.039 0.092c-0.026 0.023-0.058 0.035-0.094 0.035zM57.472 8.104l0-1.323h0.202v1.323h-0.202zM58.37 8.132c-0.098 0-0.184-0.020-0.258-0.060s-0.132-0.097-0.174-0.169c-0.041-0.072-0.062-0.156-0.062-0.252 0-0.070 0.012-0.134 0.036-0.193s0.058-0.111 0.101-0.154 0.094-0.077 0.153-0.101c0.059-0.024 0.123-0.036 0.192-0.036 0.075 0 0.142 0.013 0.201 0.040s0.108 0.063 0.146 0.111c0.039 0.048 0.067 0.104 0.083 0.168s0.019 0.133 0.008 0.208l-0.726-0c-0.001 0.055 0.011 0.102 0.036 0.143s0.061 0.072 0.108 0.095c0.047 0.023 0.102 0.034 0.166 0.034 0.051 0 0.101-0.008 0.149-0.023s0.092-0.039 0.131-0.070l0.078 0.145c-0.029 0.024-0.065 0.044-0.107 0.062s-0.085 0.029-0.13 0.038c-0.045 0.009-0.089 0.014-0.131 0.014zM58.082 7.546l0.516 0c-0.002-0.069-0.024-0.123-0.066-0.162s-0.101-0.059-0.178-0.059c-0.075 0-0.137 0.020-0.187 0.059s-0.077 0.093-0.085 0.162z"></path>
</symbol>
<symbol id="progress-end" viewBox="0 0 42 32">
<path fill="#e9eef4" style="fill: var(--color1, #e9eef4)" d="M2.253 4.115c0.961 0 1.739 0.779 1.739 1.739v6.261c0 0.96-0.779 1.739-1.739 1.739s-1.739-0.779-1.739-1.739v-6.261c0-0.96 0.779-1.739 1.739-1.739z"></path>
<path fill="#4289fe" style="fill: var(--color2, #4289fe)" d="M2.253 14.55c0.961 0 1.739 0.779 1.739 1.739v13.913c0 0.96-0.779 1.739-1.739 1.739s-1.739-0.779-1.739-1.739v-13.913c0-0.96 0.779-1.739 1.739-1.739z"></path>
<path fill="#e9eef4" style="fill: var(--color1, #e9eef4)" d="M8.514 0.637c0.96 0 1.739 0.779 1.739 1.739v0.696c0 0.96-0.779 1.739-1.739 1.739s-1.739-0.779-1.739-1.739v-0.696c0-0.961 0.779-1.739 1.739-1.739z"></path>
<path fill="#4289fe" style="fill: var(--color2, #4289fe)" d="M8.514 5.507c0.96 0 1.739 0.779 1.739 1.739v22.957c0 0.96-0.779 1.739-1.739 1.739s-1.739-0.779-1.739-1.739v-22.957c0-0.96 0.779-1.739 1.739-1.739z"></path>
<path fill="#e9eef4" style="fill: var(--color1, #e9eef4)" d="M14.775 5.507c0.96 0 1.739 0.779 1.739 1.739v1.391c0 0.96-0.779 1.739-1.739 1.739s-1.739-0.779-1.739-1.739v-1.391c0-0.96 0.779-1.739 1.739-1.739z"></path>
<path fill="#4289fe" style="fill: var(--color2, #4289fe)" d="M14.775 11.072c0.96 0 1.739 0.779 1.739 1.739v17.391c0 0.96-0.779 1.739-1.739 1.739s-1.739-0.779-1.739-1.739v-17.391c0-0.96 0.779-1.739 1.739-1.739z"></path>
<path fill="#e9eef4" style="fill: var(--color1, #e9eef4)" d="M21.036 10.376c0.96 0 1.739 0.779 1.739 1.739v3.478c0 0.96-0.779 1.739-1.739 1.739s-1.739-0.779-1.739-1.739v-3.478c0-0.96 0.779-1.739 1.739-1.739z"></path>
<path fill="#4289fe" style="fill: var(--color2, #4289fe)" d="M21.036 18.028c0.96 0 1.739 0.779 1.739 1.739v10.435c0 0.96-0.779 1.739-1.739 1.739s-1.739-0.779-1.739-1.739v-10.435c0-0.96 0.779-1.739 1.739-1.739z"></path>
<path fill="#e9eef4" style="fill: var(--color1, #e9eef4)" d="M27.297 0.637c0.96 0 1.739 0.779 1.739 1.739v0.696c0 0.96-0.779 1.739-1.739 1.739s-1.739-0.779-1.739-1.739v-0.696c0-0.961 0.779-1.739 1.739-1.739z"></path>
<path fill="#4289fe" style="fill: var(--color2, #4289fe)" d="M27.297 5.507c0.96 0 1.739 0.779 1.739 1.739v22.957c0 0.96-0.779 1.739-1.739 1.739s-1.739-0.779-1.739-1.739v-22.957c0-0.96 0.779-1.739 1.739-1.739z"></path>
<path fill="#e9eef4" style="fill: var(--color1, #e9eef4)" d="M33.557 5.507c0.961 0 1.739 0.779 1.739 1.739v0.696c0 0.961-0.779 1.739-1.739 1.739s-1.739-0.779-1.739-1.739v-0.696c0-0.96 0.779-1.739 1.739-1.739z"></path>
<path fill="#4289fe" style="fill: var(--color2, #4289fe)" d="M33.557 10.376c0.961 0 1.739 0.779 1.739 1.739v18.087c0 0.96-0.779 1.739-1.739 1.739s-1.739-0.779-1.739-1.739v-18.087c0-0.96 0.779-1.739 1.739-1.739z"></path>
<path fill="#e9eef4" style="fill: var(--color1, #e9eef4)" d="M39.818 0.637c0.961 0 1.739 0.779 1.739 1.739v11.826c0 0.96-0.779 1.739-1.739 1.739s-1.739-0.779-1.739-1.739v-11.826c0-0.961 0.779-1.739 1.739-1.739z"></path>
<path fill="#4289fe" style="fill: var(--color2, #4289fe)" d="M39.818 16.637c0.961 0 1.739 0.779 1.739 1.739v11.826c0 0.96-0.779 1.739-1.739 1.739s-1.739-0.779-1.739-1.739v-11.826c0-0.96 0.779-1.739 1.739-1.739z"></path>
</symbol>
<symbol id="progress-start" viewBox="0 0 42 32">
<path fill="#e9eef4" style="fill: var(--color1, #e9eef4)" d="M1.804 4.118c0.96 0 1.739 0.779 1.739 1.739v6.261c0 0.96-0.779 1.739-1.739 1.739s-1.739-0.779-1.739-1.739v-6.261c0-0.96 0.779-1.739 1.739-1.739z"></path>
<path fill="#4289fe" style="fill: var(--color2, #4289fe)" d="M1.804 14.553c0.96 0 1.739 0.779 1.739 1.739v13.913c0 0.96-0.779 1.739-1.739 1.739s-1.739-0.779-1.739-1.739v-13.913c0-0.96 0.779-1.739 1.739-1.739z"></path>
<path fill="#e9eef4" style="fill: var(--color1, #e9eef4)" d="M8.065 8.988c0.96 0 1.739 0.779 1.739 1.739v0.696c0 0.96-0.779 1.739-1.739 1.739s-1.739-0.779-1.739-1.739v-0.696c0-0.96 0.779-1.739 1.739-1.739z"></path>
<path fill="#4289fe" style="fill: var(--color2, #4289fe)" d="M8.065 13.857c0.96 0 1.739 0.779 1.739 1.739v14.609c0 0.96-0.779 1.739-1.739 1.739s-1.739-0.779-1.739-1.739v-14.609c0-0.96 0.779-1.739 1.739-1.739z"></path>
<path fill="#e9eef4" style="fill: var(--color1, #e9eef4)" d="M14.326 0.64c0.96 0 1.739 0.779 1.739 1.739v1.391c0 0.96-0.779 1.739-1.739 1.739s-1.739-0.779-1.739-1.739v-1.391c0-0.961 0.779-1.739 1.739-1.739z"></path>
<path fill="#4289fe" style="fill: var(--color2, #4289fe)" d="M14.326 6.205c0.96 0 1.739 0.779 1.739 1.739v22.261c0 0.96-0.779 1.739-1.739 1.739s-1.739-0.779-1.739-1.739v-22.261c0-0.96 0.779-1.739 1.739-1.739z"></path>
<path fill="#e9eef4" style="fill: var(--color1, #e9eef4)" d="M20.587 5.51c0.96 0 1.739 0.779 1.739 1.739v3.478c0 0.96-0.779 1.739-1.739 1.739s-1.739-0.779-1.739-1.739v-3.478c0-0.96 0.779-1.739 1.739-1.739z"></path>
<path fill="#4289fe" style="fill: var(--color2, #4289fe)" d="M20.587 13.162c0.96 0 1.739 0.779 1.739 1.739v15.304c0 0.96-0.779 1.739-1.739 1.739s-1.739-0.779-1.739-1.739v-15.304c0-0.96 0.779-1.739 1.739-1.739z"></path>
<path fill="#e9eef4" style="fill: var(--color1, #e9eef4)" d="M26.848 12.466c0.96 0 1.739 0.779 1.739 1.739v0.696c0 0.96-0.779 1.739-1.739 1.739s-1.739-0.779-1.739-1.739v-0.696c0-0.96 0.779-1.739 1.739-1.739z"></path>
<path fill="#4289fe" style="fill: var(--color2, #4289fe)" d="M26.848 17.336c0.96 0 1.739 0.779 1.739 1.739v11.13c0 0.96-0.779 1.739-1.739 1.739s-1.739-0.779-1.739-1.739v-11.13c0-0.96 0.779-1.739 1.739-1.739z"></path>
<path fill="#e9eef4" style="fill: var(--color1, #e9eef4)" d="M33.109 4.118c0.961 0 1.739 0.779 1.739 1.739v0.696c0 0.96-0.779 1.739-1.739 1.739s-1.739-0.779-1.739-1.739v-0.696c0-0.96 0.779-1.739 1.739-1.739z"></path>
<path fill="#4289fe" style="fill: var(--color2, #4289fe)" d="M33.109 8.988c0.961 0 1.739 0.779 1.739 1.739v19.478c0 0.96-0.779 1.739-1.739 1.739s-1.739-0.779-1.739-1.739v-19.478c0-0.96 0.779-1.739 1.739-1.739z"></path>
<path fill="#e9eef4" style="fill: var(--color1, #e9eef4)" d="M39.37 3.423c0.961 0 1.739 0.779 1.739 1.739v10.435c0 0.96-0.779 1.739-1.739 1.739s-1.739-0.779-1.739-1.739v-10.435c0-0.96 0.779-1.739 1.739-1.739z"></path>
<path fill="#4289fe" style="fill: var(--color2, #4289fe)" d="M39.37 18.031c0.961 0 1.739 0.779 1.739 1.739v10.435c0 0.96-0.779 1.739-1.739 1.739s-1.739-0.779-1.739-1.739v-10.435c0-0.96 0.779-1.739 1.739-1.739z"></path>
</symbol>
<symbol id="traffic" viewBox="0 0 53 32">
<path fill="#fff" style="fill: var(--color1, #fff)" d="M4.514 0h43.866c2.493 0 4.514 2.021 4.514 4.514v22.971c0 2.493-2.021 4.514-4.514 4.514h-43.866c-2.493 0-4.514-2.021-4.514-4.514v-22.971c0-2.493 2.021-4.514 4.514-4.514z"></path>
<path fill="#2f3037" style="fill: var(--color5, #2f3037)" d="M5.961 8.154v-2.124h-0.7v-0.364h1.799v0.364h-0.7v2.124h-0.398zM7.267 8.154v-1.76h0.391v0.244c0.066-0.11 0.147-0.187 0.242-0.231 0.095-0.045 0.197-0.068 0.306-0.068 0.036 0 0.069 0.002 0.101 0.005s0.063 0.009 0.092 0.016l-0.052 0.404c-0.036-0.011-0.072-0.019-0.108-0.025s-0.073-0.009-0.11-0.009c-0.136 0-0.249 0.042-0.338 0.126-0.089 0.083-0.133 0.196-0.133 0.34v0.958h-0.391zM9.435 8.207c-0.175 0-0.331-0.040-0.466-0.121-0.134-0.082-0.239-0.193-0.316-0.332-0.076-0.141-0.114-0.301-0.114-0.48 0-0.134 0.022-0.258 0.066-0.372s0.105-0.213 0.185-0.297c0.079-0.084 0.174-0.149 0.284-0.196s0.23-0.069 0.361-0.069c0.173 0 0.318 0.037 0.434 0.11 0.117 0.074 0.207 0.168 0.268 0.284l-0.055 0.084v-0.425h0.348v1.76h-0.348v-0.425l0.055 0.084c-0.062 0.116-0.151 0.211-0.268 0.284-0.116 0.073-0.261 0.11-0.434 0.11zM9.487 7.86c0.107 0 0.202-0.024 0.286-0.071 0.084-0.049 0.15-0.117 0.197-0.204 0.049-0.088 0.073-0.191 0.073-0.311s-0.024-0.223-0.073-0.311c-0.047-0.089-0.113-0.157-0.197-0.204s-0.18-0.071-0.286-0.071c-0.108 0-0.204 0.024-0.288 0.071-0.083 0.047-0.149 0.116-0.197 0.204-0.049 0.088-0.073 0.191-0.073 0.311s0.024 0.223 0.073 0.311c0.049 0.088 0.114 0.156 0.197 0.204 0.084 0.047 0.18 0.071 0.288 0.071zM11.147 8.154v-2.048c0-0.175 0.050-0.313 0.151-0.414 0.102-0.101 0.242-0.151 0.421-0.151 0.065 0 0.124 0.007 0.178 0.021 0.055 0.013 0.105 0.032 0.151 0.057l-0.073 0.309c-0.034-0.019-0.068-0.032-0.1-0.039s-0.063-0.011-0.094-0.011c-0.072 0-0.132 0.018-0.178 0.055-0.045 0.037-0.068 0.1-0.068 0.188v0.272h0.462v0.324h-0.462v1.436h-0.389zM10.794 6.717v-0.324h0.405v0.324h-0.405zM12.527 8.154v-2.048c0-0.175 0.050-0.313 0.151-0.414 0.102-0.101 0.242-0.151 0.421-0.151 0.065 0 0.124 0.007 0.178 0.021 0.055 0.013 0.105 0.032 0.151 0.057l-0.073 0.309c-0.034-0.019-0.068-0.032-0.1-0.039s-0.063-0.011-0.094-0.011c-0.072 0-0.132 0.018-0.178 0.055-0.045 0.037-0.068 0.1-0.068 0.188v0.272h0.462v0.324h-0.462v1.436h-0.389zM12.173 6.717v-0.324h0.405v0.324h-0.405zM13.732 8.154v-1.76h0.391v1.76h-0.391zM13.928 6.079c-0.070 0-0.13-0.022-0.181-0.068s-0.076-0.104-0.076-0.178c0-0.072 0.025-0.131 0.076-0.176 0.051-0.046 0.111-0.069 0.181-0.069s0.13 0.023 0.181 0.069c0.051 0.045 0.076 0.104 0.076 0.176 0 0.074-0.025 0.133-0.076 0.178s-0.111 0.068-0.181 0.068zM15.473 8.207c-0.185 0-0.35-0.040-0.494-0.121-0.145-0.082-0.258-0.193-0.341-0.332-0.082-0.141-0.123-0.301-0.123-0.48 0-0.135 0.024-0.259 0.073-0.372 0.049-0.114 0.117-0.213 0.206-0.297s0.193-0.149 0.313-0.196c0.121-0.046 0.252-0.069 0.393-0.069 0.118 0 0.228 0.016 0.329 0.048 0.102 0.031 0.196 0.079 0.281 0.144l-0.188 0.299c-0.055-0.049-0.117-0.085-0.188-0.108-0.070-0.024-0.145-0.036-0.224-0.036-0.123 0-0.229 0.023-0.318 0.069s-0.158 0.113-0.208 0.201c-0.049 0.087-0.073 0.191-0.073 0.315 0 0.184 0.053 0.328 0.16 0.432 0.108 0.104 0.254 0.156 0.439 0.156 0.088 0 0.171-0.016 0.249-0.048 0.078-0.033 0.143-0.076 0.196-0.13l0.187 0.297c-0.094 0.071-0.198 0.127-0.313 0.167s-0.233 0.060-0.354 0.060z"></path>
<path fill="#f9fafa" style="fill: var(--color8, #f9fafa)" d="M45.959 16c0 5.935-4.811 10.746-10.746 10.746s-10.746-4.811-10.746-10.746c0-5.935 4.811-10.746 10.746-10.746s10.746 4.811 10.746 10.746z"></path>
<path fill="#fff" style="fill: var(--color1, #fff); stroke: var(--color9, #e6e9eb)" stroke="#e6e9eb" stroke-linejoin="miter" stroke-linecap="butt" stroke-miterlimit="4" stroke-width="2.6563" d="M43.664 16c0 4.668-3.784 8.452-8.452 8.452s-8.452-3.784-8.452-8.452c0-4.668 3.784-8.452 8.452-8.452s8.452 3.784 8.452 8.452z"></path>
<path fill="none" stroke="#4289fe" style="stroke: var(--color4, #4289fe)" stroke-linejoin="bevel" stroke-linecap="butt" stroke-miterlimit="4" stroke-width="1.4489" d="M31.629 7.77c1.087-0.472 2.255-0.724 3.436-0.743 0.375-0.006 0.661 0.318 0.639 0.693v0c-0.022 0.375-0.344 0.657-0.72 0.669-0.968 0.029-1.923 0.241-2.814 0.629-1.1 0.478-2.072 1.208-2.837 2.131s-1.302 2.014-1.567 3.183c-0.265 1.169-0.251 2.385 0.040 3.548s0.854 2.241 1.64 3.147 1.774 1.613 2.885 2.066c1.11 0.453 2.312 0.637 3.507 0.539 0.969-0.080 1.911-0.343 2.778-0.775 0.336-0.167 0.754-0.070 0.95 0.25v0c0.197 0.32 0.098 0.741-0.236 0.913-1.050 0.541-2.199 0.87-3.38 0.967-1.408 0.116-2.823-0.102-4.131-0.635s-2.472-1.367-3.398-2.434c-0.926-1.067-1.588-2.337-1.931-3.707s-0.36-2.802-0.048-4.18c0.313-1.378 0.945-2.662 1.847-3.75s2.046-1.948 3.342-2.51z"></path>
<path fill="#4289fe" style="fill: var(--color4, #4289fe)" d="M32.594 17.006l0.807-1.639h-0.912v-0.327h1.318v0.265l-0.825 1.701h-0.388zM34.861 17.048c-0.128 0-0.243-0.027-0.344-0.080s-0.187-0.127-0.257-0.222c-0.069-0.095-0.123-0.204-0.16-0.327-0.037-0.124-0.055-0.256-0.055-0.396s0.018-0.274 0.055-0.398c0.038-0.124 0.091-0.232 0.16-0.326s0.156-0.169 0.257-0.222 0.216-0.080 0.344-0.080c0.129 0 0.243 0.027 0.343 0.080s0.187 0.127 0.257 0.222c0.070 0.094 0.124 0.202 0.16 0.326s0.056 0.256 0.056 0.398c0 0.14-0.019 0.273-0.056 0.396s-0.090 0.233-0.16 0.327c-0.070 0.095-0.156 0.169-0.257 0.222s-0.214 0.080-0.343 0.080zM34.861 16.729c0.070 0 0.134-0.016 0.19-0.048 0.057-0.032 0.106-0.078 0.146-0.139 0.041-0.061 0.073-0.135 0.094-0.222s0.034-0.186 0.034-0.298c0-0.149-0.019-0.276-0.058-0.381s-0.093-0.186-0.163-0.242c-0.069-0.056-0.15-0.084-0.243-0.084-0.069 0-0.132 0.016-0.189 0.048s-0.105 0.078-0.146 0.139c-0.041 0.060-0.073 0.134-0.096 0.222-0.022 0.087-0.032 0.186-0.032 0.298 0 0.148 0.019 0.275 0.058 0.381 0.039 0.105 0.093 0.185 0.163 0.242s0.15 0.084 0.243 0.084zM36.823 17.055l-0.194-0.115 1.092-1.95 0.194 0.108-1.092 1.957zM36.456 16.081c-0.101 0-0.194-0.024-0.277-0.072s-0.149-0.112-0.198-0.194c-0.049-0.081-0.073-0.172-0.073-0.271s0.024-0.189 0.073-0.27c0.050-0.081 0.116-0.145 0.198-0.192s0.175-0.072 0.277-0.072c0.102 0 0.194 0.024 0.275 0.072s0.148 0.112 0.197 0.192 0.073 0.17 0.073 0.27c0 0.099-0.024 0.19-0.073 0.271s-0.114 0.145-0.197 0.194c-0.082 0.048-0.173 0.072-0.275 0.072zM36.456 15.841c0.058 0 0.109-0.013 0.153-0.038 0.045-0.025 0.080-0.060 0.104-0.104s0.038-0.096 0.038-0.155c0-0.087-0.027-0.158-0.082-0.212s-0.125-0.082-0.213-0.082c-0.058 0-0.11 0.013-0.155 0.038-0.044 0.024-0.079 0.059-0.104 0.103s-0.038 0.095-0.038 0.153c0 0.087 0.028 0.158 0.083 0.214s0.126 0.083 0.214 0.083zM38.090 17.034c-0.101 0-0.194-0.024-0.277-0.072s-0.148-0.113-0.198-0.194c-0.049-0.081-0.073-0.172-0.073-0.271s0.024-0.189 0.073-0.27c0.050-0.081 0.116-0.145 0.198-0.192 0.083-0.048 0.175-0.072 0.277-0.072s0.194 0.024 0.275 0.072c0.082 0.048 0.148 0.112 0.197 0.192s0.073 0.17 0.073 0.27-0.024 0.19-0.073 0.271c-0.048 0.081-0.114 0.145-0.197 0.194s-0.173 0.072-0.275 0.072zM38.090 16.793c0.058 0 0.109-0.013 0.153-0.038s0.080-0.060 0.104-0.104c0.025-0.045 0.038-0.096 0.038-0.154 0-0.087-0.027-0.158-0.081-0.212s-0.126-0.081-0.214-0.081c-0.058 0-0.11 0.013-0.155 0.038-0.044 0.024-0.078 0.059-0.104 0.103s-0.038 0.095-0.038 0.153c0 0.086 0.027 0.157 0.083 0.214s0.126 0.083 0.214 0.083z"></path>
<path fill="#4289fe" style="fill: var(--color4, #4289fe)" d="M6.192 14.192c-0.087 0-0.173-0.009-0.257-0.028s-0.161-0.044-0.232-0.075c-0.069-0.032-0.126-0.069-0.169-0.11l0.122-0.308c0.060 0.059 0.136 0.106 0.23 0.141s0.188 0.053 0.282 0.053c0.086 0 0.161-0.014 0.224-0.043s0.112-0.070 0.147-0.122c0.035-0.052 0.053-0.112 0.053-0.182 0-0.109-0.040-0.193-0.119-0.252s-0.182-0.089-0.311-0.089c-0.037 0-0.076 0.002-0.117 0.007s-0.083 0.013-0.125 0.023l-0.107-0.245 0.607-0.553h-0.867v-0.315h1.31v0.29l-0.574 0.556c0.115 0.001 0.223 0.024 0.324 0.069s0.184 0.111 0.246 0.2 0.094 0.2 0.094 0.333c0 0.128-0.033 0.241-0.098 0.339s-0.154 0.173-0.269 0.229c-0.114 0.055-0.246 0.082-0.396 0.082zM7.904 14.192c-0.128 0-0.251-0.018-0.368-0.054s-0.214-0.088-0.29-0.151l0.117-0.304c0.066 0.061 0.146 0.106 0.239 0.136s0.187 0.046 0.282 0.046c0.090 0 0.167-0.014 0.232-0.043s0.116-0.070 0.151-0.125 0.053-0.121 0.053-0.2c0-0.071-0.019-0.133-0.056-0.183s-0.087-0.090-0.153-0.117-0.141-0.041-0.227-0.041c-0.054 0-0.111 0.006-0.17 0.019s-0.119 0.033-0.18 0.060l-0.157-0.17 0.107-0.968h1.149v0.33h-0.882l-0.057 0.477c0.046-0.015 0.092-0.025 0.138-0.032s0.091-0.012 0.136-0.012c0.138 0 0.261 0.026 0.368 0.078s0.192 0.127 0.254 0.224c0.062 0.097 0.092 0.214 0.092 0.351s-0.033 0.256-0.098 0.358c-0.065 0.102-0.155 0.181-0.273 0.238s-0.252 0.084-0.406 0.084zM9.902 14.148v-0.409h-1.006v-0.28l0.707-1.364h0.383l-0.694 1.332h0.61v-0.437h0.323v0.437h0.305v0.313h-0.305v0.409h-0.323zM10.827 14.619l-0.123-0.167c0.077-0.035 0.146-0.079 0.205-0.131s0.101-0.103 0.125-0.153c-0.049 0.003-0.093-0.004-0.133-0.022s-0.072-0.044-0.097-0.078c-0.024-0.034-0.035-0.074-0.035-0.12 0-0.070 0.023-0.127 0.068-0.17s0.105-0.066 0.176-0.066c0.080 0 0.145 0.027 0.195 0.081s0.075 0.125 0.075 0.217c0 0.071-0.017 0.142-0.051 0.213s-0.084 0.14-0.151 0.207-0.152 0.13-0.252 0.189zM11.786 14.148v-1.648l-0.509 0.185-0.1-0.296 0.935-0.339h0.026v2.098h-0.352zM12.621 14.148v-0.263l0.442-0.402c0.139-0.127 0.25-0.235 0.333-0.323s0.143-0.169 0.179-0.239c0.036-0.071 0.054-0.143 0.054-0.214 0-0.106-0.036-0.187-0.107-0.245s-0.17-0.088-0.299-0.088c-0.090 0-0.177 0.016-0.26 0.048s-0.154 0.080-0.216 0.144l-0.135-0.277c0.087-0.077 0.187-0.136 0.299-0.178s0.229-0.062 0.351-0.062c0.146 0 0.272 0.025 0.38 0.076s0.193 0.123 0.252 0.216c0.060 0.092 0.089 0.2 0.089 0.324 0 0.084-0.017 0.168-0.050 0.251s-0.093 0.177-0.179 0.28c-0.085 0.104-0.206 0.229-0.362 0.376l-0.277 0.257h0.921v0.318h-1.416zM15.195 14.192c-0.134 0-0.254-0.028-0.359-0.084s-0.195-0.133-0.268-0.232c-0.072-0.099-0.128-0.213-0.167-0.342s-0.057-0.267-0.057-0.414c0-0.148 0.019-0.286 0.057-0.415s0.095-0.243 0.167-0.34c0.073-0.099 0.163-0.176 0.268-0.232s0.225-0.084 0.359-0.084c0.134 0 0.253 0.028 0.358 0.084s0.195 0.133 0.268 0.232c0.073 0.098 0.129 0.211 0.167 0.34 0.039 0.129 0.059 0.268 0.059 0.415s-0.020 0.285-0.059 0.414c-0.038 0.129-0.094 0.243-0.167 0.342s-0.163 0.176-0.268 0.232c-0.105 0.056-0.224 0.084-0.358 0.084zM15.195 13.859c0.073 0 0.139-0.017 0.198-0.050s0.111-0.082 0.153-0.145c0.043-0.064 0.076-0.141 0.098-0.232 0.024-0.091 0.035-0.195 0.035-0.311 0-0.155-0.020-0.288-0.060-0.398s-0.097-0.195-0.17-0.252c-0.072-0.059-0.157-0.088-0.254-0.088-0.072 0-0.138 0.017-0.198 0.050s-0.11 0.082-0.153 0.145c-0.043 0.063-0.076 0.14-0.1 0.232s-0.034 0.195-0.034 0.311c0 0.155 0.020 0.287 0.060 0.398s0.098 0.194 0.17 0.252 0.157 0.088 0.254 0.088z"></path>
<path fill="#f4f6f9" style="fill: var(--color6, #f4f6f9)" d="M7.596 21.884h7.293c1.343 0 2.431 1.088 2.431 2.431v0c0 1.343-1.088 2.431-2.431 2.431h-7.293c-1.343 0-2.431-1.088-2.431-2.431v0c0-1.343 1.088-2.431 2.431-2.431z"></path>
<path fill="#4289fe" style="fill: var(--color4, #4289fe)" d="M7.376 25.031v-0.195l0.368-0.337c0.117-0.107 0.211-0.199 0.282-0.276s0.123-0.148 0.156-0.21 0.049-0.126 0.049-0.19c0-0.093-0.032-0.166-0.096-0.218s-0.152-0.079-0.265-0.079c-0.075 0-0.147 0.013-0.216 0.039s-0.128 0.064-0.176 0.113l-0.1-0.198c0.069-0.062 0.148-0.108 0.238-0.14s0.184-0.049 0.283-0.049c0.117 0 0.22 0.021 0.308 0.063s0.157 0.1 0.205 0.176c0.049 0.075 0.074 0.164 0.074 0.265 0 0.070-0.014 0.141-0.043 0.212s-0.077 0.148-0.149 0.236c-0.071 0.088-0.173 0.192-0.304 0.315l-0.261 0.241h0.8v0.231h-1.152zM8.843 25.398l-0.094-0.124c0.061-0.029 0.114-0.064 0.16-0.106s0.079-0.081 0.096-0.12c-0.037 0.002-0.071-0.003-0.101-0.017s-0.054-0.032-0.072-0.057c-0.018-0.026-0.027-0.056-0.027-0.091 0-0.052 0.017-0.094 0.051-0.126s0.079-0.050 0.131-0.050c0.061 0 0.109 0.020 0.146 0.061s0.056 0.094 0.056 0.164c0 0.053-0.013 0.107-0.039 0.162s-0.065 0.108-0.117 0.159c-0.051 0.052-0.115 0.101-0.192 0.146zM10.008 25.068c-0.105 0-0.205-0.015-0.301-0.045s-0.175-0.070-0.237-0.12l0.088-0.221c0.056 0.049 0.123 0.086 0.201 0.112s0.156 0.038 0.236 0.038 0.148-0.013 0.207-0.039c0.058-0.027 0.103-0.065 0.135-0.114s0.047-0.109 0.047-0.18c0-0.065-0.017-0.12-0.050-0.167s-0.079-0.083-0.139-0.108c-0.058-0.025-0.125-0.038-0.199-0.038-0.048 0-0.097 0.006-0.148 0.017s-0.103 0.029-0.157 0.052l-0.112-0.12 0.088-0.802 0.938-0.001v0.238h-0.745l-0.051 0.444c0.042-0.014 0.084-0.024 0.125-0.032s0.084-0.011 0.125-0.011c0.112 0 0.212 0.021 0.3 0.064s0.158 0.103 0.209 0.184c0.052 0.080 0.078 0.176 0.078 0.288 0 0.113-0.027 0.212-0.081 0.297s-0.128 0.149-0.224 0.196-0.206 0.069-0.332 0.069zM11.642 25.073l-0.149-0.089 0.948-1.696 0.15 0.083-0.948 1.702zM11.343 24.216c-0.086 0-0.164-0.020-0.235-0.061s-0.127-0.096-0.169-0.165c-0.041-0.069-0.062-0.146-0.062-0.231 0-0.083 0.021-0.16 0.062-0.229s0.098-0.124 0.169-0.164 0.149-0.061 0.235-0.061c0.087 0 0.165 0.020 0.235 0.061s0.125 0.095 0.167 0.164c0.042 0.069 0.063 0.145 0.063 0.229s-0.021 0.161-0.063 0.231c-0.041 0.069-0.097 0.124-0.167 0.165s-0.148 0.061-0.235 0.061zM11.343 24.031c0.054 0 0.102-0.011 0.142-0.034s0.072-0.056 0.095-0.096c0.023-0.041 0.034-0.089 0.034-0.142 0-0.080-0.025-0.145-0.074-0.195s-0.115-0.074-0.197-0.074c-0.053 0-0.101 0.012-0.142 0.035s-0.073 0.054-0.096 0.095c-0.023 0.040-0.034 0.086-0.034 0.139 0 0.080 0.025 0.146 0.075 0.197s0.117 0.075 0.197 0.075zM12.742 25.055c-0.087 0-0.165-0.020-0.236-0.061s-0.126-0.096-0.168-0.165c-0.042-0.070-0.063-0.147-0.063-0.231s0.021-0.16 0.063-0.229 0.098-0.124 0.168-0.164c0.070-0.041 0.149-0.061 0.236-0.061s0.164 0.020 0.233 0.061c0.070 0.041 0.126 0.095 0.168 0.164s0.062 0.145 0.062 0.229c0 0.084-0.021 0.161-0.062 0.231s-0.097 0.124-0.168 0.165c-0.070 0.041-0.147 0.061-0.233 0.061zM12.742 24.871c0.053 0 0.101-0.011 0.141-0.034s0.073-0.056 0.096-0.096c0.023-0.041 0.034-0.089 0.034-0.142 0-0.080-0.025-0.145-0.075-0.195s-0.115-0.074-0.196-0.074c-0.054 0-0.102 0.011-0.143 0.034s-0.073 0.054-0.096 0.095c-0.023 0.041-0.034 0.087-0.034 0.14 0 0.079 0.025 0.145 0.075 0.196s0.117 0.077 0.198 0.077z"></path>
<path fill="#4289fe" style="fill: var(--color4, #4289fe)" d="M14.448 24.131c0.029-0.043 0.092-0.043 0.121 0l0.6 0.89c0.033 0.048-0.002 0.114-0.060 0.114h-1.2c-0.058 0-0.093-0.065-0.060-0.114l0.6-0.89z"></path>
</symbol>
<symbol id="box" viewBox="0 0 32 32">
<path fill="none" stroke="#fff" style="stroke: var(--color1, #fff)" stroke-linejoin="round" stroke-linecap="round" stroke-miterlimit="4" stroke-width="1.9997" d="M5.792 11.309v11.329c0 1.442 0 2.162 0.281 2.713 0.247 0.485 0.64 0.879 1.125 1.126 0.55 0.28 1.271 0.28 2.71 0.28h12.367c1.439 0 2.159 0 2.709-0.28 0.484-0.247 0.879-0.641 1.126-1.126 0.28-0.55 0.28-1.27 0.28-2.709v-11.333M5.792 11.309h20.598M5.792 11.309l1.757-3.076c0.431-0.755 0.647-1.132 0.95-1.407 0.269-0.243 0.586-0.427 0.931-0.54 0.389-0.127 0.824-0.127 1.695-0.127h9.931c0.871 0 1.307 0 1.696 0.127 0.345 0.112 0.661 0.297 0.929 0.54 0.304 0.275 0.52 0.653 0.952 1.409l1.756 3.074M9.87 16.579h3.862"></path>
</symbol>
<symbol id="present" viewBox="0 0 32 32">
<path fill="none" stroke="#fff" style="stroke: var(--color1, #fff)" stroke-linejoin="round" stroke-linecap="round" stroke-miterlimit="4" stroke-width="1.9972" d="M15.548 8.083v3.218M15.548 8.083c0-1.777 1.441-3.218 3.218-3.218s3.218 1.441 3.218 3.218c0 1.777-1.441 3.218-3.218 3.218M15.548 8.083c0-1.777-1.441-3.218-3.218-3.218s-3.218 1.441-3.218 3.218 1.441 3.218 3.218 3.218M15.548 11.302h3.218M15.548 11.302h-3.218M15.548 11.302v7.724M18.767 11.302h4.248c1.442 0 2.162 0 2.713 0.281 0.485 0.247 0.879 0.64 1.126 1.125 0.28 0.55 0.28 1.271 0.28 2.71v3.608M12.33 11.302h-4.248c-1.442 0-2.163 0-2.714 0.281-0.484 0.247-0.878 0.64-1.125 1.125-0.281 0.551-0.281 1.272-0.281 2.714v3.604M3.962 19.026v3.605c0 1.442 0 2.163 0.281 2.713 0.247 0.485 0.64 0.879 1.125 1.126 0.55 0.28 1.271 0.28 2.71 0.28h7.471M3.962 19.026h11.586M15.548 19.026v7.724M15.548 19.026h11.586M15.548 26.75h7.471c1.439 0 2.159 0 2.709-0.28 0.485-0.247 0.879-0.641 1.126-1.126 0.28-0.55 0.28-1.27 0.28-2.709v-3.609"></path>
</symbol>
</defs>
</svg>
