<svg width="80" height="80" viewBox="0 0 80 80" fill="none" xmlns="http://www.w3.org/2000/svg">
<g filter="url(#filter0_b_2103_2476)">
<rect x="13.0928" y="0.551422" width="67.6177" height="67.6177" rx="21.0027" transform="rotate(10.7333 13.0928 0.551422)" fill="white"/>
<mask id="mask0_2103_2476" style="mask-type:alpha" maskUnits="userSpaceOnUse" x="25" y="25" width="30" height="30">
<rect x="29.9795" y="25.3372" width="25.2032" height="25.2032" transform="rotate(10.7333 29.9795 25.3372)" fill="#D9D9D9"/>
</mask>
<g mask="url(#mask0_2103_2476)">
<path d="M31.3685 40.5642C31.7368 38.621 32.6665 36.8644 34.1576 35.2944C35.6488 33.7244 37.5274 32.4595 39.7936 31.4996C40.2208 31.3133 40.6145 31.3746 40.9746 31.6833C41.3347 31.9921 41.4707 32.3786 41.3827 32.8429L41.1285 34.1842C41.0177 34.7689 41.1268 35.2972 41.4559 35.7694C41.7851 36.2415 42.242 36.5329 42.8267 36.6438C43.119 36.6992 43.4106 36.6876 43.7016 36.6092C43.9926 36.5308 44.2641 36.3907 44.5161 36.1891C44.6863 36.0432 44.8829 35.9691 45.106 35.9669C45.3291 35.9646 45.5222 36.0502 45.6853 36.2237C46.6219 37.2028 47.2857 38.353 47.6766 39.674C48.0675 40.9951 48.1342 42.3349 47.8767 43.6934C47.5898 45.2066 46.9585 46.5165 45.9828 47.6231C45.007 48.7296 43.8488 49.5299 42.5082 50.024C42.8788 49.6667 43.1922 49.2585 43.4484 48.7994C43.7047 48.3402 43.885 47.8356 43.9893 47.2853C44.1197 46.5974 44.1138 45.9238 43.9715 45.2645C43.8293 44.6051 43.5631 43.9891 43.1729 43.4163L40.1897 39.1367L35.8731 42.0326C35.2799 42.4368 34.7973 42.9153 34.4253 43.4683C34.0533 44.0213 33.8021 44.6417 33.6717 45.3295C33.5674 45.8798 33.5504 46.4155 33.6209 46.9365C33.6914 47.4576 33.8337 47.9522 34.0478 48.4203C32.9809 47.4699 32.196 46.3012 31.6929 44.9144C31.1897 43.5275 31.0816 42.0774 31.3685 40.5642ZM39.6421 42.0256L41.4288 44.5821C41.6657 44.9298 41.8273 45.2989 41.9136 45.6894C42 46.0798 42.004 46.4814 41.9258 46.8941C41.7661 47.7367 41.329 48.3976 40.6147 48.8768C39.9004 49.356 39.1133 49.5141 38.2535 49.3511C37.3937 49.1881 36.7191 48.753 36.2297 48.0456C35.7403 47.3383 35.5755 46.5633 35.7352 45.7207C35.8102 45.3252 35.9601 44.9572 36.1849 44.6168C36.4098 44.2765 36.6961 43.9878 37.0438 43.7509L39.6421 42.0256Z" fill="#E7EFF6"/>
</g>
</g>
<defs>
<filter id="filter0_b_2103_2476" x="-5.20919" y="-5.15777" width="90.4457" height="90.446" filterUnits="userSpaceOnUse" color-interpolation-filters="sRGB">
<feFlood flood-opacity="0" result="BackgroundImageFix"/>
<feGaussianBlur in="BackgroundImageFix" stdDeviation="2.8546"/>
<feComposite in2="SourceAlpha" operator="in" result="effect1_backgroundBlur_2103_2476"/>
<feBlend mode="normal" in="SourceGraphic" in2="effect1_backgroundBlur_2103_2476" result="shape"/>
</filter>
</defs>
</svg>
