<svg width="125" height="125" viewBox="0 0 125 125" fill="none" xmlns="http://www.w3.org/2000/svg">
<g filter="url(#filter0_b_2103_2473)">
<rect x="0.5" y="52.9428" width="88.8142" height="88.8142" rx="34.4809" transform="rotate(-36.1909 0.5 52.9428)" fill="white"/>
<mask id="mask0_2103_2473" style="mask-type:alpha" maskUnits="userSpaceOnUse" x="33" y="33" width="59" height="59">
<rect x="33.6475" y="58.0797" width="41.3771" height="41.3771" transform="rotate(-36.1909 33.6475 58.0797)" fill="#D9D9D9"/>
</mask>
<g mask="url(#mask0_2103_2473)">
<path d="M53.465 73.4872C51.5477 70.8668 50.4837 67.7823 50.2728 64.2337C50.062 60.6852 50.6515 57.0139 52.0413 53.22C52.297 52.4989 52.8118 52.0955 53.5859 52.0098C54.3599 51.9242 54.9759 52.1944 55.434 52.8206L56.7575 54.6294C57.3343 55.4178 58.0904 55.8794 59.0256 56.014C59.9608 56.1487 60.8226 55.9276 61.6111 55.3507C62.0053 55.0623 62.3185 54.6996 62.5507 54.2627C62.7829 53.8258 62.9194 53.3432 62.9601 52.8149C62.976 52.4473 63.1076 52.1284 63.3551 51.8584C63.6025 51.5883 63.9217 51.4527 64.3125 51.4516C66.537 51.4263 68.6605 51.9198 70.683 52.9323C72.7055 53.9448 74.387 55.3671 75.7273 57.1991C77.2204 59.2398 78.0834 61.4656 78.3163 63.8764C78.5493 66.2873 78.2104 68.5735 77.2997 70.7352C77.2867 69.8902 77.1486 69.0566 76.8854 68.2345C76.6221 67.4124 76.219 66.6303 75.6761 65.8883C74.9974 64.9607 74.183 64.2125 73.2328 63.6437C72.2826 63.075 71.2454 62.7035 70.121 62.5293L61.6439 61.3081L60.2768 69.7317C60.0963 70.8962 60.1291 72.0116 60.3751 73.0777C60.6211 74.1439 61.0834 75.1408 61.7621 76.0684C62.305 76.8104 62.9284 77.4313 63.6323 77.9311C64.3361 78.4308 65.0888 78.8147 65.8902 79.0829C63.5543 79.2966 61.2727 78.9276 59.0455 77.9759C56.8182 77.0242 54.958 75.5279 53.465 73.4872ZM64.4943 65.204L69.5634 65.9279C70.2461 66.0337 70.8699 66.2537 71.435 66.588C72 66.9223 72.4861 67.3677 72.8933 67.9243C73.7247 69.0606 74.0272 70.3257 73.8009 71.7196C73.5746 73.1135 72.8817 74.2346 71.7222 75.0829C70.5627 75.9313 69.2845 76.2523 67.8875 76.0461C66.4905 75.8399 65.3763 75.1686 64.5449 74.0323C64.1547 73.499 63.8815 72.9066 63.7254 72.2554C63.5693 71.6041 63.5442 70.9371 63.65 70.2544L64.4943 65.204Z" fill="#E2EBF4" fill-opacity="0.8"/>
</g>
</g>
<defs>
<filter id="filter0_b_2103_2473" x="-8.87299" y="-8.87299" width="142.867" height="142.867" filterUnits="userSpaceOnUse" color-interpolation-filters="sRGB">
<feFlood flood-opacity="0" result="BackgroundImageFix"/>
<feGaussianBlur in="BackgroundImageFix" stdDeviation="4.6865"/>
<feComposite in2="SourceAlpha" operator="in" result="effect1_backgroundBlur_2103_2473"/>
<feBlend mode="normal" in="SourceGraphic" in2="effect1_backgroundBlur_2103_2473" result="shape"/>
</filter>
</defs>
</svg>
