<svg width="125" height="125" viewBox="0 0 125 125" fill="none" xmlns="http://www.w3.org/2000/svg">
<g filter="url(#filter0_b_2103_2474)">
<rect x="44.7773" y="0.5" width="90.9846" height="90.9846" rx="35.3235" transform="rotate(29.1205 44.7773 0.5)" fill="white"/>
<mask id="mask0_2103_2474" style="mask-type:alpha" maskUnits="userSpaceOnUse" x="33" y="33" width="59" height="59">
<rect x="54.1797" y="33.5514" width="42.3883" height="42.3883" transform="rotate(29.1205 54.1797 33.5514)" fill="#D9D9D9"/>
</mask>
<g mask="url(#mask0_2103_2474)">
<path d="M48.3183 58.5905C49.937 55.6847 52.3528 53.3744 55.5655 51.6598C58.7783 49.9452 62.4477 48.923 66.5738 48.5932C67.3544 48.5226 67.9502 48.8292 68.3611 49.513C68.772 50.1968 68.7841 50.8859 68.3973 51.5802L67.2799 53.586C66.7929 54.4603 66.6868 55.3615 66.9616 56.2896C67.2365 57.2177 67.811 57.9253 68.6854 58.4124C69.1225 58.6559 69.5941 58.7922 70.1001 58.8214C70.6062 58.8506 71.1138 58.7711 71.6229 58.583C71.9719 58.4404 72.325 58.4266 72.6822 58.5413C73.0395 58.6561 73.3023 58.8951 73.4705 59.2584C74.446 61.3181 74.8952 63.5059 74.8182 65.8216C74.7412 68.1374 74.1369 70.3111 73.0052 72.3426C71.7446 74.6056 70.0421 76.3613 67.8978 77.6096C65.7534 78.858 63.4804 79.5209 61.0786 79.5982C61.8596 79.2245 62.5764 78.7393 63.2289 78.1425C63.8815 77.5457 64.437 76.8359 64.8954 76.013C65.4684 74.9843 65.8163 73.9061 65.9391 72.7784C66.0619 71.6506 65.9639 70.5261 65.6449 69.405L63.1543 60.9921L54.7287 63.324C53.5675 63.6543 52.5434 64.1621 51.6563 64.8472C50.7692 65.5324 50.0391 66.3893 49.4661 67.4179C49.0077 68.2408 48.6965 69.0867 48.5325 69.9557C48.3686 70.8247 48.3333 71.6895 48.4266 72.5502C47.2282 70.4674 46.5954 68.1858 46.5282 65.7055C46.461 63.2251 47.0577 60.8535 48.3183 58.5905ZM60.7477 65.3123L62.2429 70.3403C62.4366 71.021 62.4987 71.6958 62.4293 72.3648C62.3599 73.0337 62.1533 73.6768 61.8095 74.2939C61.1076 75.554 60.0595 76.3769 58.6652 76.7627C57.271 77.1486 55.931 76.9833 54.6452 76.2671C53.3594 75.5508 52.5136 74.4984 52.1078 73.1098C51.702 71.7213 51.85 70.397 52.552 69.1369C52.8814 68.5455 53.3159 68.0377 53.8553 67.6138C54.3947 67.1898 55.0048 66.881 55.6855 66.6874L60.7477 65.3123Z" fill="#E7EFF6"/>
</g>
</g>
<defs>
<filter id="filter0_b_2103_2474" x="-9.10204" y="-9.10204" width="142.965" height="142.966" filterUnits="userSpaceOnUse" color-interpolation-filters="sRGB">
<feFlood flood-opacity="0" result="BackgroundImageFix"/>
<feGaussianBlur in="BackgroundImageFix" stdDeviation="4.80102"/>
<feComposite in2="SourceAlpha" operator="in" result="effect1_backgroundBlur_2103_2474"/>
<feBlend mode="normal" in="SourceGraphic" in2="effect1_backgroundBlur_2103_2474" result="shape"/>
</filter>
</defs>
</svg>
