<svg width="73" height="72" viewBox="0 0 73 72" fill="none" xmlns="http://www.w3.org/2000/svg">
<g filter="url(#filter0_b_2103_2472)">
<rect width="54.0977" height="54.0977" rx="21.0027" transform="matrix(-0.911075 -0.412241 -0.412241 0.911075 72.0884 22.5143)" fill="white"/>
<mask id="mask0_2103_2472" style="mask-type:alpha" maskUnits="userSpaceOnUse" x="19" y="19" width="34" height="34">
<rect width="25.2032" height="25.2032" transform="matrix(-0.911075 -0.412241 -0.412241 0.911075 52.9702 29.721)" fill="#D9D9D9"/>
</mask>
<g mask="url(#mask0_2103_2472)">
<path d="M43.0826 41.384C43.8979 39.5821 44.1466 37.6102 43.8286 35.4685C43.5106 33.3267 42.7002 31.2118 41.3973 29.1238C41.1547 28.7259 40.7973 28.5498 40.3252 28.5955C39.8531 28.6412 39.5196 28.8794 39.3248 29.3099L38.762 30.5537C38.5167 31.0958 38.1237 31.4655 37.583 31.6627C37.0423 31.8599 36.5009 31.8359 35.9588 31.5906C35.6877 31.4679 35.4556 31.2909 35.2626 31.0594C35.0695 30.828 34.9278 30.5574 34.8375 30.2475C34.7821 30.0304 34.6637 29.8567 34.4824 29.7267C34.3012 29.5966 34.094 29.5557 33.8608 29.6039C32.5316 29.8669 31.3274 30.4267 30.2483 31.2831C29.1691 32.1396 28.3446 33.1977 27.7746 34.4574C27.1397 35.8606 26.9035 37.2954 27.066 38.7617C27.2286 40.2281 27.7165 41.5486 28.5297 42.7234C28.4318 42.2181 28.4099 41.7039 28.464 41.1809C28.5182 40.6579 28.6607 40.1412 28.8916 39.631C29.1802 38.9931 29.5721 38.4453 30.0675 37.9875C30.5628 37.5296 31.1347 37.1784 31.7832 36.934L36.684 35.1461L38.5522 39.9968C38.8054 40.6685 38.9253 41.3375 38.912 42.0038C38.8987 42.6702 38.7477 43.3222 38.4591 43.9601C38.2282 44.4703 37.9342 44.9184 37.5771 45.3043C37.22 45.6903 36.8193 46.0132 36.375 46.2733C37.7943 46.1086 39.1083 45.6034 40.3171 44.7575C41.5258 43.9117 42.4477 42.7872 43.0826 41.384ZM35.4719 37.825L32.5405 38.8903C32.1468 39.0388 31.8024 39.2479 31.5074 39.5179C31.2123 39.7878 30.9782 40.1141 30.8051 40.4968C30.4515 41.2781 30.4293 42.0701 30.7385 42.8728C31.0477 43.6755 31.6009 44.2572 32.3982 44.6179C33.1955 44.9787 33.9977 45.0103 34.8047 44.7127C35.6117 44.4151 36.192 43.8756 36.5456 43.0943C36.7115 42.7275 36.8003 42.3402 36.8119 41.9325C36.8235 41.5247 36.7551 41.1239 36.6067 40.7302L35.4719 37.825Z" fill="#E7EFF6"/>
</g>
</g>
<defs>
<filter id="filter0_b_2103_2472" x="-5.20919" y="-5.49621" width="83.0068" height="83.0067" filterUnits="userSpaceOnUse" color-interpolation-filters="sRGB">
<feFlood flood-opacity="0" result="BackgroundImageFix"/>
<feGaussianBlur in="BackgroundImageFix" stdDeviation="2.8546"/>
<feComposite in2="SourceAlpha" operator="in" result="effect1_backgroundBlur_2103_2472"/>
<feBlend mode="normal" in="SourceGraphic" in2="effect1_backgroundBlur_2103_2472" result="shape"/>
</filter>
</defs>
</svg>
