<svg width="81" height="80" viewBox="0 0 81 80" fill="none" xmlns="http://www.w3.org/2000/svg">
<g filter="url(#filter0_b_2102_2468)">
<rect width="67.6177" height="67.6177" rx="21.0027" transform="matrix(-0.982505 0.186237 0.186237 0.982505 67.4209 0.635544)" fill="white"/>
<mask id="mask0_2102_2468" style="mask-type:alpha" maskUnits="userSpaceOnUse" x="25" y="25" width="31" height="30">
<rect width="25.2032" height="25.2032" transform="matrix(-0.982505 0.186237 0.186237 0.982505 50.5342 25.4213)" fill="#D9D9D9"/>
</mask>
<g mask="url(#mask0_2102_2468)">
<path d="M49.1452 40.6483C48.7769 38.7052 47.8472 36.9486 46.356 35.3786C44.8649 33.8086 42.9862 32.5436 40.72 31.5837C40.2928 31.3975 39.8992 31.4587 39.5391 31.7675C39.179 32.0762 39.0429 32.4627 39.1309 32.927L39.3852 34.2683C39.496 34.853 39.3869 35.3814 39.0577 35.8535C38.7286 36.3256 38.2717 36.6171 37.687 36.7279C37.3947 36.7833 37.103 36.7718 36.812 36.6933C36.5211 36.6149 36.2496 36.4749 35.9976 36.2732C35.8274 36.1273 35.6308 36.0533 35.4077 36.051C35.1846 36.0488 34.9915 36.1344 34.8284 36.3078C33.8917 37.287 33.228 38.4371 32.8371 39.7582C32.4462 41.0792 32.3795 42.419 32.637 43.7775C32.9239 45.2908 33.5551 46.6007 34.5309 47.7072C35.5066 48.8138 36.6648 49.6141 38.0055 50.1081C37.6349 49.7508 37.3215 49.3426 37.0652 48.8835C36.809 48.4244 36.6287 47.9197 36.5244 47.3694C36.394 46.6816 36.3999 46.008 36.5421 45.3486C36.6844 44.6893 36.9506 44.0732 37.3408 43.5005L40.3239 39.2208L44.6405 42.1168C45.2337 42.5209 45.7164 42.9995 46.0884 43.5525C46.4604 44.1054 46.7116 44.7258 46.842 45.4137C46.9463 45.9639 46.9632 46.4996 46.8928 47.0207C46.8223 47.5417 46.68 48.0363 46.4659 48.5044C47.5327 47.554 48.3177 46.3854 48.8208 44.9985C49.3239 43.6116 49.4321 42.1616 49.1452 40.6483ZM40.8716 42.1097L39.0849 44.6662C38.848 45.014 38.6863 45.3831 38.6 45.7735C38.5137 46.164 38.5097 46.5656 38.5879 46.9783C38.7476 47.8209 39.1846 48.4818 39.899 48.9609C40.6133 49.4401 41.4003 49.5982 42.2601 49.4352C43.1199 49.2723 43.7945 48.8371 44.2839 48.1298C44.7734 47.4224 44.9382 46.6474 44.7785 45.8048C44.7035 45.4093 44.5536 45.0414 44.3288 44.701C44.1039 44.3606 43.8176 44.072 43.4699 43.835L40.8716 42.1097Z" fill="#E7EFF6"/>
</g>
</g>
<defs>
<filter id="filter0_b_2102_2468" x="-4.72311" y="-5.07365" width="90.4462" height="90.446" filterUnits="userSpaceOnUse" color-interpolation-filters="sRGB">
<feFlood flood-opacity="0" result="BackgroundImageFix"/>
<feGaussianBlur in="BackgroundImageFix" stdDeviation="2.8546"/>
<feComposite in2="SourceAlpha" operator="in" result="effect1_backgroundBlur_2102_2468"/>
<feBlend mode="normal" in="SourceGraphic" in2="effect1_backgroundBlur_2102_2468" result="shape"/>
</filter>
</defs>
</svg>
