<svg width="125" height="95" viewBox="0 0 125 95" fill="none" xmlns="http://www.w3.org/2000/svg">
<g filter="url(#filter0_b_2102_2470)">
<rect x="0.5" y="52.4447" width="88.8142" height="88.8142" rx="34.4809" transform="rotate(-36.1909 0.5 52.4447)" fill="white"/>
<mask id="mask0_2102_2470" style="mask-type:alpha" maskUnits="userSpaceOnUse" x="33" y="33" width="59" height="58">
<rect x="33.6475" y="57.5816" width="41.3771" height="41.3771" transform="rotate(-36.1909 33.6475 57.5816)" fill="#D9D9D9"/>
</mask>
<g mask="url(#mask0_2102_2470)">
<path d="M53.4652 72.9892C51.5479 70.3687 50.4839 67.2842 50.2731 63.7357C50.0623 60.1871 50.6518 56.5159 52.0416 52.722C52.2972 52.0008 52.8121 51.5975 53.5861 51.5118C54.3601 51.4261 54.9762 51.6964 55.4343 52.3225L56.7577 54.1313C57.3346 54.9198 58.0906 55.3813 59.0258 55.516C59.961 55.6506 60.8229 55.4295 61.6113 54.8527C62.0055 54.5642 62.3188 54.2015 62.5509 53.7646C62.7831 53.3277 62.9196 52.8451 62.9604 52.3169C62.9762 51.9492 63.1079 51.6304 63.3553 51.3603C63.6028 51.0903 63.9219 50.9547 64.3127 50.9536C66.5372 50.9282 68.6607 51.4218 70.6832 52.4343C72.7057 53.4468 74.3872 54.869 75.7276 56.701C77.2207 58.7417 78.0837 60.9675 78.3166 63.3784C78.5495 65.7892 78.2106 68.0755 77.2999 70.2371C77.287 69.3921 77.1489 68.5586 76.8856 67.7365C76.6224 66.9144 76.2193 66.1323 75.6763 65.3902C74.9976 64.4626 74.1832 63.7144 73.2331 63.1457C72.2829 62.577 71.2456 62.2055 70.1212 62.0312L61.6442 60.81L60.2771 69.2336C60.0966 70.3982 60.1294 71.5135 60.3753 72.5797C60.6213 73.6458 61.0837 74.6427 61.7623 75.5703C62.3053 76.3124 62.9287 76.9333 63.6325 77.433C64.3364 77.9328 65.089 78.3167 65.8905 78.5848C63.5546 78.7985 61.273 78.4295 59.0457 77.4778C56.8185 76.5261 54.9583 75.0299 53.4652 72.9892ZM64.4946 64.706L69.5637 65.4298C70.2463 65.5356 70.8702 65.7557 71.4352 66.09C72.0002 66.4242 72.4863 66.8697 72.8935 67.4262C73.7249 68.5625 74.0274 69.8276 73.8011 71.2215C73.5749 72.6154 72.882 73.7365 71.7225 74.5849C70.563 75.4332 69.2847 75.7543 67.8877 75.5481C66.4907 75.3419 65.3765 74.6706 64.5451 73.5343C64.1549 73.0009 63.8817 72.4086 63.7257 71.7573C63.5696 71.106 63.5444 70.439 63.6502 69.7564L64.4946 64.706Z" fill="#E2EBF4" fill-opacity="0.8"/>
</g>
</g>
<defs>
<filter id="filter0_b_2102_2470" x="-8.87299" y="-9.37104" width="142.867" height="142.867" filterUnits="userSpaceOnUse" color-interpolation-filters="sRGB">
<feFlood flood-opacity="0" result="BackgroundImageFix"/>
<feGaussianBlur in="BackgroundImageFix" stdDeviation="4.6865"/>
<feComposite in2="SourceAlpha" operator="in" result="effect1_backgroundBlur_2102_2470"/>
<feBlend mode="normal" in="SourceGraphic" in2="effect1_backgroundBlur_2102_2470" result="shape"/>
</filter>
</defs>
</svg>
