<svg width="73" height="73" viewBox="0 0 73 73" fill="none" xmlns="http://www.w3.org/2000/svg">
<g filter="url(#filter0_b_2103_2475)">
<rect x="0.5" y="23.0071" width="54.0977" height="54.0977" rx="21.0027" transform="rotate(-24.3457 0.5 23.0071)" fill="white"/>
<mask id="mask0_2103_2475" style="mask-type:alpha" maskUnits="userSpaceOnUse" x="19" y="19" width="34" height="35">
<rect x="19.6182" y="30.2139" width="25.2032" height="25.2032" transform="rotate(-24.3457 19.6182 30.2139)" fill="#D9D9D9"/>
</mask>
<g mask="url(#mask0_2103_2475)">
<path d="M29.5058 41.8768C28.6904 40.0749 28.4418 38.1031 28.7598 35.9613C29.0778 33.8195 29.8882 31.7047 31.1911 29.6167C31.4337 29.2188 31.791 29.0427 32.2632 29.0884C32.7353 29.1341 33.0688 29.3722 33.2636 29.8028L33.8264 31.0465C34.0717 31.5887 34.4647 31.9584 35.0054 32.1556C35.546 32.3528 36.0875 32.3287 36.6296 32.0834C36.9007 31.9608 37.1328 31.7837 37.3258 31.5523C37.5189 31.3209 37.6605 31.0502 37.7509 30.7404C37.8063 30.5232 37.9247 30.3496 38.1059 30.2196C38.2872 30.0895 38.4944 30.0486 38.7276 30.0968C40.0568 30.3598 41.261 30.9195 42.3401 31.776C43.4192 32.6324 44.2438 33.6905 44.8138 34.9503C45.4487 36.3535 45.6849 37.7883 45.5223 39.2546C45.3598 40.7209 44.8719 42.0415 44.0587 43.2163C44.1566 42.7109 44.1785 42.1967 44.1244 41.6737C44.0702 41.1507 43.9277 40.6341 43.6968 40.1238C43.4082 39.486 43.0162 38.9382 42.5209 38.4803C42.0256 38.0225 41.4537 37.6713 40.8052 37.4268L35.9043 35.639L34.0361 40.4897C33.783 41.1613 33.663 41.8303 33.6764 42.4967C33.6897 43.163 33.8407 43.8151 34.1293 44.4529C34.3602 44.9632 34.6542 45.4113 35.0113 45.7972C35.3684 46.1831 35.7691 46.5061 36.2133 46.7661C34.7941 46.6015 33.4801 46.0962 32.2713 45.2504C31.0625 44.4046 30.1407 43.28 29.5058 41.8768ZM37.1165 38.3179L40.0479 39.3832C40.4416 39.5316 40.786 39.7408 41.081 40.0107C41.3761 40.2806 41.6101 40.607 41.7833 40.9897C42.1369 41.771 42.159 42.563 41.8499 43.3657C41.5407 44.1683 40.9874 44.75 40.1901 45.1108C39.3928 45.4716 38.5907 45.5031 37.7837 45.2055C36.9766 44.9079 36.3963 44.3685 36.0428 43.5871C35.8769 43.2204 35.7881 42.8331 35.7765 42.4253C35.7648 42.0175 35.8333 41.6168 35.9817 41.2231L37.1165 38.3179Z" fill="#E7EFF6"/>
</g>
</g>
<defs>
<filter id="filter0_b_2103_2475" x="-5.20919" y="-5.00335" width="83.0068" height="83.0067" filterUnits="userSpaceOnUse" color-interpolation-filters="sRGB">
<feFlood flood-opacity="0" result="BackgroundImageFix"/>
<feGaussianBlur in="BackgroundImageFix" stdDeviation="2.8546"/>
<feComposite in2="SourceAlpha" operator="in" result="effect1_backgroundBlur_2103_2475"/>
<feBlend mode="normal" in="SourceGraphic" in2="effect1_backgroundBlur_2103_2475" result="shape"/>
</filter>
</defs>
</svg>
