<svg width="72" height="72" viewBox="0 0 72 72" fill="none" xmlns="http://www.w3.org/2000/svg">
<g filter="url(#filter0_b_2102_2469)">
<rect width="54.0977" height="54.0977" rx="21.0027" transform="matrix(-0.911075 -0.412241 -0.412241 0.911075 71.5884 22.3013)" fill="white"/>
<mask id="mask0_2102_2469" style="mask-type:alpha" maskUnits="userSpaceOnUse" x="19" y="19" width="34" height="34">
<rect width="25.2032" height="25.2032" transform="matrix(-0.911075 -0.412241 -0.412241 0.911075 52.4702 29.5081)" fill="#D9D9D9"/>
</mask>
<g mask="url(#mask0_2102_2469)">
<path d="M42.5824 41.171C43.3977 39.3691 43.6463 37.3972 43.3283 35.2555C43.0103 33.1137 42.1999 30.9988 40.897 28.9109C40.6544 28.5129 40.2971 28.3368 39.825 28.3825C39.3528 28.4283 39.0194 28.6664 38.8245 29.0969L38.2618 30.3407C38.0164 30.8829 37.6234 31.2525 37.0828 31.4497C36.5421 31.6469 36.0007 31.6229 35.4585 31.3776C35.1874 31.2549 34.9554 31.0779 34.7623 30.8464C34.5693 30.615 34.4276 30.3444 34.3373 30.0345C34.2818 29.8174 34.1635 29.6437 33.9822 29.5137C33.8009 29.3836 33.5937 29.3427 33.3606 29.3909C32.0313 29.6539 30.8271 30.2137 29.748 31.0701C28.6689 31.9266 27.8443 32.9847 27.2743 34.2444C26.6394 35.6476 26.4032 37.0824 26.5658 38.5488C26.7284 40.0151 27.2163 41.3356 28.0294 42.5104C27.9315 42.0051 27.9096 41.4909 27.9638 40.9679C28.0179 40.4449 28.1604 39.9282 28.3913 39.418C28.6799 38.7801 29.0719 38.2323 29.5672 37.7745C30.0625 37.3166 30.6345 36.9654 31.283 36.721L36.1838 34.9331L38.052 39.7838C38.3052 40.4555 38.4251 41.1245 38.4118 41.7908C38.3984 42.4572 38.2474 43.1092 37.9588 43.7471C37.728 44.2573 37.4339 44.7054 37.0768 45.0913C36.7197 45.4773 36.319 45.8002 35.8748 46.0603C37.294 45.8956 38.608 45.3904 39.8168 44.5445C41.0256 43.6987 41.9474 42.5742 42.5824 41.171ZM34.9716 37.612L32.0403 38.6773C31.6465 38.8258 31.3021 39.0349 31.0071 39.3049C30.7121 39.5748 30.478 39.9011 30.3048 40.2838C29.9513 41.0651 29.9291 41.8572 30.2383 42.6598C30.5475 43.4625 31.1007 44.0442 31.898 44.4049C32.6953 44.7657 33.4974 44.7973 34.3045 44.4997C35.1115 44.2021 35.6918 43.6626 36.0453 42.8813C36.2113 42.5145 36.3001 42.1272 36.3117 41.7195C36.3233 41.3117 36.2549 40.9109 36.1065 40.5172L34.9716 37.612Z" fill="#E7EFF6"/>
</g>
</g>
<defs>
<filter id="filter0_b_2102_2469" x="-5.70919" y="-5.70919" width="83.0068" height="83.0067" filterUnits="userSpaceOnUse" color-interpolation-filters="sRGB">
<feFlood flood-opacity="0" result="BackgroundImageFix"/>
<feGaussianBlur in="BackgroundImageFix" stdDeviation="2.8546"/>
<feComposite in2="SourceAlpha" operator="in" result="effect1_backgroundBlur_2102_2469"/>
<feBlend mode="normal" in="SourceGraphic" in2="effect1_backgroundBlur_2102_2469" result="shape"/>
</filter>
</defs>
</svg>
