<svg width="80" height="80" viewBox="0 0 80 80" fill="none" xmlns="http://www.w3.org/2000/svg">
<g filter="url(#filter0_b_2103_2471)">
<rect width="67.6177" height="67.6177" rx="21.0027" transform="matrix(-0.982505 0.186237 0.186237 0.982505 66.9346 0.472351)" fill="white"/>
<mask id="mask0_2103_2471" style="mask-type:alpha" maskUnits="userSpaceOnUse" x="25" y="25" width="30" height="30">
<rect width="25.2032" height="25.2032" transform="matrix(-0.982505 0.186237 0.186237 0.982505 50.0479 25.2581)" fill="#D9D9D9"/>
</mask>
<g mask="url(#mask0_2103_2471)">
<path d="M48.6589 40.4851C48.2906 38.5419 47.3608 36.7854 45.8697 35.2154C44.3786 33.6454 42.4999 32.3804 40.2337 31.4205C39.8065 31.2343 39.4129 31.2955 39.0528 31.6043C38.6927 31.913 38.5566 32.2995 38.6446 32.7638L38.8989 34.1051C39.0097 34.6898 38.9005 35.2182 38.5714 35.6903C38.2423 36.1624 37.7854 36.4539 37.2007 36.5647C36.9084 36.6201 36.6167 36.6086 36.3257 36.5301C36.0347 36.4517 35.7632 36.3116 35.5113 36.11C35.3411 35.9641 35.1445 35.8901 34.9214 35.8878C34.6983 35.8856 34.5052 35.9712 34.3421 36.1446C33.4054 37.1238 32.7416 38.2739 32.3508 39.595C31.9599 40.916 31.8932 42.2558 32.1507 43.6143C32.4375 45.1275 33.0688 46.4374 34.0446 47.544C35.0203 48.6505 36.1785 49.4509 37.5191 49.9449C37.1486 49.5876 36.8352 49.1794 36.5789 48.7203C36.3226 48.2612 36.1424 47.7565 36.038 47.2062C35.9077 46.5184 35.9136 45.8448 36.0558 45.1854C36.198 44.5261 36.4643 43.91 36.8545 43.3372L39.8376 39.0576L44.1542 41.9536C44.7474 42.3577 45.23 42.8363 45.6021 43.3892C45.9741 43.9422 46.2253 44.5626 46.3557 45.2505C46.46 45.8007 46.4769 46.3364 46.4064 46.8575C46.336 47.3785 46.1937 47.8731 45.9796 48.3412C47.0464 47.3908 47.8314 46.2222 48.3345 44.8353C48.8376 43.4484 48.9457 41.9984 48.6589 40.4851ZM40.3852 41.9465L38.5985 44.503C38.3616 44.8508 38.2 45.2199 38.1137 45.6103C38.0274 46.0008 38.0233 46.4024 38.1016 46.8151C38.2613 47.6577 38.6983 48.3186 39.4126 48.7977C40.1269 49.2769 40.914 49.435 41.7738 49.272C42.6336 49.1091 43.3082 48.6739 43.7976 47.9665C44.287 47.2592 44.4519 46.4842 44.2922 45.6416C44.2172 45.2461 44.0673 44.8782 43.8424 44.5378C43.6176 44.1974 43.3313 43.9087 42.9835 43.6718L40.3852 41.9465Z" fill="#E7EFF6"/>
</g>
</g>
<defs>
<filter id="filter0_b_2103_2471" x="-5.20919" y="-5.23684" width="90.4457" height="90.446" filterUnits="userSpaceOnUse" color-interpolation-filters="sRGB">
<feFlood flood-opacity="0" result="BackgroundImageFix"/>
<feGaussianBlur in="BackgroundImageFix" stdDeviation="2.8546"/>
<feComposite in2="SourceAlpha" operator="in" result="effect1_backgroundBlur_2103_2471"/>
<feBlend mode="normal" in="SourceGraphic" in2="effect1_backgroundBlur_2103_2471" result="shape"/>
</filter>
</defs>
</svg>
