<svg width="212" height="118" viewBox="0 0 212 118" fill="none" xmlns="http://www.w3.org/2000/svg">
<g clip-path="url(#clip0_27_2395)">
<rect x="0.979004" y="0.509521" width="210.635" height="117.253" rx="17.7751" fill="white"/>
<path d="M22.5894 29.6146V19.8146H25.9564C26.8944 19.8146 27.6528 20.0246 28.2314 20.4446C28.8101 20.86 29.0994 21.4736 29.0994 22.2856C29.0994 22.5983 29.0248 22.8946 28.8754 23.1746C28.7308 23.45 28.5418 23.6926 28.3084 23.9026C28.0751 24.1126 27.8324 24.2666 27.5804 24.3646C28.1124 24.528 28.5558 24.8266 28.9104 25.2606C29.2698 25.6946 29.4494 26.229 29.4494 26.8636C29.4494 27.4003 29.3141 27.8763 29.0434 28.2916C28.7728 28.7023 28.3878 29.0266 27.8884 29.2646C27.3891 29.498 26.7964 29.6146 26.1104 29.6146H22.5894ZM24.1574 28.3826H25.8444C26.5164 28.3826 27.0158 28.252 27.3424 27.9906C27.6691 27.7246 27.8324 27.3256 27.8324 26.7936C27.8324 26.2663 27.6668 25.865 27.3354 25.5896C27.0088 25.3143 26.5024 25.1766 25.8164 25.1766H24.1574V28.3826ZM24.1574 24.0006H25.7114C26.0894 24.0006 26.4161 23.94 26.6914 23.8186C26.9668 23.6973 27.1814 23.5223 27.3354 23.2936C27.4894 23.065 27.5664 22.7896 27.5664 22.4676C27.5664 22.0103 27.4031 21.6603 27.0764 21.4176C26.7544 21.1703 26.2924 21.0466 25.6904 21.0466H24.1574V24.0006ZM33.9335 29.8246C33.3128 29.8246 32.7995 29.701 32.3935 29.4536C31.9921 29.2016 31.6911 28.8703 31.4905 28.4596C31.2898 28.049 31.1895 27.601 31.1895 27.1156V22.6846H32.7295V26.8286C32.7295 27.3046 32.8695 27.6873 33.1495 27.9766C33.4341 28.2613 33.8261 28.4036 34.3255 28.4036C34.6521 28.4036 34.9438 28.3313 35.2005 28.1866C35.4571 28.0373 35.6601 27.8296 35.8095 27.5636C35.9635 27.2976 36.0405 26.9896 36.0405 26.6396V22.6846H37.5805V29.6146H36.1945V28.7956C35.9238 29.1223 35.6018 29.3766 35.2285 29.5586C34.8598 29.736 34.4281 29.8246 33.9335 29.8246ZM42.0604 29.8176C41.4864 29.8176 40.9497 29.736 40.4504 29.5726C39.951 29.4093 39.531 29.19 39.1904 28.9146L39.7714 27.7876C40.0934 28.0396 40.455 28.238 40.8564 28.3826C41.2624 28.5273 41.6614 28.5996 42.0534 28.5996C42.506 28.5996 42.8584 28.5203 43.1104 28.3616C43.3624 28.203 43.4884 27.9813 43.4884 27.6966C43.4884 27.426 43.3787 27.2276 43.1594 27.1016C42.9447 26.971 42.534 26.8356 41.9274 26.6956C41.0547 26.5136 40.42 26.257 40.0234 25.9256C39.6314 25.5896 39.4354 25.1253 39.4354 24.5326C39.4354 24.1173 39.5497 23.751 39.7784 23.4336C40.0117 23.1116 40.3314 22.8596 40.7374 22.6776C41.1434 22.4956 41.6124 22.4046 42.1444 22.4046C42.6624 22.4046 43.15 22.4793 43.6074 22.6286C44.0647 22.7733 44.4614 22.9786 44.7974 23.2446L44.2514 24.3786C44.0787 24.2246 43.878 24.0916 43.6494 23.9796C43.4207 23.8676 43.178 23.7813 42.9214 23.7206C42.6694 23.6553 42.4174 23.6226 42.1654 23.6226C41.7734 23.6226 41.4537 23.6996 41.2064 23.8536C40.9637 24.003 40.8424 24.2106 40.8424 24.4766C40.8424 24.752 40.959 24.955 41.1924 25.0856C41.4257 25.2163 41.827 25.347 42.3964 25.4776C43.2924 25.6736 43.934 25.935 44.3214 26.2616C44.7087 26.5883 44.9024 27.041 44.9024 27.6196C44.9024 28.063 44.7834 28.4503 44.5454 28.7816C44.3074 29.1083 43.9737 29.3626 43.5444 29.5446C43.1197 29.7266 42.625 29.8176 42.0604 29.8176ZM46.6403 29.6146V22.6846H48.1803V29.6146H46.6403ZM47.4103 21.4456C47.135 21.4456 46.897 21.357 46.6963 21.1796C46.4957 21.0023 46.3953 20.769 46.3953 20.4796C46.3953 20.195 46.4957 19.964 46.6963 19.7866C46.897 19.6046 47.135 19.5136 47.4103 19.5136C47.6857 19.5136 47.9237 19.6046 48.1243 19.7866C48.325 19.964 48.4253 20.195 48.4253 20.4796C48.4253 20.769 48.325 21.0023 48.1243 21.1796C47.9237 21.357 47.6857 21.4456 47.4103 21.4456ZM50.3181 29.6146V22.6846H51.8581V23.5666C52.1474 23.1793 52.4834 22.9016 52.8661 22.7336C53.2487 22.561 53.6454 22.4746 54.0561 22.4746C54.6907 22.4746 55.2157 22.6006 55.6311 22.8526C56.0464 23.1046 56.3544 23.429 56.5551 23.8256C56.7604 24.2223 56.8631 24.6306 56.8631 25.0506V29.6146H55.3231V25.5266C55.3231 25.032 55.1737 24.6353 54.8751 24.3366C54.5811 24.038 54.1704 23.8886 53.6431 23.8886C53.2977 23.8886 52.9897 23.9656 52.7191 24.1196C52.4531 24.2736 52.2431 24.4883 52.0891 24.7636C51.9351 25.0343 51.8581 25.3516 51.8581 25.7156V29.6146H50.3181ZM62.0954 29.8246C61.3487 29.8246 60.693 29.673 60.1284 29.3696C59.5637 29.0616 59.1227 28.6323 58.8054 28.0816C58.4927 27.531 58.3364 26.8916 58.3364 26.1636C58.3364 25.6316 58.4274 25.1416 58.6094 24.6936C58.7914 24.241 59.048 23.849 59.3794 23.5176C59.7107 23.1863 60.098 22.9296 60.5414 22.7476C60.9894 22.5656 61.477 22.4746 62.0044 22.4746C62.5784 22.4746 63.0894 22.5773 63.5374 22.7826C63.9854 22.9833 64.3564 23.2656 64.6504 23.6296C64.949 23.9936 65.159 24.4206 65.2804 24.9106C65.4064 25.396 65.4274 25.9233 65.3434 26.4926H59.8134C59.804 26.908 59.895 27.272 60.0864 27.5846C60.2777 27.8926 60.5507 28.133 60.9054 28.3056C61.2647 28.4783 61.687 28.5646 62.1724 28.5646C62.5644 28.5646 62.9424 28.5063 63.3064 28.3896C63.675 28.2683 64.0087 28.091 64.3074 27.8576L64.9024 28.9636C64.6784 29.1456 64.4077 29.302 64.0904 29.4326C63.773 29.5586 63.4417 29.6543 63.0964 29.7196C62.751 29.7896 62.4174 29.8246 62.0954 29.8246ZM59.9044 25.3586H63.8314C63.8174 24.836 63.6494 24.4253 63.3274 24.1266C63.01 23.828 62.5574 23.6786 61.9694 23.6786C61.4 23.6786 60.9264 23.828 60.5484 24.1266C60.175 24.4253 59.9604 24.836 59.9044 25.3586ZM69.2811 29.8176C68.7071 29.8176 68.1704 29.736 67.6711 29.5726C67.1717 29.4093 66.7517 29.19 66.4111 28.9146L66.9921 27.7876C67.3141 28.0396 67.6757 28.238 68.0771 28.3826C68.4831 28.5273 68.8821 28.5996 69.2741 28.5996C69.7267 28.5996 70.0791 28.5203 70.3311 28.3616C70.5831 28.203 70.7091 27.9813 70.7091 27.6966C70.7091 27.426 70.5994 27.2276 70.3801 27.1016C70.1654 26.971 69.7547 26.8356 69.1481 26.6956C68.2754 26.5136 67.6407 26.257 67.2441 25.9256C66.8521 25.5896 66.6561 25.1253 66.6561 24.5326C66.6561 24.1173 66.7704 23.751 66.9991 23.4336C67.2324 23.1116 67.5521 22.8596 67.9581 22.6776C68.3641 22.4956 68.8331 22.4046 69.3651 22.4046C69.8831 22.4046 70.3707 22.4793 70.8281 22.6286C71.2854 22.7733 71.6821 22.9786 72.0181 23.2446L71.4721 24.3786C71.2994 24.2246 71.0987 24.0916 70.8701 23.9796C70.6414 23.8676 70.3987 23.7813 70.1421 23.7206C69.8901 23.6553 69.6381 23.6226 69.3861 23.6226C68.9941 23.6226 68.6744 23.6996 68.4271 23.8536C68.1844 24.003 68.0631 24.2106 68.0631 24.4766C68.0631 24.752 68.1797 24.955 68.4131 25.0856C68.6464 25.2163 69.0477 25.347 69.6171 25.4776C70.5131 25.6736 71.1547 25.935 71.5421 26.2616C71.9294 26.5883 72.1231 27.041 72.1231 27.6196C72.1231 28.063 72.0041 28.4503 71.7661 28.7816C71.5281 29.1083 71.1944 29.3626 70.7651 29.5446C70.3404 29.7266 69.8457 29.8176 69.2811 29.8176ZM76.0623 29.8176C75.4883 29.8176 74.9517 29.736 74.4523 29.5726C73.953 29.4093 73.533 29.19 73.1923 28.9146L73.7733 27.7876C74.0953 28.0396 74.457 28.238 74.8583 28.3826C75.2643 28.5273 75.6633 28.5996 76.0553 28.5996C76.508 28.5996 76.8603 28.5203 77.1123 28.3616C77.3643 28.203 77.4903 27.9813 77.4903 27.6966C77.4903 27.426 77.3807 27.2276 77.1613 27.1016C76.9467 26.971 76.536 26.8356 75.9293 26.6956C75.0567 26.5136 74.422 26.257 74.0253 25.9256C73.6333 25.5896 73.4373 25.1253 73.4373 24.5326C73.4373 24.1173 73.5517 23.751 73.7803 23.4336C74.0137 23.1116 74.3333 22.8596 74.7393 22.6776C75.1453 22.4956 75.6143 22.4046 76.1463 22.4046C76.6643 22.4046 77.152 22.4793 77.6093 22.6286C78.0667 22.7733 78.4633 22.9786 78.7993 23.2446L78.2533 24.3786C78.0807 24.2246 77.88 24.0916 77.6513 23.9796C77.4227 23.8676 77.18 23.7813 76.9233 23.7206C76.6713 23.6553 76.4193 23.6226 76.1673 23.6226C75.7753 23.6226 75.4557 23.6996 75.2083 23.8536C74.9657 24.003 74.8443 24.2106 74.8443 24.4766C74.8443 24.752 74.961 24.955 75.1943 25.0856C75.4277 25.2163 75.829 25.347 76.3983 25.4776C77.2943 25.6736 77.936 25.935 78.3233 26.2616C78.7107 26.5883 78.9043 27.041 78.9043 27.6196C78.9043 28.063 78.7853 28.4503 78.5473 28.7816C78.3093 29.1083 77.9757 29.3626 77.5463 29.5446C77.1217 29.7266 76.627 29.8176 76.0623 29.8176ZM84.2769 29.6146V19.8146H87.9799C88.6613 19.8146 89.2493 19.9336 89.7439 20.1716C90.2433 20.405 90.6283 20.7386 90.8989 21.1726C91.1743 21.6066 91.3119 22.1223 91.3119 22.7196C91.3119 23.205 91.2069 23.6343 90.9969 24.0076C90.7916 24.381 90.5023 24.689 90.1289 24.9316C89.7556 25.1696 89.3239 25.3306 88.8339 25.4146L91.7879 29.6146H89.8909L87.1819 25.6596H85.8449V29.6146H84.2769ZM85.8449 24.3576H87.7209C88.3556 24.3576 88.8479 24.2223 89.1979 23.9516C89.5526 23.681 89.7299 23.2936 89.7299 22.7896C89.7299 22.2716 89.5713 21.868 89.2539 21.5786C88.9413 21.2893 88.4676 21.1446 87.8329 21.1446H85.8449V24.3576ZM96.5348 29.8246C95.7881 29.8246 95.1325 29.673 94.5678 29.3696C94.0031 29.0616 93.5621 28.6323 93.2448 28.0816C92.9321 27.531 92.7758 26.8916 92.7758 26.1636C92.7758 25.6316 92.8668 25.1416 93.0488 24.6936C93.2308 24.241 93.4875 23.849 93.8188 23.5176C94.1501 23.1863 94.5375 22.9296 94.9808 22.7476C95.4288 22.5656 95.9165 22.4746 96.4438 22.4746C97.0178 22.4746 97.5288 22.5773 97.9768 22.7826C98.4248 22.9833 98.7958 23.2656 99.0898 23.6296C99.3885 23.9936 99.5985 24.4206 99.7198 24.9106C99.8458 25.396 99.8668 25.9233 99.7828 26.4926H94.2528C94.2435 26.908 94.3345 27.272 94.5258 27.5846C94.7171 27.8926 94.9901 28.133 95.3448 28.3056C95.7041 28.4783 96.1265 28.5646 96.6118 28.5646C97.0038 28.5646 97.3818 28.5063 97.7458 28.3896C98.1145 28.2683 98.4481 28.091 98.7468 27.8576L99.3418 28.9636C99.1178 29.1456 98.8471 29.302 98.5298 29.4326C98.2125 29.5586 97.8811 29.6543 97.5358 29.7196C97.1905 29.7896 96.8568 29.8246 96.5348 29.8246ZM94.3438 25.3586H98.2708C98.2568 24.836 98.0888 24.4253 97.7668 24.1266C97.4495 23.828 96.9968 23.6786 96.4088 23.6786C95.8395 23.6786 95.3658 23.828 94.9878 24.1266C94.6145 24.4253 94.3998 24.836 94.3438 25.3586ZM103.721 29.8176C103.147 29.8176 102.61 29.736 102.111 29.5726C101.611 29.4093 101.191 29.19 100.851 28.9146L101.432 27.7876C101.754 28.0396 102.115 28.238 102.517 28.3826C102.923 28.5273 103.322 28.5996 103.714 28.5996C104.166 28.5996 104.519 28.5203 104.771 28.3616C105.023 28.203 105.149 27.9813 105.149 27.6966C105.149 27.426 105.039 27.2276 104.82 27.1016C104.605 26.971 104.194 26.8356 103.588 26.6956C102.715 26.5136 102.08 26.257 101.684 25.9256C101.292 25.5896 101.096 25.1253 101.096 24.5326C101.096 24.1173 101.21 23.751 101.439 23.4336C101.672 23.1116 101.992 22.8596 102.398 22.6776C102.804 22.4956 103.273 22.4046 103.805 22.4046C104.323 22.4046 104.81 22.4793 105.268 22.6286C105.725 22.7733 106.122 22.9786 106.458 23.2446L105.912 24.3786C105.739 24.2246 105.538 24.0916 105.31 23.9796C105.081 23.8676 104.838 23.7813 104.582 23.7206C104.33 23.6553 104.078 23.6226 103.826 23.6226C103.434 23.6226 103.114 23.6996 102.867 23.8536C102.624 24.003 102.503 24.2106 102.503 24.4766C102.503 24.752 102.619 24.955 102.853 25.0856C103.086 25.2163 103.487 25.347 104.057 25.4776C104.953 25.6736 105.594 25.935 105.982 26.2616C106.369 26.5883 106.563 27.041 106.563 27.6196C106.563 28.063 106.444 28.4503 106.206 28.7816C105.968 29.1083 105.634 29.3626 105.205 29.5446C104.78 29.7266 104.285 29.8176 103.721 29.8176ZM110.974 29.8246C110.354 29.8246 109.84 29.701 109.434 29.4536C109.033 29.2016 108.732 28.8703 108.531 28.4596C108.331 28.049 108.23 27.601 108.23 27.1156V22.6846H109.77V26.8286C109.77 27.3046 109.91 27.6873 110.19 27.9766C110.475 28.2613 110.867 28.4036 111.366 28.4036C111.693 28.4036 111.985 28.3313 112.241 28.1866C112.498 28.0373 112.701 27.8296 112.85 27.5636C113.004 27.2976 113.081 26.9896 113.081 26.6396V22.6846H114.621V29.6146H113.235V28.7956C112.965 29.1223 112.643 29.3766 112.269 29.5586C111.901 29.736 111.469 29.8246 110.974 29.8246ZM116.763 29.6146V19.5346H118.303V29.6146H116.763ZM123.353 29.8246C122.676 29.8246 122.135 29.6286 121.729 29.2366C121.323 28.8446 121.12 28.245 121.12 27.4376V20.6616H122.66V22.6846H124.585V23.9586H122.66V27.1016C122.66 27.587 122.751 27.93 122.933 28.1306C123.12 28.3266 123.381 28.4246 123.717 28.4246C123.88 28.4246 124.034 28.406 124.179 28.3686C124.324 28.3313 124.454 28.2823 124.571 28.2216L124.844 29.4676C124.643 29.5703 124.412 29.6543 124.151 29.7196C123.894 29.7896 123.628 29.8246 123.353 29.8246ZM119.601 23.9586V22.6846H121.323V23.9586H119.601Z" fill="#2F3037"/>
<path d="M25.2383 53.7809C24.8955 53.7809 24.5585 53.7443 24.2273 53.6712C23.8961 53.598 23.5919 53.4998 23.3146 53.3765C23.0411 53.2494 22.8197 53.105 22.6502 52.9433L23.1297 51.7301C23.3646 51.9612 23.667 52.146 24.0367 52.2847C24.4064 52.4233 24.7761 52.4927 25.1458 52.4927C25.4848 52.4927 25.7794 52.4368 26.0297 52.3251C26.28 52.2096 26.4726 52.0498 26.6074 51.8456C26.7461 51.6415 26.8154 51.4028 26.8154 51.1293C26.8154 50.7018 26.6594 50.3706 26.3474 50.1357C26.0393 49.9008 25.6311 49.7833 25.1227 49.7833C24.9764 49.7833 24.8223 49.7929 24.6606 49.8122C24.4988 49.8314 24.3352 49.8622 24.1696 49.9046L23.7478 48.9399L26.1395 46.762H22.7253V45.5199H27.8841V46.6638L25.6253 48.8532C26.0798 48.8571 26.5053 48.9476 26.902 49.1247C27.3026 49.298 27.6261 49.5599 27.8725 49.9104C28.119 50.2608 28.2423 50.698 28.2423 51.2217C28.2423 51.7263 28.1133 52.1711 27.8552 52.5562C27.601 52.9375 27.2486 53.2379 26.798 53.4574C26.3474 53.6731 25.8275 53.7809 25.2383 53.7809ZM31.98 53.7809C31.4755 53.7809 30.9922 53.7097 30.53 53.5672C30.0679 53.4208 29.6866 53.2225 29.3862 52.9721L29.8483 51.7763C30.1102 52.0151 30.4241 52.1942 30.79 52.3136C31.1558 52.433 31.5256 52.4927 31.8991 52.4927C32.2535 52.4927 32.5577 52.4368 32.8119 52.3251C33.0699 52.2134 33.2683 52.0498 33.4069 51.8341C33.5456 51.6184 33.6149 51.3565 33.6149 51.0484C33.6149 50.7673 33.5417 50.5266 33.3954 50.3263C33.2529 50.1261 33.0526 49.972 32.7946 49.8642C32.5365 49.7563 32.2381 49.7024 31.8991 49.7024C31.6873 49.7024 31.4639 49.7274 31.229 49.7775C30.9979 49.8276 30.7611 49.9065 30.5185 50.0144L29.9003 49.3442L30.322 45.5315H34.8454V46.8313H31.3734L31.1481 48.7088C31.3292 48.651 31.5102 48.6087 31.6912 48.5817C31.8722 48.5509 32.0513 48.5355 32.2284 48.5355C32.7715 48.5355 33.2548 48.6375 33.6784 48.8417C34.1021 49.0458 34.4352 49.3404 34.6778 49.7255C34.9205 50.1068 35.0418 50.567 35.0418 51.1062C35.0418 51.6454 34.9128 52.1152 34.6547 52.5158C34.4005 52.9163 34.0424 53.2283 33.5802 53.4516C33.1219 53.6712 32.5885 53.7809 31.98 53.7809ZM39.8474 53.6076V51.9958H35.8845V50.8925L38.669 45.5199H40.1767L37.4443 50.7654H39.8474V49.0438H41.1184V50.7654H42.32V51.9958H41.1184V53.6076H39.8474ZM43.4876 55.462L43.0024 54.8034C43.3066 54.6648 43.5762 54.4934 43.8111 54.2893C44.0461 54.0852 44.2097 53.8849 44.3022 53.6885C44.1096 53.7 43.9344 53.6712 43.7765 53.6018C43.6186 53.5325 43.4915 53.4304 43.3952 53.2957C43.3028 53.1609 43.2565 53.003 43.2565 52.8219C43.2565 52.5447 43.3451 52.3213 43.5223 52.1518C43.7033 51.9785 43.9344 51.8919 44.2155 51.8919C44.5313 51.8919 44.7874 51.9978 44.9838 52.2096C45.1803 52.4176 45.2785 52.7026 45.2785 53.0646C45.2785 53.3457 45.2111 53.6249 45.0763 53.9022C44.9453 54.1834 44.747 54.4549 44.4812 54.7168C44.2155 54.9787 43.8843 55.2271 43.4876 55.462ZM47.2663 53.6076V47.1201L45.2617 47.848L44.8688 46.6811L48.5487 45.3466H48.6527V53.6076H47.2663ZM50.552 53.6076V52.5735L52.2908 50.9907C52.8377 50.49 53.2748 50.0664 53.6022 49.7197C53.9295 49.3693 54.1645 49.0554 54.307 48.7781C54.4495 48.497 54.5207 48.2158 54.5207 47.9347C54.5207 47.5187 54.3801 47.1972 54.099 46.9699C53.8217 46.7389 53.4289 46.6233 52.9205 46.6233C52.5662 46.6233 52.2253 46.6869 51.898 46.814C51.5745 46.9411 51.2914 47.1298 51.0488 47.3801L50.5173 46.2883C50.8601 45.984 51.2529 45.751 51.6958 45.5893C52.1387 45.4275 52.5989 45.3466 53.0765 45.3466C53.6503 45.3466 54.1491 45.4468 54.5727 45.647C55.0002 45.8473 55.3314 46.1304 55.5663 46.4962C55.8013 46.8583 55.9187 47.2838 55.9187 47.7729C55.9187 48.1041 55.8532 48.4334 55.7223 48.7608C55.5914 49.0881 55.3564 49.4559 55.0175 49.8642C54.6825 50.2724 54.2068 50.7654 53.5906 51.3431L52.4988 52.354H56.1267V53.6076H50.552ZM60.6878 53.7809C60.1602 53.7809 59.6884 53.6712 59.2725 53.4516C58.8565 53.2321 58.5041 52.9279 58.2153 52.5389C57.9303 52.1499 57.7108 51.7012 57.5567 51.1929C57.4065 50.6845 57.3314 50.1415 57.3314 49.5638C57.3314 48.9822 57.4065 48.4373 57.5567 47.9289C57.7108 47.4205 57.9303 46.9738 58.2153 46.5887C58.5041 46.1997 58.8565 45.8954 59.2725 45.6759C59.6884 45.4564 60.1602 45.3466 60.6878 45.3466C61.2154 45.3466 61.6853 45.4564 62.0974 45.6759C62.5133 45.8954 62.8657 46.1997 63.1546 46.5887C63.4434 46.9738 63.6629 47.4205 63.8131 47.9289C63.9672 48.4373 64.0442 48.9822 64.0442 49.5638C64.0442 50.1415 63.9672 50.6845 63.8131 51.1929C63.6629 51.7012 63.4434 52.1499 63.1546 52.5389C62.8657 52.9279 62.5133 53.2321 62.0974 53.4516C61.6853 53.6712 61.2154 53.7809 60.6878 53.7809ZM60.6878 52.4696C60.9767 52.4696 61.2366 52.4041 61.4677 52.2731C61.7026 52.1422 61.9029 51.9516 62.0685 51.7012C62.238 51.4509 62.367 51.1466 62.4556 50.7885C62.548 50.4303 62.5942 50.0221 62.5942 49.5638C62.5942 48.9514 62.5152 48.4296 62.3573 47.9982C62.1994 47.563 61.9761 47.2318 61.6872 47.0046C61.4022 46.7735 61.0691 46.658 60.6878 46.658C60.4028 46.658 60.1429 46.7235 59.9079 46.8544C59.6769 46.9853 59.4766 47.176 59.3071 47.4263C59.1377 47.6728 59.0067 47.977 58.9143 48.3391C58.8257 48.6972 58.7814 49.1055 58.7814 49.5638C58.7814 50.1723 58.8604 50.6941 59.0183 51.1293C59.18 51.5607 59.4034 51.8919 59.6884 52.1229C59.9734 52.354 60.3065 52.4696 60.6878 52.4696Z" fill="#4289FE"/>
<rect x="67.5205" y="42.1445" width="36.755" height="14.702" rx="7.351" fill="#F4F6F9"/>
<path d="M74.2059 51.9824V51.3943L75.3196 50.3762C75.6725 50.0527 75.9567 49.7746 76.1723 49.5418C76.388 49.3066 76.5448 49.0946 76.6428 48.906C76.7408 48.7173 76.7898 48.5262 76.7898 48.3326C76.7898 48.0508 76.693 47.8315 76.4995 47.6747C76.3083 47.5154 76.0412 47.4358 75.6982 47.4358C75.4703 47.4358 75.2522 47.475 75.044 47.5534C74.8357 47.6318 74.658 47.7457 74.511 47.8952L74.2096 47.2961C74.4179 47.1099 74.658 46.969 74.93 46.8734C75.202 46.7754 75.4875 46.7264 75.7864 46.7264C76.1417 46.7264 76.4517 46.7901 76.7163 46.9175C76.9834 47.0425 77.1904 47.2201 77.3375 47.4505C77.4869 47.6784 77.5617 47.9454 77.5617 48.2517C77.5617 48.4649 77.5188 48.6781 77.433 48.8913C77.3497 49.102 77.199 49.3397 76.9809 49.6043C76.7653 49.8689 76.459 50.1863 76.0621 50.5563L75.2718 51.284H77.6903V51.9824H74.2059ZM78.6409 53.0924L78.3579 52.7175C78.5417 52.6292 78.7034 52.5227 78.8431 52.3977C78.9852 52.2752 79.082 52.1539 79.1335 52.0338C79.0207 52.0412 78.9191 52.024 78.8284 51.9824C78.7377 51.9432 78.6654 51.8856 78.6115 51.8096C78.5576 51.7312 78.5307 51.6393 78.5307 51.5339C78.5307 51.3771 78.5821 51.2497 78.6851 51.1517C78.7904 51.0512 78.9227 51.001 79.082 51.001C79.2658 51.001 79.4128 51.0623 79.5231 51.1848C79.6358 51.3048 79.6921 51.4702 79.6921 51.681C79.6921 51.8427 79.6529 52.0056 79.5745 52.1698C79.4961 52.3364 79.3785 52.4969 79.2217 52.6513C79.0673 52.8081 78.8737 52.9551 78.6409 53.0924ZM82.1664 52.0926C81.8503 52.0926 81.5464 52.0473 81.2549 51.9566C80.9657 51.866 80.7268 51.7447 80.5381 51.5928L80.8028 50.9238C80.9718 51.0708 81.174 51.1836 81.4092 51.262C81.6445 51.3379 81.8821 51.3759 82.1223 51.3759C82.3624 51.3759 82.5707 51.3367 82.7471 51.2583C82.9235 51.1774 83.0595 51.0623 83.1551 50.9128C83.2507 50.7633 83.2984 50.582 83.2984 50.3688C83.2984 50.1728 83.2482 50.0049 83.1477 49.8653C83.0473 49.7232 82.9076 49.6141 82.7287 49.5382C82.5523 49.4622 82.3514 49.4242 82.126 49.4242C81.9814 49.4242 81.8319 49.4414 81.6775 49.4757C81.5232 49.51 81.3651 49.5627 81.2034 49.6337L80.8653 49.2698L81.1299 46.844L83.9674 46.8403V47.5607H81.7143L81.5599 48.9023C81.6873 48.8606 81.8135 48.8288 81.9385 48.8067C82.0659 48.7847 82.1921 48.7736 82.3171 48.7736C82.6552 48.7736 82.9578 48.8386 83.2249 48.9685C83.492 49.0959 83.7027 49.2809 83.8571 49.5235C84.0139 49.766 84.0923 50.0564 84.0923 50.3945C84.0923 50.7376 84.0103 51.0365 83.8461 51.2914C83.6844 51.5462 83.4589 51.7435 83.1698 51.8831C82.8807 52.0228 82.5462 52.0926 82.1664 52.0926ZM87.1061 52.1073L86.6541 51.839L89.5209 46.7117L89.973 46.9616L87.1061 52.1073ZM86.202 49.5161C85.9422 49.5161 85.7058 49.4548 85.4926 49.3323C85.2794 49.2074 85.1091 49.0407 84.9817 48.8325C84.8567 48.6242 84.7942 48.3914 84.7942 48.1341C84.7942 47.8817 84.8567 47.6514 84.9817 47.4431C85.1091 47.2348 85.2794 47.0694 85.4926 46.9469C85.7058 46.8244 85.9422 46.7632 86.202 46.7632C86.4641 46.7632 86.7006 46.8244 86.9113 46.9469C87.1221 47.0694 87.2899 47.2348 87.4149 47.4431C87.5423 47.6514 87.606 47.8817 87.606 48.1341C87.606 48.3889 87.5423 48.6217 87.4149 48.8325C87.2899 49.0407 87.1221 49.2074 86.9113 49.3323C86.7006 49.4548 86.4641 49.5161 86.202 49.5161ZM86.202 48.9574C86.3661 48.9574 86.5095 48.9231 86.632 48.8545C86.7545 48.7835 86.8501 48.6867 86.9187 48.5641C86.9873 48.4392 87.0216 48.2958 87.0216 48.1341C87.0216 47.8915 86.9469 47.6955 86.7974 47.546C86.6479 47.3966 86.4494 47.3218 86.202 47.3218C86.0402 47.3218 85.8969 47.3574 85.7719 47.4284C85.6494 47.497 85.5526 47.5926 85.4816 47.7151C85.413 47.8352 85.3787 47.9748 85.3787 48.1341C85.3787 48.3767 85.4546 48.5752 85.6065 48.7295C85.7609 48.8815 85.9594 48.9574 86.202 48.9574ZM90.4325 52.0559C90.1703 52.0559 89.9326 51.9946 89.7194 51.8721C89.5087 51.7471 89.3396 51.5805 89.2122 51.3722C89.0848 51.1615 89.0211 50.9287 89.0211 50.6739C89.0211 50.4215 89.0848 50.1912 89.2122 49.9829C89.3396 49.7746 89.5087 49.6092 89.7194 49.4867C89.9326 49.3642 90.1703 49.3029 90.4325 49.3029C90.6922 49.3029 90.9274 49.3642 91.1382 49.4867C91.3513 49.6092 91.5204 49.7746 91.6454 49.9829C91.7703 50.1912 91.8328 50.4215 91.8328 50.6739C91.8328 50.9287 91.7703 51.1615 91.6454 51.3722C91.5204 51.5805 91.3513 51.7471 91.1382 51.8721C90.9274 51.9946 90.6922 52.0559 90.4325 52.0559ZM90.4325 51.4972C90.5942 51.4972 90.7363 51.4629 90.8588 51.3943C90.9838 51.3232 91.0806 51.2264 91.1492 51.1039C91.2178 50.9789 91.2521 50.8356 91.2521 50.6739C91.2521 50.4313 91.1761 50.2353 91.0242 50.0858C90.8747 49.9363 90.6775 49.8616 90.4325 49.8616C90.2683 49.8616 90.1237 49.8959 89.9988 49.9645C89.8762 50.0331 89.7794 50.1287 89.7084 50.2512C89.6398 50.3737 89.6055 50.5146 89.6055 50.6739C89.6055 50.914 89.6814 51.1113 89.8334 51.2656C89.9877 51.42 90.1874 51.4972 90.4325 51.4972Z" fill="#4289FE"/>
<path d="M95.5901 48.9402C95.6775 48.8105 95.8685 48.8105 95.956 48.9402L97.7697 51.6329C97.8683 51.7794 97.7634 51.9767 97.5868 51.9767H93.9593C93.7827 51.9767 93.6778 51.7794 93.7764 51.6329L95.5901 48.9402Z" fill="#4289FE"/>
<path d="M59.0993 96.1031C31.4953 95.5125 18.8987 99.763 -0.00292969 112.989V144.096L233.74 151.65V25.0027C220.067 40.6244 211.956 49.0981 176.415 50.7766C151.613 49.4252 141.268 54.2888 126.645 68.9959C104.296 89.3587 89.0896 94.2729 59.0993 96.1031Z" fill="url(#paint0_linear_27_2395)" fill-opacity="0.15"/>
<path d="M-0.00292969 112.989C18.8987 99.763 31.4953 95.5125 59.0993 96.1031C89.0896 94.2729 104.296 89.3587 126.645 68.9959C141.268 54.2888 151.613 49.4252 176.415 50.7766C211.956 49.0981 220.067 40.6244 233.74 25.0027" stroke="#4289FE" stroke-width="1.77751"/>
</g>
<defs>
<linearGradient id="paint0_linear_27_2395" x1="127.926" y1="68.1073" x2="151.138" y2="144.903" gradientUnits="userSpaceOnUse">
<stop stop-color="#366FFF"/>
<stop offset="0.862289" stop-color="#59BCFB" stop-opacity="0"/>
</linearGradient>
<clipPath id="clip0_27_2395">
<rect x="0.979004" y="0.509521" width="210.635" height="117.253" rx="17.7751" fill="white"/>
</clipPath>
</defs>
</svg>
