<svg width="64" height="64" viewBox="0 0 64 64" fill="none" xmlns="http://www.w3.org/2000/svg">
<g filter="url(#filter0_b_2115_2706)">
<rect x="14.0029" y="0.800293" width="51.515" height="51.515" rx="20" transform="rotate(15 14.0029 0.800293)" fill="white"/>
<mask id="mask0_2115_2706" style="mask-type:alpha" maskUnits="userSpaceOnUse" x="17" y="17" width="30" height="31">
<rect x="23.731" y="17.6497" width="24" height="24" transform="rotate(15 23.731 17.6497)" fill="#D9D9D9"/>
</mask>
<g mask="url(#mask0_2115_2706)">
<path d="M23.9712 32.208C24.4586 30.3888 25.466 28.7866 26.9932 27.4013C28.5205 26.0161 30.3941 24.9479 32.6141 24.1969C33.033 24.0504 33.4025 24.1364 33.7226 24.4551C34.0426 24.7738 34.1444 25.1505 34.028 25.5852L33.6915 26.8409C33.5449 27.3882 33.6111 27.8977 33.8902 28.3694C34.1693 28.841 34.5825 29.1502 35.1299 29.2968C35.4036 29.3702 35.6813 29.3799 35.9632 29.326C36.2451 29.2721 36.5128 29.1584 36.7664 28.9848C36.9383 28.8583 37.1303 28.8019 37.3423 28.8156C37.5543 28.8292 37.7316 28.9242 37.8742 29.1004C38.6943 30.0966 39.2432 31.2358 39.5208 32.5181C39.7984 33.8003 39.7668 35.0773 39.426 36.3491C39.0464 37.7658 38.3541 38.9649 37.3491 39.9466C36.3441 40.9283 35.1876 41.6062 33.8795 41.9804C34.2567 41.6674 34.5833 41.3019 34.8591 40.8841C35.135 40.4663 35.342 39.9998 35.48 39.4846C35.6526 38.8407 35.6947 38.2006 35.6063 37.5644C35.518 36.9282 35.3088 36.3243 34.9788 35.7527L32.4492 31.4773L28.1449 33.9216C27.5529 34.2633 27.0607 34.6836 26.6683 35.1824C26.2758 35.6811 25.9933 36.2525 25.8208 36.8964C25.6827 37.4116 25.6287 37.9191 25.6587 38.4188C25.6887 38.9186 25.7888 39.3984 25.9589 39.8581C25.0132 38.88 24.3506 37.7146 23.9711 36.362C23.5916 35.0093 23.5916 33.6246 23.9712 32.208ZM31.7245 34.1819L33.24 36.7362C33.4404 37.0832 33.5677 37.4452 33.622 37.8221C33.6763 38.199 33.6517 38.5806 33.5482 38.967C33.3368 39.7558 32.875 40.3524 32.1627 40.7569C31.4504 41.1613 30.6918 41.2557 29.8869 41.04C29.0819 40.8243 28.4721 40.3633 28.0575 39.6569C27.6429 38.9505 27.5412 38.2029 27.7526 37.4141C27.8518 37.0438 28.0202 36.705 28.2579 36.3977C28.4955 36.0904 28.7878 35.8366 29.1348 35.6362L31.7245 34.1819Z" fill="#4289FE"/>
</g>
</g>
<defs>
<filter id="filter0_b_2115_2706" x="-4.7667" y="-4.63633" width="73.966" height="73.9659" filterUnits="userSpaceOnUse" color-interpolation-filters="sRGB">
<feFlood flood-opacity="0" result="BackgroundImageFix"/>
<feGaussianBlur in="BackgroundImageFix" stdDeviation="2.71831"/>
<feComposite in2="SourceAlpha" operator="in" result="effect1_backgroundBlur_2115_2706"/>
<feBlend mode="normal" in="SourceGraphic" in2="effect1_backgroundBlur_2115_2706" result="shape"/>
</filter>
</defs>
</svg>
