<svg width="46" height="46" viewBox="0 0 46 46" fill="none" xmlns="http://www.w3.org/2000/svg">
<g filter="url(#filter0_b_2120_947)">
<rect x="0.865967" y="8.58191" width="37.7751" height="37.7751" rx="14.6657" transform="rotate(-11.6656 0.865967 8.58191)" fill="white"/>
<mask id="mask0_2120_947" style="mask-type:alpha" maskUnits="userSpaceOnUse" x="12" y="12" width="22" height="22">
<rect x="12.7856" y="16.4219" width="17.5988" height="17.5988" transform="rotate(-11.6656 12.7856 16.4219)" fill="#D9D9D9"/>
</mask>
<g mask="url(#mask0_2120_947)">
<path d="M17.7338 25.8827C17.4546 24.5302 17.5874 23.1488 18.1324 21.7384C18.6773 20.3281 19.5535 19.0116 20.7612 17.7889C20.9874 17.555 21.2579 17.4898 21.5725 17.5933C21.8871 17.6968 22.0778 17.9101 22.1445 18.2333L22.3373 19.1669C22.4213 19.5738 22.6323 19.8859 22.9705 20.1031C23.3086 20.3203 23.6811 20.3869 24.088 20.3029C24.2915 20.2609 24.4767 20.1758 24.6437 20.0478C24.8107 19.9197 24.9487 19.7571 25.0577 19.5598C25.1288 19.4204 25.236 19.3202 25.3794 19.2594C25.5229 19.1986 25.6703 19.2025 25.8217 19.2711C26.687 19.654 27.4215 20.2199 28.0254 20.9687C28.6293 21.7176 29.0288 22.5648 29.224 23.5104C29.4415 24.5636 29.3825 25.5773 29.047 26.5513C28.7115 27.5253 28.1767 28.3501 27.4427 29.0258C27.5868 28.6965 27.6805 28.3496 27.7238 27.985C27.7671 27.6204 27.7492 27.2466 27.6701 26.8636C27.5713 26.3849 27.3882 25.9516 27.121 25.5637C26.8537 25.1759 26.5179 24.849 26.1136 24.5831L23.049 22.6139L21.0328 25.6321C20.7573 26.0509 20.5731 26.4882 20.48 26.9442C20.387 27.4002 20.3899 27.8676 20.4887 28.3463C20.5678 28.7293 20.6994 29.0796 20.8836 29.3973C21.0677 29.7149 21.2911 29.9964 21.5539 30.2416C20.6123 29.9119 19.7946 29.3663 19.1008 28.6048C18.4069 27.8433 17.9513 26.9359 17.7338 25.8827ZM23.4641 24.6247L25.2978 25.7998C25.5433 25.9612 25.7458 26.1565 25.9055 26.3856C26.0651 26.6147 26.1745 26.8729 26.2338 27.1602C26.3549 27.7466 26.2486 28.2896 25.915 28.789C25.5813 29.2884 25.1153 29.5999 24.5168 29.7235C23.9184 29.847 23.3671 29.7456 22.8629 29.4192C22.3587 29.0927 22.0461 28.6363 21.925 28.0498C21.8682 27.7745 21.8671 27.4971 21.9216 27.2175C21.9762 26.9379 22.0843 26.6754 22.2457 26.4299L23.4641 24.6247Z" fill="#4289FE"/>
</g>
</g>
<defs>
<filter id="filter0_b_2120_947" x="-3.12062" y="-3.04274" width="52.606" height="52.6061" filterUnits="userSpaceOnUse" color-interpolation-filters="sRGB">
<feFlood flood-opacity="0" result="BackgroundImageFix"/>
<feGaussianBlur in="BackgroundImageFix" stdDeviation="1.99329"/>
<feComposite in2="SourceAlpha" operator="in" result="effect1_backgroundBlur_2120_947"/>
<feBlend mode="normal" in="SourceGraphic" in2="effect1_backgroundBlur_2120_947" result="shape"/>
</filter>
</defs>
</svg>
